RobotoCondensed-ThinItalic.ufo
<glyph name="exclam" format="1">
  <advance width="363"/>
  <unicode hex="0021"/>
  <outline>
    <contour>
      <point x="325" y="1456" type="line"/>
      <point x="280" y="1456" type="line"/>
      <point x="127" y="401" type="line"/>
      <point x="173" y="401" type="line"/>
    </contour>
    <contour>
      <point x="59" y="51" type="curve" smooth="yes"/>
      <point x="55" y="22"/>
      <point x="74" y="-5"/>
      <point x="99" y="-6" type="curve" smooth="yes"/>
      <point x="122" y="-6"/>
      <point x="147" y="20"/>
      <point x="151" y="47" type="curve" smooth="yes"/>
      <point x="155" y="76"/>
      <point x="136" y="105"/>
      <point x="111" y="105" type="curve" smooth="yes"/>
      <point x="87" y="105"/>
      <point x="63" y="78"/>
    </contour>
  </outline>
</glyph>
<glyph name="quotedbl" format="1">
  <advance width="505"/>
  <unicode hex="0022"/>
  <outline>
    <contour>
      <point x="350" y="1536" type="line"/>
      <point x="295" y="1536" type="line"/>
      <point x="274" y="1395" type="line"/>
      <point x="227" y="1122" type="line"/>
      <point x="277" y="1122" type="line"/>
      <point x="328" y="1388" type="line"/>
    </contour>
    <contour>
      <point x="545" y="1536" type="line"/>
      <point x="491" y="1536" type="line"/>
      <point x="469" y="1395" type="line"/>
      <point x="422" y="1122" type="line"/>
      <point x="472" y="1122" type="line"/>
      <point x="523" y="1388" type="line"/>
    </contour>
  </outline>
</glyph>
<glyph name="numbersign" format="1">
  <advance width="953"/>
  <unicode hex="0023"/>
  <outline>
    <contour>
      <point x="135" y="0" type="line"/>
      <point x="182" y="0" type="line"/>
      <point x="608" y="1455" type="line"/>
      <point x="560" y="1455" type="line"/>
    </contour>
    <contour>
      <point x="476" y="0" type="line"/>
      <point x="524" y="0" type="line"/>
      <point x="951" y="1455" type="line"/>
      <point x="903" y="1455" type="line"/>
    </contour>
    <contour>
      <point x="1029" y="986" type="line"/>
      <point x="1035" y="1040" type="line"/>
      <point x="186" y="1040" type="line"/>
      <point x="180" y="986" type="line"/>
    </contour>
    <contour>
      <point x="884" y="410" type="line"/>
      <point x="890" y="462" type="line"/>
      <point x="40" y="462" type="line"/>
      <point x="34" y="410" type="line"/>
    </contour>
  </outline>
</glyph>
<glyph name="dollar" format="1">
  <advance width="953"/>
  <unicode hex="0024"/>
  <outline>
    <contour>
      <point x="656" y="1663" type="line"/>
      <point x="610" y="1663" type="line"/>
      <point x="581" y="1437" type="line"/>
      <point x="627" y="1437" type="line"/>
    </contour>
    <contour>
      <point x="449" y="19" type="line"/>
      <point x="403" y="19" type="line"/>
      <point x="374" y="-208" type="line"/>
      <point x="420" y="-208" type="line"/>
    </contour>
    <contour>
      <point x="757" y="344" type="curve" smooth="yes"/>
      <point x="729" y="154"/>
      <point x="575" y="34"/>
      <point x="419" y="32" type="curve" smooth="yes"/>
      <point x="225" y="30"/>
      <point x="112" y="180"/>
      <point x="138" y="409" type="curve"/>
      <point x="93" y="409" type="line"/>
      <point x="65" y="145"/>
      <point x="199" y="-22"/>
      <point x="420" y="-21" type="curve" smooth="yes"/>
      <point x="608" y="-20"/>
      <point x="775" y="116"/>
      <point x="803" y="346" type="curve" smooth="yes"/>
      <point x="833" y="582"/>
      <point x="682" y="681"/>
      <point x="520" y="754" type="curve" smooth="yes"/>
      <point x="373" y="820"/>
      <point x="237" y="900"/>
      <point x="269" y="1112" type="curve" smooth="yes"/>
      <point x="298" y="1306"/>
      <point x="444" y="1424"/>
      <point x="604" y="1424" type="curve" smooth="yes"/>
      <point x="790" y="1424"/>
      <point x="867" y="1249"/>
      <point x="844" y="1047" type="curve"/>
      <point x="889" y="1047" type="line"/>
      <point x="915" y="1289"/>
      <point x="821" y="1477"/>
      <point x="603" y="1477" type="curve" smooth="yes"/>
      <point x="416" y="1477"/>
      <point x="251" y="1337"/>
      <point x="223" y="1110" type="curve" smooth="yes"/>
      <point x="193" y="870"/>
      <point x="343" y="778"/>
      <point x="506" y="702" type="curve" smooth="yes"/>
      <point x="647" y="637"/>
      <point x="788" y="550"/>
    </contour>
  </outline>
</glyph>
<glyph name="percent" format="1">
  <advance width="1284"/>
  <unicode hex="0025"/>
  <outline>
    <contour>
      <point x="185" y="1099" type="line" smooth="yes"/>
      <point x="167" y="951"/>
      <point x="230" y="800"/>
      <point x="370" y="800" type="curve" smooth="yes"/>
      <point x="509" y="801"/>
      <point x="606" y="947"/>
      <point x="629" y="1099" type="curve" smooth="yes"/>
      <point x="640" y="1176" type="line" smooth="yes"/>
      <point x="658" y="1323"/>
      <point x="598" y="1477"/>
      <point x="458" y="1477" type="curve" smooth="yes"/>
      <point x="318" y="1476"/>
      <point x="219" y="1329"/>
      <point x="196" y="1176" type="curve" smooth="yes"/>
    </contour>
    <contour>
      <point x="243" y="1176" type="line" smooth="yes"/>
      <point x="264" y="1301"/>
      <point x="343" y="1422"/>
      <point x="458" y="1422" type="curve" smooth="yes"/>
      <point x="574" y="1421"/>
      <point x="611" y="1293"/>
      <point x="594" y="1176" type="curve" smooth="yes"/>
      <point x="582" y="1099" type="line" smooth="yes"/>
      <point x="561" y="975"/>
      <point x="485" y="856"/>
      <point x="369" y="855" type="curve" smooth="yes"/>
      <point x="254" y="855"/>
      <point x="214" y="980"/>
      <point x="231" y="1099" type="curve" smooth="yes"/>
    </contour>
    <contour>
      <point x="682" y="279" type="line" smooth="yes"/>
      <point x="664" y="131"/>
      <point x="726" y="-21"/>
      <point x="865" y="-21" type="curve" smooth="yes"/>
      <point x="1005" y="-20"/>
      <point x="1103" y="127"/>
      <point x="1126" y="279" type="curve" smooth="yes"/>
      <point x="1137" y="357" type="line" smooth="yes"/>
      <point x="1155" y="505"/>
      <point x="1094" y="657"/>
      <point x="954" y="657" type="curve" smooth="yes"/>
      <point x="814" y="656"/>
      <point x="716" y="510"/>
      <point x="693" y="357" type="curve" smooth="yes"/>
    </contour>
    <contour>
      <point x="740" y="357" type="line" smooth="yes"/>
      <point x="761" y="484"/>
      <point x="837" y="602"/>
      <point x="954" y="602" type="curve" smooth="yes"/>
      <point x="1073" y="601"/>
      <point x="1108" y="478"/>
      <point x="1091" y="357" type="curve" smooth="yes"/>
      <point x="1079" y="279" type="line" smooth="yes"/>
      <point x="1058" y="154"/>
      <point x="981" y="34"/>
      <point x="865" y="34" type="curve" smooth="yes"/>
      <point x="749" y="35"/>
      <point x="711" y="160"/>
      <point x="728" y="279" type="curve" smooth="yes"/>
    </contour>
    <contour>
      <point x="1042" y="1267" type="line"/>
      <point x="1006" y="1299" type="line"/>
      <point x="263" y="164" type="line"/>
      <point x="298" y="132" type="line"/>
    </contour>
  </outline>
</glyph>
<glyph name="ampersand" format="1">
  <advance width="1056"/>
  <unicode hex="0026"/>
  <outline>
    <contour>
      <point x="340" y="762" type="line" smooth="yes"/>
      <point x="227" y="660"/>
      <point x="102" y="529"/>
      <point x="80" y="352" type="curve" smooth="yes"/>
      <point x="51" y="113"/>
      <point x="202" y="-20"/>
      <point x="390" y="-20" type="curve" smooth="yes"/>
      <point x="535" y="-20"/>
      <point x="659" y="70"/>
      <point x="764" y="181" type="curve" smooth="yes"/>
      <point x="770" y="187"/>
      <point x="775" y="193"/>
      <point x="780" y="199" type="curve" smooth="yes"/>
      <point x="873" y="323"/>
      <point x="930" y="467"/>
      <point x="953" y="632" type="curve"/>
      <point x="906" y="632" type="line"/>
      <point x="869" y="326"/>
      <point x="644" y="33"/>
      <point x="387" y="34" type="curve" smooth="yes"/>
      <point x="228" y="35"/>
      <point x="98" y="149"/>
      <point x="126" y="352" type="curve" smooth="yes"/>
      <point x="148" y="509"/>
      <point x="267" y="632"/>
      <point x="367" y="723" type="curve" smooth="yes"/>
      <point x="592" y="918" type="line" smooth="yes"/>
      <point x="673" y="990"/>
      <point x="768" y="1087"/>
      <point x="784" y="1213" type="curve" smooth="yes"/>
      <point x="804" y="1365"/>
      <point x="717" y="1477"/>
      <point x="589" y="1477" type="curve" smooth="yes"/>
      <point x="438" y="1477"/>
      <point x="325" y="1341"/>
      <point x="303" y="1167" type="curve" smooth="yes"/>
      <point x="282" y="1002"/>
      <point x="360" y="854"/>
      <point x="436" y="725" type="curve" smooth="yes"/>
      <point x="862" y="0" type="line"/>
      <point x="915" y="0" type="line"/>
      <point x="430" y="826" type="line" smooth="yes"/>
      <point x="373" y="924"/>
      <point x="332" y="1047"/>
      <point x="350" y="1169" type="curve" smooth="yes"/>
      <point x="371" y="1310"/>
      <point x="465" y="1423"/>
      <point x="590" y="1423" type="curve" smooth="yes"/>
      <point x="690" y="1422"/>
      <point x="755" y="1332"/>
      <point x="737" y="1213" type="curve" smooth="yes"/>
      <point x="721" y="1104"/>
      <point x="641" y="1022"/>
      <point x="570" y="960" type="curve" smooth="yes"/>
    </contour>
  </outline>
</glyph>
<glyph name="quotesingle" format="1">
  <advance width="330"/>
  <unicode hex="0027"/>
  <outline>
    <contour>
      <point x="341" y="1536" type="line"/>
      <point x="286" y="1536" type="line"/>
      <point x="260" y="1370" type="line"/>
      <point x="213" y="1122" type="line"/>
      <point x="264" y="1122" type="line"/>
      <point x="314" y="1362" type="line"/>
    </contour>
  </outline>
</glyph>
<glyph name="parenleft" format="1">
  <advance width="535"/>
  <unicode hex="0028"/>
  <outline>
    <contour>
      <point x="136" y="566" type="line" smooth="yes"/>
      <point x="95" y="244"/>
      <point x="95" y="-249"/>
      <point x="340" y="-469" type="curve"/>
      <point x="360" y="-428" type="line"/>
      <point x="137" y="-223"/>
      <point x="143" y="270"/>
      <point x="181" y="564" type="curve" smooth="yes"/>
      <point x="184" y="590" type="line" smooth="yes"/>
      <point x="231" y="933"/>
      <point x="365" y="1378"/>
      <point x="622" y="1578" type="curve"/>
      <point x="611" y="1623" type="line"/>
      <point x="329" y="1425"/>
      <point x="186" y="948"/>
      <point x="138" y="586" type="curve" smooth="yes"/>
    </contour>
  </outline>
</glyph>
<glyph name="parenright" format="1">
  <advance width="548"/>
  <unicode hex="0029"/>
  <outline>
    <contour>
      <point x="395" y="586" type="line" smooth="yes"/>
      <point x="435" y="903"/>
      <point x="432" y="1405"/>
      <point x="191" y="1622" type="curve"/>
      <point x="170" y="1581" type="line"/>
      <point x="394" y="1377"/>
      <point x="388" y="883"/>
      <point x="350" y="590" type="curve" smooth="yes"/>
      <point x="346" y="564" type="line" smooth="yes"/>
      <point x="299" y="221"/>
      <point x="165" y="-224"/>
      <point x="-92" y="-425" type="curve"/>
      <point x="-81" y="-470" type="line"/>
      <point x="205" y="-271"/>
      <point x="343" y="200"/>
      <point x="392" y="566" type="curve" smooth="yes"/>
    </contour>
  </outline>
</glyph>
<glyph name="asterisk" format="1">
  <advance width="830"/>
  <unicode hex="002A"/>
  <outline>
    <contour>
      <point x="169" y="695" type="line"/>
      <point x="212" y="662" type="line"/>
      <point x="489" y="985" type="line"/>
      <point x="668" y="664" type="line"/>
      <point x="717" y="695" type="line"/>
      <point x="529" y="1012" type="line"/>
      <point x="904" y="1150" type="line"/>
      <point x="891" y="1204" type="line"/>
      <point x="527" y="1064" type="line"/>
      <point x="602" y="1456" type="line"/>
      <point x="546" y="1456" type="line"/>
      <point x="477" y="1061" type="line"/>
      <point x="147" y="1194" type="line"/>
      <point x="122" y="1142" type="line"/>
      <point x="452" y="1019" type="line"/>
    </contour>
  </outline>
</glyph>
<glyph name="plus" format="1">
  <advance width="978"/>
  <unicode hex="002B"/>
  <outline>
    <contour>
      <point x="907" y="702" type="line"/>
      <point x="93" y="702" type="line"/>
      <point x="87" y="649" type="line"/>
      <point x="901" y="649" type="line"/>
    </contour>
    <contour>
      <point x="589" y="1206" type="line"/>
      <point x="543" y="1206" type="line"/>
      <point x="390" y="146" type="line"/>
      <point x="436" y="146" type="line"/>
    </contour>
  </outline>
</glyph>
<glyph name="comma" format="1">
  <advance width="372"/>
  <unicode hex="002C"/>
  <outline>
    <contour>
      <point x="136" y="214" type="move" name="_bottom"/>
    </contour>
    <contour>
      <point x="77" y="25" type="move" name="_right"/>
    </contour>
    <contour>
      <point x="152" y="159" type="line"/>
      <point x="98" y="159" type="line"/>
      <point x="75" y="25" type="line" smooth="yes"/>
      <point x="56" y="-72"/>
      <point x="11" y="-148"/>
      <point x="-54" y="-221" type="curve"/>
      <point x="-20" y="-255" type="line"/>
      <point x="61" y="-178"/>
      <point x="110" y="-83"/>
      <point x="130" y="27" type="curve" smooth="yes"/>
    </contour>
  </outline>
</glyph>
<glyph name="hyphen" format="1">
  <advance width="535"/>
  <unicode hex="002D"/>
  <outline>
    <contour>
      <point x="466" y="693" type="line"/>
      <point x="82" y="693" type="line"/>
      <point x="76" y="639" type="line"/>
      <point x="460" y="639" type="line"/>
    </contour>
  </outline>
</glyph>
<glyph name="period" format="1">
  <advance width="426"/>
  <unicode hex="002E"/>
  <outline>
    <contour>
      <point x="47" y="51" type="curve" smooth="yes"/>
      <point x="42" y="22"/>
      <point x="64" y="-5"/>
      <point x="94" y="-6" type="curve" smooth="yes"/>
      <point x="122" y="-6"/>
      <point x="152" y="20"/>
      <point x="156" y="47" type="curve" smooth="yes"/>
      <point x="160" y="76"/>
      <point x="138" y="105"/>
      <point x="108" y="105" type="curve" smooth="yes"/>
      <point x="80" y="105"/>
      <point x="51" y="78"/>
    </contour>
  </outline>
</glyph>
<glyph name="slash" format="1">
  <advance width="677"/>
  <unicode hex="002F"/>
  <outline>
    <contour>
      <point x="723" y="1455" type="line"/>
      <point x="672" y="1455" type="line"/>
      <point x="-51" y="-124" type="line"/>
      <point x="-1" y="-124" type="line"/>
    </contour>
  </outline>
</glyph>
<glyph name="zero" format="1">
  <advance width="953"/>
  <unicode hex="0030"/>
  <outline>
    <contour>
      <point x="871" y="862" type="line" smooth="yes"/>
      <point x="906" y="1117"/>
      <point x="881" y="1477"/>
      <point x="600" y="1477" type="curve" smooth="yes"/>
      <point x="324" y="1477"/>
      <point x="200" y="1138"/>
      <point x="159" y="862" type="curve" smooth="yes"/>
      <point x="121" y="594" type="line" smooth="yes"/>
      <point x="85" y="340"/>
      <point x="112" y="-20"/>
      <point x="392" y="-20" type="curve" smooth="yes"/>
      <point x="669" y="-20"/>
      <point x="791" y="317"/>
      <point x="832" y="594" type="curve" smooth="yes"/>
    </contour>
    <contour>
      <point x="786" y="596" type="line" smooth="yes"/>
      <point x="749" y="351"/>
      <point x="639" y="34"/>
      <point x="392" y="34" type="curve" smooth="yes"/>
      <point x="141" y="34"/>
      <point x="135" y="378"/>
      <point x="166" y="596" type="curve" smooth="yes"/>
      <point x="205" y="862" type="line" smooth="yes"/>
      <point x="243" y="1108"/>
      <point x="352" y="1423"/>
      <point x="600" y="1423" type="curve" smooth="yes"/>
      <point x="853" y="1423"/>
      <point x="856" y="1082"/>
      <point x="825" y="862" type="curve" smooth="yes"/>
    </contour>
  </outline>
</glyph>
<glyph name="one" format="1">
  <advance width="953"/>
  <unicode hex="0031"/>
  <outline>
    <contour>
      <point x="681" y="1460" type="line"/>
      <point x="670" y="1460" type="line"/>
      <point x="272" y="1290" type="line"/>
      <point x="265" y="1232" type="line"/>
      <point x="627" y="1385" type="line"/>
      <point x="426" y="0" type="line"/>
      <point x="471" y="0" type="line"/>
    </contour>
  </outline>
</glyph>
<glyph name="two" format="1">
  <advance width="953"/>
  <unicode hex="0032"/>
  <outline>
    <contour>
      <point x="783" y="54" type="line"/>
      <point x="134" y="54" type="line"/>
      <point x="543" y="546" type="line" smooth="yes"/>
      <point x="664" y="693"/>
      <point x="828" y="869"/>
      <point x="855" y="1085" type="curve" smooth="yes"/>
      <point x="885" y="1320"/>
      <point x="766" y="1477"/>
      <point x="568" y="1476" type="curve" smooth="yes"/>
      <point x="362" y="1475"/>
      <point x="207" y="1277"/>
      <point x="174" y="1045" type="curve"/>
      <point x="219" y="1045" type="line"/>
      <point x="253" y="1247"/>
      <point x="387" y="1421"/>
      <point x="568" y="1422" type="curve" smooth="yes"/>
      <point x="741" y="1423"/>
      <point x="837" y="1286"/>
      <point x="809" y="1085" type="curve" smooth="yes"/>
      <point x="782" y="894"/>
      <point x="639" y="734"/>
      <point x="531" y="604" type="curve" smooth="yes"/>
      <point x="72" y="54" type="line"/>
      <point x="67" y="0" type="line"/>
      <point x="777" y="0" type="line"/>
    </contour>
  </outline>
</glyph>
<glyph name="three" format="1">
  <advance width="953"/>
  <unicode hex="0033"/>
  <outline>
    <contour>
      <point x="381" y="770" type="line"/>
      <point x="376" y="720" type="line"/>
      <point x="473" y="720" type="line" smooth="yes"/>
      <point x="656" y="723"/>
      <point x="849" y="848"/>
      <point x="879" y="1081" type="curve" smooth="yes"/>
      <point x="908" y="1312"/>
      <point x="786" y="1476"/>
      <point x="591" y="1476" type="curve" smooth="yes"/>
      <point x="389" y="1476"/>
      <point x="226" y="1308"/>
      <point x="191" y="1075" type="curve"/>
      <point x="237" y="1074" type="line"/>
      <point x="272" y="1279"/>
      <point x="414" y="1422"/>
      <point x="591" y="1422" type="curve" smooth="yes"/>
      <point x="760" y="1422"/>
      <point x="863" y="1285"/>
      <point x="833" y="1085" type="curve" smooth="yes"/>
      <point x="803" y="878"/>
      <point x="633" y="773"/>
      <point x="469" y="770" type="curve" smooth="yes"/>
    </contour>
    <contour>
      <point x="375" y="714" type="line"/>
      <point x="468" y="714" type="line" smooth="yes"/>
      <point x="645" y="712"/>
      <point x="801" y="621"/>
      <point x="767" y="382" type="curve" smooth="yes"/>
      <point x="737" y="165"/>
      <point x="591" y="34"/>
      <point x="409" y="34" type="curve" smooth="yes"/>
      <point x="227" y="34"/>
      <point x="99" y="187"/>
      <point x="122" y="405" type="curve"/>
      <point x="78" y="405" type="line"/>
      <point x="53" y="154"/>
      <point x="201" y="-20"/>
      <point x="410" y="-20" type="curve" smooth="yes"/>
      <point x="614" y="-20"/>
      <point x="783" y="142"/>
      <point x="813" y="386" type="curve" smooth="yes"/>
      <point x="846" y="647"/>
      <point x="666" y="760"/>
      <point x="472" y="763" type="curve" smooth="yes"/>
      <point x="380" y="763" type="line"/>
    </contour>
  </outline>
</glyph>
<glyph name="four" format="1">
  <advance width="953"/>
  <unicode hex="0034"/>
  <outline>
    <contour>
      <point x="890" y="451" type="line"/>
      <point x="137" y="451" type="line"/>
      <point x="690" y="1250" type="line"/>
      <point x="819" y="1454" type="line"/>
      <point x="775" y="1455" type="line"/>
      <point x="61" y="427" type="line"/>
      <point x="58" y="398" type="line"/>
      <point x="884" y="397" type="line"/>
    </contour>
    <contour>
      <point x="831" y="1456" type="line"/>
      <point x="786" y="1456" type="line"/>
      <point x="575" y="0" type="line"/>
      <point x="620" y="0" type="line"/>
    </contour>
  </outline>
</glyph>
<glyph name="six" format="1">
  <advance width="953"/>
  <unicode hex="0036"/>
  <outline>
    <contour>
      <point x="802" y="1476" type="line" smooth="yes"/>
      <point x="407" y="1473"/>
      <point x="189" y="1089"/>
      <point x="132" y="660" type="curve" smooth="yes"/>
      <point x="110" y="492" type="line" smooth="yes"/>
      <point x="79" y="230"/>
      <point x="191" y="-21"/>
      <point x="433" y="-20" type="curve" smooth="yes"/>
      <point x="657" y="-18"/>
      <point x="800" y="241"/>
      <point x="831" y="480" type="curve" smooth="yes"/>
      <point x="861" y="719"/>
      <point x="772" y="957"/>
      <point x="546" y="957" type="curve" smooth="yes"/>
      <point x="350" y="957"/>
      <point x="159" y="792"/>
      <point x="124" y="559" type="curve"/>
      <point x="157" y="557" type="line"/>
      <point x="175" y="749"/>
      <point x="369" y="903"/>
      <point x="540" y="903" type="curve" smooth="yes"/>
      <point x="743" y="903"/>
      <point x="815" y="692"/>
      <point x="785" y="480" type="curve" smooth="yes"/>
      <point x="756" y="272"/>
      <point x="629" y="35"/>
      <point x="432" y="33" type="curve" smooth="yes"/>
      <point x="213" y="31"/>
      <point x="126" y="263"/>
      <point x="155" y="493" type="curve" smooth="yes"/>
      <point x="176" y="651" type="line"/>
      <point x="178" y="681" type="line"/>
      <point x="236" y="1071"/>
      <point x="443" y="1417"/>
      <point x="800" y="1422" type="curve" smooth="yes"/>
      <point x="814" y="1422" type="line"/>
      <point x="820" y="1476" type="line"/>
    </contour>
  </outline>
</glyph>
<glyph name="seven" format="1">
  <advance width="953"/>
  <unicode hex="0037"/>
  <outline>
    <contour>
      <point x="952" y="1456" type="line"/>
      <point x="194" y="1456" type="line"/>
      <point x="188" y="1402" type="line"/>
      <point x="893" y="1402" type="line"/>
      <point x="194" y="0" type="line"/>
      <point x="242" y="0" type="line"/>
      <point x="949" y="1422" type="line"/>
    </contour>
  </outline>
</glyph>
<glyph name="eight" format="1">
  <advance width="953"/>
  <unicode hex="0038"/>
  <outline>
    <contour>
      <point x="827" y="379" type="curve" smooth="yes"/>
      <point x="859" y="619"/>
      <point x="684" y="765"/>
      <point x="499" y="765" type="curve" smooth="yes"/>
      <point x="304" y="765"/>
      <point x="102" y="621"/>
      <point x="69" y="379" type="curve" smooth="yes"/>
      <point x="33" y="124"/>
      <point x="194" y="-20"/>
      <point x="395" y="-20" type="curve" smooth="yes"/>
      <point x="601" y="-20"/>
      <point x="792" y="125"/>
    </contour>
    <contour>
      <point x="780" y="374" type="curve" smooth="yes"/>
      <point x="745" y="156"/>
      <point x="571" y="34"/>
      <point x="394" y="34" type="curve" smooth="yes"/>
      <point x="224" y="34"/>
      <point x="79" y="154"/>
      <point x="113" y="374" type="curve" smooth="yes"/>
      <point x="148" y="590"/>
      <point x="324" y="718"/>
      <point x="500" y="718" type="curve" smooth="yes"/>
      <point x="667" y="718"/>
      <point x="813" y="587"/>
    </contour>
    <contour>
      <point x="895" y="1086" type="curve" smooth="yes"/>
      <point x="928" y="1318"/>
      <point x="792" y="1476"/>
      <point x="601" y="1476" type="curve" smooth="yes"/>
      <point x="403" y="1476"/>
      <point x="237" y="1322"/>
      <point x="205" y="1086" type="curve" smooth="yes"/>
      <point x="175" y="864"/>
      <point x="318" y="723"/>
      <point x="501" y="723" type="curve" smooth="yes"/>
      <point x="682" y="723"/>
      <point x="864" y="864"/>
    </contour>
    <contour>
      <point x="851" y="1091" type="curve" smooth="yes"/>
      <point x="819" y="895"/>
      <point x="661" y="772"/>
      <point x="500" y="772" type="curve" smooth="yes"/>
      <point x="343" y="772"/>
      <point x="220" y="895"/>
      <point x="251" y="1091" type="curve" smooth="yes"/>
      <point x="283" y="1291"/>
      <point x="434" y="1422"/>
      <point x="601" y="1422" type="curve" smooth="yes"/>
      <point x="758" y="1421"/>
      <point x="881" y="1283"/>
    </contour>
  </outline>
</glyph>
<glyph name="nine" format="1">
  <advance width="953"/>
  <unicode hex="0039"/>
  <outline>
    <contour>
      <point x="189" y="34" type="line"/>
      <point x="182" y="-20" type="line"/>
      <point x="212" y="-20" type="line" smooth="yes"/>
      <point x="594" y="-17"/>
      <point x="793" y="321"/>
      <point x="848" y="740" type="curve" smooth="yes"/>
      <point x="869" y="903" type="line" smooth="yes"/>
      <point x="904" y="1180"/>
      <point x="843" y="1478"/>
      <point x="564" y="1476" type="curve" smooth="yes"/>
      <point x="333" y="1474"/>
      <point x="181" y="1206"/>
      <point x="150" y="958" type="curve" smooth="yes"/>
      <point x="122" y="729"/>
      <point x="212" y="469"/>
      <point x="432" y="468" type="curve" smooth="yes"/>
      <point x="655" y="467"/>
      <point x="836" y="678"/>
      <point x="864" y="926" type="curve"/>
      <point x="836" y="925" type="line"/>
      <point x="807" y="704"/>
      <point x="623" y="522"/>
      <point x="432" y="522" type="curve" smooth="yes"/>
      <point x="237" y="523"/>
      <point x="169" y="761"/>
      <point x="196" y="958" type="curve" smooth="yes"/>
      <point x="226" y="1175"/>
      <point x="364" y="1420"/>
      <point x="568" y="1422" type="curve" smooth="yes"/>
      <point x="817" y="1424"/>
      <point x="854" y="1140"/>
      <point x="824" y="902" type="curve" smooth="yes"/>
      <point x="808" y="772" type="line"/>
      <point x="801" y="723" type="line"/>
      <point x="749" y="342"/>
      <point x="557" y="39"/>
      <point x="214" y="34" type="curve" smooth="yes"/>
    </contour>
  </outline>
</glyph>
<glyph name="less" format="1">
  <advance width="898"/>
  <unicode hex="003C"/>
  <outline>
    <contour>
      <point x="125" y="683" type="line"/>
      <point x="98" y="683" type="line"/>
      <point x="92" y="641" type="line"/>
      <point x="722" y="262" type="line"/>
      <point x="729" y="321" type="line"/>
    </contour>
    <contour>
      <point x="830" y="1011" type="line"/>
      <point x="837" y="1068" type="line"/>
      <point x="99" y="691" type="line"/>
      <point x="94" y="650" type="line"/>
      <point x="126" y="650" type="line"/>
    </contour>
  </outline>
</glyph>
<glyph name="equal" format="1">
  <advance width="971"/>
  <unicode hex="003D"/>
  <outline>
    <contour>
      <point x="863" y="897" type="line"/>
      <point x="182" y="897" type="line"/>
      <point x="176" y="843" type="line"/>
      <point x="856" y="843" type="line"/>
    </contour>
    <contour>
      <point x="803" y="490" type="line"/>
      <point x="123" y="490" type="line"/>
      <point x="116" y="436" type="line"/>
      <point x="797" y="436" type="line"/>
    </contour>
  </outline>
</glyph>
<glyph name="greater" format="1">
  <advance width="898"/>
  <unicode hex="003E"/>
  <outline>
    <contour>
      <point x="774" y="650" type="line"/>
      <point x="803" y="651" type="line"/>
      <point x="809" y="694" type="line"/>
      <point x="180" y="1072" type="line"/>
      <point x="173" y="1013" type="line"/>
    </contour>
    <contour>
      <point x="72" y="324" type="line"/>
      <point x="65" y="266" type="line"/>
      <point x="802" y="644" type="line"/>
      <point x="807" y="687" type="line"/>
      <point x="777" y="687" type="line"/>
    </contour>
  </outline>
</glyph>
<glyph name="question" format="1">
  <advance width="768"/>
  <unicode hex="003F"/>
  <outline>
    <contour>
      <point x="358" y="400" type="line"/>
      <point x="380" y="525"/>
      <point x="427" y="620"/>
      <point x="512" y="698" type="curve" smooth="yes"/>
      <point x="627" y="806"/>
      <point x="724" y="932"/>
      <point x="748" y="1110" type="curve" smooth="yes"/>
      <point x="774" y="1304"/>
      <point x="694" y="1476"/>
      <point x="517" y="1476" type="curve" smooth="yes"/>
      <point x="337" y="1476"/>
      <point x="206" y="1318"/>
      <point x="171" y="1117" type="curve"/>
      <point x="216" y="1117" type="line"/>
      <point x="252" y="1290"/>
      <point x="361" y="1423"/>
      <point x="517" y="1423" type="curve" smooth="yes"/>
      <point x="670" y="1422"/>
      <point x="728" y="1276"/>
      <point x="703" y="1112" type="curve" smooth="yes"/>
      <point x="678" y="947"/>
      <point x="592" y="844"/>
      <point x="488" y="740" type="curve" smooth="yes"/>
      <point x="393" y="645"/>
      <point x="337" y="546"/>
      <point x="313" y="401" type="curve"/>
    </contour>
    <contour>
      <point x="242" y="51" type="curve" smooth="yes"/>
      <point x="238" y="22"/>
      <point x="256" y="-5"/>
      <point x="281" y="-6" type="curve" smooth="yes"/>
      <point x="305" y="-6"/>
      <point x="330" y="20"/>
      <point x="333" y="47" type="curve" smooth="yes"/>
      <point x="337" y="76"/>
      <point x="318" y="105"/>
      <point x="293" y="105" type="curve" smooth="yes"/>
      <point x="269" y="105"/>
      <point x="245" y="78"/>
    </contour>
  </outline>
</glyph>
<glyph name="at" format="1">
  <advance width="1590"/>
  <unicode hex="0040"/>
  <outline>
    <contour>
      <point x="910" y="-366" type="curve"/>
      <point x="895" y="-318" type="line"/>
      <point x="808" y="-369"/>
      <point x="710" y="-398"/>
      <point x="612" y="-398" type="curve" smooth="yes"/>
      <point x="197" y="-399"/>
      <point x="74" y="60"/>
      <point x="154" y="478" type="curve" smooth="yes"/>
      <point x="239" y="926"/>
      <point x="533" y="1353"/>
      <point x="947" y="1354" type="curve" smooth="yes"/>
      <point x="1375" y="1354"/>
      <point x="1485" y="966"/>
      <point x="1401" y="523" type="curve" smooth="yes"/>
      <point x="1366" y="333"/>
      <point x="1276" y="36"/>
      <point x="1075" y="35" type="curve" smooth="yes"/>
      <point x="950" y="35"/>
      <point x="944" y="179"/>
      <point x="967" y="293" type="curve" smooth="yes"/>
      <point x="1091" y="878" type="line"/>
      <point x="1036" y="944"/>
      <point x="982" y="987"/>
      <point x="899" y="988" type="curve" smooth="yes"/>
      <point x="661" y="989"/>
      <point x="516" y="674"/>
      <point x="466" y="436" type="curve" smooth="yes"/>
      <point x="432" y="279"/>
      <point x="412" y="-18"/>
      <point x="610" y="-20" type="curve" smooth="yes"/>
      <point x="744" y="-21"/>
      <point x="842" y="85"/>
      <point x="913" y="210" type="curve"/>
      <point x="907" y="84"/>
      <point x="957" y="-20"/>
      <point x="1073" y="-20" type="curve" smooth="yes"/>
      <point x="1298" y="-20"/>
      <point x="1411" y="304"/>
      <point x="1450" y="523" type="curve" smooth="yes"/>
      <point x="1533" y="995"/>
      <point x="1401" y="1411"/>
      <point x="950" y="1411" type="curve" smooth="yes"/>
      <point x="500" y="1411"/>
      <point x="194" y="970"/>
      <point x="107" y="478" type="curve" smooth="yes"/>
      <point x="25" y="18"/>
      <point x="159" y="-454"/>
      <point x="610" y="-453" type="curve" smooth="yes"/>
      <point x="711" y="-453"/>
      <point x="821" y="-427"/>
    </contour>
    <contour>
      <point x="512" y="436" type="curve" smooth="yes"/>
      <point x="562" y="643"/>
      <point x="684" y="935"/>
      <point x="897" y="933" type="curve" smooth="yes"/>
      <point x="957" y="932"/>
      <point x="1007" y="909"/>
      <point x="1042" y="852" type="curve"/>
      <point x="931" y="344" type="line"/>
      <point x="881" y="190"/>
      <point x="756" y="30"/>
      <point x="608" y="34" type="curve" smooth="yes"/>
      <point x="443" y="39"/>
      <point x="484" y="315"/>
    </contour>
  </outline>
</glyph>
<glyph name="A" format="1">
  <advance width="1037"/>
  <unicode hex="0041"/>
  <outline>
    <contour>
      <point x="666" y="1612" type="move" name="top"/>
    </contour>
    <contour>
      <point x="453" y="0" type="move" name="bottom"/>
    </contour>
    <contour>
      <point x="902" y="0" type="move" name="right"/>
    </contour>
    <contour>
      <point x="373" y="1454" type="move" name="tonos"/>
    </contour>
    <contour>
      <point x="902" y="0" type="move" name="ogonek"/>
    </contour>
    <contour>
      <point x="1162" y="1600" type="move" name="top_dd"/>
    </contour>
    <contour>
      <point x="870" y="-407" type="move" name="bottom_dd"/>
    </contour>
    <contour>
      <point x="1163" y="1612" type="move" name="top0315"/>
    </contour>
    <contour>
      <point x="644" y="1410" type="line"/>
      <point x="658" y="1456" type="line"/>
      <point x="614" y="1456" type="line"/>
      <point x="-40" y="0" type="line"/>
      <point x="10" y="0" type="line"/>
      <point x="227" y="481" type="line"/>
      <point x="227" y="484" type="line"/>
    </contour>
    <contour>
      <point x="855" y="0" type="line"/>
      <point x="903" y="0" type="line"/>
      <point x="668" y="1456" type="line"/>
      <point x="627" y="1456" type="line"/>
      <point x="632" y="1411" type="line"/>
    </contour>
    <contour>
      <point x="799" y="489" type="line"/>
      <point x="204" y="489" type="line"/>
      <point x="198" y="435" type="line"/>
      <point x="793" y="435" type="line"/>
    </contour>
  </outline>
</glyph>
<glyph name="B" format="1">
  <advance width="1046"/>
  <unicode hex="0042"/>
  <outline>
    <contour>
      <point x="623" y="1612" type="move" name="top"/>
    </contour>
    <contour>
      <point x="391" y="10" type="move" name="bottom"/>
    </contour>
    <contour>
      <point x="1171" y="1600" type="move" name="top_dd"/>
    </contour>
    <contour>
      <point x="880" y="-407" type="move" name="bottom_dd"/>
    </contour>
    <contour>
      <point x="1173" y="1612" type="move" name="top0315"/>
    </contour>
    <contour>
      <point x="600" y="719" type="line"/>
      <point x="674" y="746" type="line"/>
      <point x="822" y="783"/>
      <point x="928" y="891"/>
      <point x="954" y="1083" type="curve" smooth="yes"/>
      <point x="991" y="1351"/>
      <point x="814" y="1454"/>
      <point x="616" y="1456" type="curve" smooth="yes"/>
      <point x="307" y="1456" type="line"/>
      <point x="96" y="0" type="line"/>
      <point x="141" y="0" type="line"/>
      <point x="345" y="1402" type="line"/>
      <point x="616" y="1402" type="line" smooth="yes"/>
      <point x="786" y="1400"/>
      <point x="946" y="1322"/>
      <point x="909" y="1087" type="curve" smooth="yes"/>
      <point x="873" y="860"/>
      <point x="712" y="776"/>
      <point x="533" y="773" type="curve" smooth="yes"/>
      <point x="232" y="773" type="line"/>
      <point x="228" y="719" type="line"/>
    </contour>
    <contour>
      <point x="487" y="0" type="line" smooth="yes"/>
      <point x="694" y="3"/>
      <point x="875" y="147"/>
      <point x="909" y="401" type="curve" smooth="yes"/>
      <point x="932" y="577"/>
      <point x="837" y="725"/>
      <point x="692" y="754" type="curve"/>
      <point x="691" y="773" type="line"/>
      <point x="411" y="773" type="line"/>
      <point x="404" y="719" type="line"/>
      <point x="600" y="719" type="line" smooth="yes"/>
      <point x="758" y="716"/>
      <point x="895" y="605"/>
      <point x="863" y="399" type="curve" smooth="yes"/>
      <point x="828" y="176"/>
      <point x="669" y="57"/>
      <point x="487" y="54" type="curve" smooth="yes"/>
      <point x="141" y="53" type="line"/>
      <point x="121" y="0" type="line"/>
    </contour>
  </outline>
</glyph>
<glyph name="C" format="1">
  <advance width="1121"/>
  <unicode hex="0043"/>
  <outline>
    <contour>
      <point x="722" y="1633" type="move" name="top"/>
    </contour>
    <contour>
      <point x="484" y="-10" type="move" name="bottom"/>
    </contour>
    <contour>
      <point x="1246" y="1600" type="move" name="top_dd"/>
    </contour>
    <contour>
      <point x="955" y="-407" type="move" name="bottom_dd"/>
    </contour>
    <contour>
      <point x="1251" y="1633" type="move" name="top0315"/>
    </contour>
    <contour>
      <point x="922" y="445" type="line"/>
      <point x="857" y="194"/>
      <point x="708" y="33"/>
      <point x="480" y="34" type="curve" smooth="yes"/>
      <point x="210" y="36"/>
      <point x="148" y="356"/>
      <point x="185" y="619" type="curve" smooth="yes"/>
      <point x="217" y="839" type="line" smooth="yes"/>
      <point x="261" y="1122"/>
      <point x="423" y="1421"/>
      <point x="691" y="1422" type="curve" smooth="yes"/>
      <point x="907" y="1423"/>
      <point x="1017" y="1261"/>
      <point x="1006" y="1012" type="curve"/>
      <point x="1051" y="1012" type="line"/>
      <point x="1063" y="1292"/>
      <point x="931" y="1477"/>
      <point x="690" y="1476" type="curve" smooth="yes"/>
      <point x="394" y="1475"/>
      <point x="218" y="1152"/>
      <point x="171" y="837" type="curve" smooth="yes"/>
      <point x="140" y="619" type="line" smooth="yes"/>
      <point x="99" y="322"/>
      <point x="184" y="-19"/>
      <point x="481" y="-20" type="curve" smooth="yes"/>
      <point x="731" y="-21"/>
      <point x="903" y="166"/>
      <point x="968" y="445" type="curve"/>
    </contour>
  </outline>
</glyph>
<glyph name="D" format="1">
  <advance width="1132"/>
  <unicode hex="0044"/>
  <outline>
    <contour>
      <point x="648" y="1612" type="move" name="top"/>
    </contour>
    <contour>
      <point x="333" y="738" type="move" name="cross"/>
    </contour>
    <contour>
      <point x="415" y="10" type="move" name="bottom"/>
    </contour>
    <contour>
      <point x="1257" y="1600" type="move" name="top_dd"/>
    </contour>
    <contour>
      <point x="966" y="-407" type="move" name="bottom_dd"/>
    </contour>
    <contour>
      <point x="1259" y="1612" type="move" name="top0315"/>
    </contour>
    <contour>
      <point x="428" y="0" type="line" smooth="yes"/>
      <point x="714" y="3"/>
      <point x="938" y="223"/>
      <point x="988" y="559" type="curve" smooth="yes"/>
      <point x="1037" y="897" type="line" smooth="yes"/>
      <point x="1081" y="1228"/>
      <point x="909" y="1452"/>
      <point x="632" y="1456" type="curve" smooth="yes"/>
      <point x="341" y="1456" type="line"/>
      <point x="334" y="1402" type="line"/>
      <point x="632" y="1402" type="line" smooth="yes"/>
      <point x="882" y="1398"/>
      <point x="1034" y="1197"/>
      <point x="992" y="900" type="curve" smooth="yes"/>
      <point x="942" y="559" type="line" smooth="yes"/>
      <point x="894" y="256"/>
      <point x="685" y="58"/>
      <point x="428" y="54" type="curve" smooth="yes"/>
      <point x="143" y="54" type="line"/>
      <point x="135" y="0" type="line"/>
    </contour>
    <contour>
      <point x="352" y="1456" type="line"/>
      <point x="307" y="1456" type="line"/>
      <point x="96" y="0" type="line"/>
      <point x="141" y="0" type="line"/>
    </contour>
  </outline>
</glyph>
<glyph name="E" format="1">
  <advance width="990"/>
  <unicode hex="0045"/>
  <outline>
    <contour>
      <point x="671" y="1612" type="move" name="top"/>
    </contour>
    <contour>
      <point x="439" y="10" type="move" name="bottom"/>
    </contour>
    <contour>
      <point x="87" y="1457" type="move" name="tonos"/>
    </contour>
    <contour>
      <point x="770" y="0" type="move" name="ogonek"/>
    </contour>
    <contour>
      <point x="1115" y="1600" type="move" name="top_dd"/>
    </contour>
    <contour>
      <point x="824" y="-407" type="move" name="bottom_dd"/>
    </contour>
    <contour>
      <point x="1117" y="1612" type="move" name="top0315"/>
    </contour>
    <contour>
      <point x="825" y="54" type="line"/>
      <point x="118" y="54" type="line"/>
      <point x="112" y="0" type="line"/>
      <point x="819" y="0" type="line"/>
    </contour>
    <contour>
      <point x="352" y="1456" type="line"/>
      <point x="307" y="1456" type="line"/>
      <point x="96" y="0" type="line"/>
      <point x="141" y="0" type="line"/>
    </contour>
    <contour>
      <point x="847" y="776" type="line"/>
      <point x="223" y="776" type="line"/>
      <point x="217" y="722" type="line"/>
      <point x="841" y="722" type="line"/>
    </contour>
    <contour>
      <point x="1029" y="1456" type="line"/>
      <point x="322" y="1456" type="line"/>
      <point x="316" y="1402" type="line"/>
      <point x="1023" y="1402" type="line"/>
    </contour>
  </outline>
</glyph>
<glyph name="F" format="1">
  <advance width="995"/>
  <unicode hex="0046"/>
  <outline>
    <contour>
      <point x="252" y="337" type="move" name="cross"/>
    </contour>
    <contour>
      <point x="671" y="1612" type="move" name="top"/>
    </contour>
    <contour>
      <point x="367" y="10" type="move" name="bottom"/>
    </contour>
    <contour>
      <point x="1120" y="1600" type="move" name="top_dd"/>
    </contour>
    <contour>
      <point x="829" y="-407" type="move" name="bottom_dd"/>
    </contour>
    <contour>
      <point x="1122" y="1612" type="move" name="top0315"/>
    </contour>
    <contour>
      <point x="352" y="1456" type="line"/>
      <point x="307" y="1456" type="line"/>
      <point x="96" y="0" type="line"/>
      <point x="141" y="0" type="line"/>
    </contour>
    <contour>
      <point x="860" y="772" type="line"/>
      <point x="219" y="772" type="line"/>
      <point x="213" y="716" type="line"/>
      <point x="853" y="716" type="line"/>
    </contour>
    <contour>
      <point x="1042" y="1456" type="line"/>
      <point x="319" y="1456" type="line"/>
      <point x="312" y="1402" type="line"/>
      <point x="1036" y="1402" type="line"/>
    </contour>
  </outline>
</glyph>
<glyph name="G" format="1">
  <advance width="1186"/>
  <unicode hex="0047"/>
  <outline>
    <contour>
      <point x="743" y="1633" type="move" name="top"/>
    </contour>
    <contour>
      <point x="527" y="0" type="move" name="bottom"/>
    </contour>
    <contour>
      <point x="1311" y="1600" type="move" name="top_dd"/>
    </contour>
    <contour>
      <point x="1019" y="-407" type="move" name="bottom_dd"/>
    </contour>
    <contour>
      <point x="1316" y="1633" type="move" name="top0315"/>
    </contour>
    <contour>
      <point x="1029" y="660" type="line"/>
      <point x="620" y="660" type="line"/>
      <point x="614" y="605" type="line"/>
      <point x="975" y="605" type="line"/>
      <point x="912" y="181" type="line"/>
      <point x="815" y="71"/>
      <point x="657" y="34"/>
      <point x="528" y="34" type="curve" smooth="yes"/>
      <point x="252" y="35"/>
      <point x="165" y="340"/>
      <point x="205" y="620" type="curve" smooth="yes"/>
      <point x="240" y="860" type="line" smooth="yes"/>
      <point x="285" y="1147"/>
      <point x="460" y="1422"/>
      <point x="724" y="1422" type="curve" smooth="yes"/>
      <point x="917" y="1422"/>
      <point x="1042" y="1293"/>
      <point x="1041" y="1062" type="curve"/>
      <point x="1086" y="1062" type="line"/>
      <point x="1091" y="1323"/>
      <point x="938" y="1476"/>
      <point x="724" y="1476" type="curve" smooth="yes"/>
      <point x="433" y="1475"/>
      <point x="241" y="1174"/>
      <point x="194" y="858" type="curve" smooth="yes"/>
      <point x="159" y="620" type="line" smooth="yes"/>
      <point x="117" y="308"/>
      <point x="229" y="-19"/>
      <point x="528" y="-20" type="curve" smooth="yes"/>
      <point x="671" y="-20"/>
      <point x="857" y="21"/>
      <point x="957" y="156" type="curve"/>
    </contour>
  </outline>
</glyph>
<glyph name="H" format="1">
  <advance width="1212"/>
  <unicode hex="0048"/>
  <outline>
    <contour>
      <point x="750" y="1612" type="move" name="top"/>
    </contour>
    <contour>
      <point x="942" y="0" type="move" name="right"/>
    </contour>
    <contour>
      <point x="97" y="1457" type="move" name="tonos"/>
    </contour>
    <contour>
      <point x="518" y="10" type="move" name="bottom"/>
    </contour>
    <contour>
      <point x="1337" y="1600" type="move" name="top_dd"/>
    </contour>
    <contour>
      <point x="1046" y="-407" type="move" name="bottom_dd"/>
    </contour>
    <contour>
      <point x="1339" y="1612" type="move" name="top0315"/>
    </contour>
    <contour>
      <point x="1029" y="776" type="line"/>
      <point x="229" y="776" type="line"/>
      <point x="223" y="722" type="line"/>
      <point x="1023" y="722" type="line"/>
    </contour>
    <contour>
      <point x="352" y="1456" type="line"/>
      <point x="307" y="1456" type="line"/>
      <point x="96" y="0" type="line"/>
      <point x="141" y="0" type="line"/>
    </contour>
    <contour>
      <point x="1153" y="1456" type="line"/>
      <point x="1108" y="1456" type="line"/>
      <point x="898" y="0" type="line"/>
      <point x="943" y="0" type="line"/>
    </contour>
  </outline>
</glyph>
<glyph name="I" format="1">
  <advance width="475"/>
  <unicode hex="0049"/>
  <outline>
    <contour>
      <point x="385" y="1612" type="move" name="top"/>
    </contour>
    <contour>
      <point x="151" y="0" type="move" name="bottom"/>
    </contour>
    <contour>
      <point x="117" y="1451" type="move" name="tonos"/>
    </contour>
    <contour>
      <point x="172" y="0" type="move" name="right"/>
    </contour>
    <contour>
      <point x="168" y="0" type="move" name="ogonek"/>
    </contour>
    <contour>
      <point x="600" y="1600" type="move" name="top_dd"/>
    </contour>
    <contour>
      <point x="309" y="-407" type="move" name="bottom_dd"/>
    </contour>
    <contour>
      <point x="602" y="1612" type="move" name="top0315"/>
    </contour>
    <contour>
      <point x="384" y="1456" type="line"/>
      <point x="339" y="1456" type="line"/>
      <point x="129" y="0" type="line"/>
      <point x="174" y="0" type="line"/>
    </contour>
  </outline>
</glyph>
<glyph name="J" format="1">
  <advance width="957"/>
  <unicode hex="004A"/>
  <outline>
    <contour>
      <point x="897" y="1582" type="move" name="top"/>
    </contour>
    <contour>
      <point x="349" y="-10" type="move" name="bottom"/>
    </contour>
    <contour>
      <point x="1082" y="1600" type="move" name="top_dd"/>
    </contour>
    <contour>
      <point x="790" y="-407" type="move" name="bottom_dd"/>
    </contour>
    <contour>
      <point x="1079" y="1582" type="move" name="top0315"/>
    </contour>
    <contour>
      <point x="710" y="442" type="line" smooth="yes"/>
      <point x="676" y="227"/>
      <point x="545" y="35"/>
      <point x="349" y="34" type="curve" smooth="yes"/>
      <point x="156" y="34"/>
      <point x="80" y="187"/>
      <point x="109" y="401" type="curve"/>
      <point x="64" y="401" type="line"/>
      <point x="34" y="155"/>
      <point x="131" y="-21"/>
      <point x="350" y="-20" type="curve" smooth="yes"/>
      <point x="574" y="-19"/>
      <point x="719" y="195"/>
      <point x="756" y="442" type="curve" smooth="yes"/>
      <point x="903" y="1456" type="line"/>
      <point x="857" y="1456" type="line"/>
    </contour>
  </outline>
</glyph>
<glyph name="K" format="1">
  <advance width="1099"/>
  <unicode hex="004B"/>
  <outline>
    <contour>
      <point x="457" y="110" type="move" name="bottom"/>
    </contour>
    <contour>
      <point x="890" y="-30" type="move" name="right"/>
    </contour>
    <contour>
      <point x="334" y="1229" type="move" name="cross"/>
    </contour>
    <contour>
      <point x="645" y="1524" type="move" name="top"/>
    </contour>
    <contour>
      <point x="1224" y="1600" type="move" name="top_dd"/>
    </contour>
    <contour>
      <point x="933" y="-407" type="move" name="bottom_dd"/>
    </contour>
    <contour>
      <point x="1213" y="1524" type="move" name="top0315"/>
    </contour>
    <contour>
      <point x="352" y="1456" type="line"/>
      <point x="307" y="1456" type="line"/>
      <point x="96" y="0" type="line"/>
      <point x="141" y="0" type="line"/>
    </contour>
    <contour>
      <point x="1107" y="1455" type="line"/>
      <point x="1036" y="1456" type="line"/>
      <point x="455" y="848" type="line"/>
      <point x="215" y="601" type="line"/>
      <point x="200" y="532" type="line"/>
      <point x="480" y="800" type="line"/>
    </contour>
    <contour>
      <point x="877" y="0" type="line"/>
      <point x="933" y="0" type="line"/>
      <point x="461" y="832" type="line"/>
      <point x="429" y="787" type="line"/>
    </contour>
  </outline>
</glyph>
<glyph name="L" format="1">
  <advance width="901"/>
  <unicode hex="004C"/>
  <outline>
    <contour>
      <point x="347" y="1549" type="move" name="top"/>
    </contour>
    <contour>
      <point x="444" y="10" type="move" name="bottom"/>
    </contour>
    <contour>
      <point x="607" y="1455" type="move" name="caron"/>
    </contour>
    <contour>
      <point x="532" y="755" type="move" name="dot"/>
    </contour>
    <contour>
      <point x="1026" y="1600" type="move" name="top_dd"/>
    </contour>
    <contour>
      <point x="735" y="-407" type="move" name="bottom_dd"/>
    </contour>
    <contour>
      <point x="1019" y="1549" type="move" name="top0315"/>
    </contour>
    <contour>
      <point x="757" y="54" type="line"/>
      <point x="119" y="54" type="line"/>
      <point x="112" y="0" type="line"/>
      <point x="751" y="0" type="line"/>
    </contour>
    <contour>
      <point x="353" y="1456" type="line"/>
      <point x="307" y="1456" type="line"/>
      <point x="96" y="0" type="line"/>
      <point x="142" y="0" type="line"/>
    </contour>
  </outline>
</glyph>
<glyph name="M" format="1">
  <advance width="1471"/>
  <unicode hex="004D"/>
  <outline>
    <contour>
      <point x="892" y="1612" type="move" name="top"/>
    </contour>
    <contour>
      <point x="1201" y="0" type="move" name="right"/>
    </contour>
    <contour>
      <point x="651" y="10" type="move" name="bottom"/>
    </contour>
    <contour>
      <point x="1596" y="1600" type="move" name="top_dd"/>
    </contour>
    <contour>
      <point x="1305" y="-407" type="move" name="bottom_dd"/>
    </contour>
    <contour>
      <point x="1598" y="1612" type="move" name="top0315"/>
    </contour>
    <contour>
      <point x="320" y="1457" type="line"/>
      <point x="631" y="0" type="line"/>
      <point x="667" y="0" type="line"/>
      <point x="1398" y="1455" type="line"/>
      <point x="1346" y="1455" type="line"/>
      <point x="656" y="81" type="line"/>
      <point x="369" y="1457" type="line"/>
    </contour>
    <contour>
      <point x="307" y="1456" type="line"/>
      <point x="96" y="0" type="line"/>
      <point x="141" y="0" type="line"/>
      <point x="243" y="703" type="line"/>
      <point x="352" y="1456" type="line"/>
    </contour>
    <contour>
      <point x="1367" y="1456" type="line"/>
      <point x="1258" y="703" type="line"/>
      <point x="1157" y="0" type="line"/>
      <point x="1202" y="0" type="line"/>
      <point x="1413" y="1456" type="line"/>
    </contour>
  </outline>
</glyph>
<glyph name="N" format="1">
  <advance width="1221"/>
  <unicode hex="004E"/>
  <outline>
    <contour>
      <point x="758" y="1612" type="move" name="top"/>
    </contour>
    <contour>
      <point x="526" y="10" type="move" name="bottom"/>
    </contour>
    <contour>
      <point x="951" y="0" type="move" name="right"/>
    </contour>
    <contour>
      <point x="1346" y="1600" type="move" name="top_dd"/>
    </contour>
    <contour>
      <point x="1054" y="-407" type="move" name="bottom_dd"/>
    </contour>
    <contour>
      <point x="1348" y="1612" type="move" name="top0315"/>
    </contour>
    <contour>
      <point x="1162" y="1456" type="line"/>
      <point x="1117" y="1456" type="line"/>
      <point x="919" y="93" type="line"/>
      <point x="350" y="1456" type="line"/>
      <point x="306" y="1456" type="line"/>
      <point x="96" y="0" type="line"/>
      <point x="142" y="0" type="line"/>
      <point x="341" y="1366" type="line"/>
      <point x="909" y="0" type="line"/>
      <point x="953" y="0" type="line"/>
    </contour>
  </outline>
</glyph>
<glyph name="O" format="1">
  <advance width="1151"/>
  <unicode hex="004F"/>
  <outline>
    <contour>
      <point x="721" y="1633" type="move" name="top"/>
    </contour>
    <contour>
      <point x="489" y="-2" type="move" name="bottom"/>
    </contour>
    <contour>
      <point x="250" y="1454" type="move" name="tonos"/>
    </contour>
    <contour>
      <point x="1277" y="1600" type="move" name="top_dd"/>
    </contour>
    <contour>
      <point x="985" y="-407" type="move" name="bottom_dd"/>
    </contour>
    <contour>
      <point x="1281" y="1633" type="move" name="top0315"/>
    </contour>
    <contour>
      <point x="1058" y="837" type="line" smooth="yes"/>
      <point x="1101" y="1146"/>
      <point x="999" y="1476"/>
      <point x="698" y="1476" type="curve" smooth="yes"/>
      <point x="397" y="1476"/>
      <point x="210" y="1161"/>
      <point x="162" y="837" type="curve" smooth="yes"/>
      <point x="131" y="619" type="line" smooth="yes"/>
      <point x="89" y="310"/>
      <point x="190" y="-20"/>
      <point x="491" y="-20" type="curve" smooth="yes"/>
      <point x="792" y="-20"/>
      <point x="979" y="295"/>
      <point x="1027" y="619" type="curve" smooth="yes"/>
    </contour>
    <contour>
      <point x="981" y="619" type="line" smooth="yes"/>
      <point x="935" y="323"/>
      <point x="767" y="34"/>
      <point x="490" y="34" type="curve" smooth="yes"/>
      <point x="213" y="34"/>
      <point x="138" y="341"/>
      <point x="177" y="619" type="curve" smooth="yes"/>
      <point x="209" y="839" type="line" smooth="yes"/>
      <point x="255" y="1134"/>
      <point x="424" y="1422"/>
      <point x="699" y="1422" type="curve" smooth="yes"/>
      <point x="976" y="1422"/>
      <point x="1053" y="1117"/>
      <point x="1013" y="839" type="curve" smooth="yes"/>
    </contour>
  </outline>
</glyph>
<glyph name="P" format="1">
  <advance width="1042"/>
  <unicode hex="0050"/>
  <outline>
    <contour>
      <point x="137" y="1454" type="move" name="tonos"/>
    </contour>
    <contour>
      <point x="623" y="1612" type="move" name="top"/>
    </contour>
    <contour>
      <point x="366" y="10" type="move" name="bottom"/>
    </contour>
    <contour>
      <point x="1167" y="1600" type="move" name="top_dd"/>
    </contour>
    <contour>
      <point x="876" y="-407" type="move" name="bottom_dd"/>
    </contour>
    <contour>
      <point x="1169" y="1612" type="move" name="top0315"/>
    </contour>
    <contour>
      <point x="560" y="615" type="line" smooth="yes"/>
      <point x="783" y="618"/>
      <point x="963" y="760"/>
      <point x="1000" y="1031" type="curve" smooth="yes"/>
      <point x="1037" y="1299"/>
      <point x="892" y="1453"/>
      <point x="674" y="1456" type="curve" smooth="yes"/>
      <point x="307" y="1456" type="line"/>
      <point x="96" y="0" type="line"/>
      <point x="141" y="0" type="line"/>
      <point x="345" y="1402" type="line"/>
      <point x="675" y="1402" type="line" smooth="yes"/>
      <point x="866" y="1398"/>
      <point x="991" y="1264"/>
      <point x="955" y="1029" type="curve" smooth="yes"/>
      <point x="918" y="794"/>
      <point x="752" y="672"/>
      <point x="560" y="669" type="curve" smooth="yes"/>
      <point x="202" y="669" type="line"/>
      <point x="196" y="615" type="line"/>
    </contour>
  </outline>
</glyph>
<glyph name="Q" format="1">
  <advance width="1151"/>
  <unicode hex="0051"/>
  <outline>
    <contour>
      <point x="735" y="1600" type="move" name="top"/>
    </contour>
    <contour>
      <point x="500" y="-10" type="move" name="bottom"/>
    </contour>
    <contour>
      <point x="1277" y="1600" type="move" name="top_dd"/>
    </contour>
    <contour>
      <point x="985" y="-407" type="move" name="bottom_dd"/>
    </contour>
    <contour>
      <point x="1277" y="1600" type="move" name="top0315"/>
    </contour>
    <contour>
      <point x="667" y="59" type="line"/>
      <point x="630" y="23" type="line"/>
      <point x="836" y="-263" type="line"/>
      <point x="871" y="-230" type="line"/>
    </contour>
    <contour>
      <point x="1062" y="917" type="line" smooth="yes"/>
      <point x="1104" y="1228"/>
      <point x="978" y="1476"/>
      <point x="698" y="1476" type="curve" smooth="yes"/>
      <point x="416" y="1476"/>
      <point x="230" y="1236"/>
      <point x="182" y="917" type="curve" smooth="yes"/>
      <point x="127" y="539" type="line" smooth="yes"/>
      <point x="85" y="228"/>
      <point x="211" y="-21"/>
      <point x="491" y="-21" type="curve" smooth="yes"/>
      <point x="774" y="-21"/>
      <point x="960" y="220"/>
      <point x="1007" y="539" type="curve" smooth="yes"/>
    </contour>
    <contour>
      <point x="961" y="539" type="line" smooth="yes"/>
      <point x="916" y="248"/>
      <point x="748" y="33"/>
      <point x="490" y="33" type="curve" smooth="yes"/>
      <point x="233" y="33"/>
      <point x="134" y="259"/>
      <point x="173" y="539" type="curve" smooth="yes"/>
      <point x="229" y="919" type="line" smooth="yes"/>
      <point x="274" y="1208"/>
      <point x="442" y="1422"/>
      <point x="699" y="1422" type="curve" smooth="yes"/>
      <point x="955" y="1422"/>
      <point x="1057" y="1200"/>
      <point x="1017" y="919" type="curve" smooth="yes"/>
    </contour>
  </outline>
</glyph>
<glyph name="R" format="1">
  <advance width="1132"/>
  <unicode hex="0052"/>
  <outline>
    <contour>
      <point x="661" y="1612" type="move" name="top"/>
    </contour>
    <contour>
      <point x="428" y="10" type="move" name="bottom"/>
    </contour>
    <contour>
      <point x="1257" y="1600" type="move" name="top_dd"/>
    </contour>
    <contour>
      <point x="966" y="-407" type="move" name="bottom_dd"/>
    </contour>
    <contour>
      <point x="1259" y="1612" type="move" name="top0315"/>
    </contour>
    <contour>
      <point x="303" y="1456" type="line"/>
      <point x="92" y="0" type="line"/>
      <point x="137" y="0" type="line"/>
      <point x="341" y="1402" type="line"/>
      <point x="678" y="1402" type="line" smooth="yes"/>
      <point x="863" y="1399"/>
      <point x="1002" y="1270"/>
      <point x="965" y="1036" type="curve" smooth="yes"/>
      <point x="933" y="827"/>
      <point x="781" y="681"/>
      <point x="604" y="677" type="curve" smooth="yes"/>
      <point x="198" y="677" type="line"/>
      <point x="193" y="623" type="line"/>
      <point x="651" y="623" type="line"/>
      <point x="678" y="636" type="line"/>
      <point x="836" y="669"/>
      <point x="981" y="820"/>
      <point x="1011" y="1036" type="curve" smooth="yes"/>
      <point x="1048" y="1301"/>
      <point x="888" y="1453"/>
      <point x="678" y="1456" type="curve" smooth="yes"/>
    </contour>
    <contour>
      <point x="864" y="0" type="line"/>
      <point x="910" y="0" type="line"/>
      <point x="912" y="14" type="line"/>
      <point x="683" y="645" type="line"/>
      <point x="632" y="643" type="line"/>
    </contour>
  </outline>
</glyph>
<glyph name="S" format="1">
  <advance width="1027"/>
  <unicode hex="0053"/>
  <outline>
    <contour>
      <point x="685" y="1633" type="move" name="top"/>
    </contour>
    <contour>
      <point x="446" y="-10" type="move" name="bottom"/>
    </contour>
    <contour>
      <point x="1152" y="1600" type="move" name="top_dd"/>
    </contour>
    <contour>
      <point x="861" y="-407" type="move" name="bottom_dd"/>
    </contour>
    <contour>
      <point x="1157" y="1633" type="move" name="top0315"/>
    </contour>
    <contour>
      <point x="856" y="349" type="curve" smooth="yes"/>
      <point x="820" y="130"/>
      <point x="618" y="35"/>
      <point x="449" y="34" type="curve" smooth="yes"/>
      <point x="253" y="33"/>
      <point x="83" y="154"/>
      <point x="115" y="411" type="curve"/>
      <point x="70" y="411" type="line"/>
      <point x="37" y="120"/>
      <point x="226" y="-21"/>
      <point x="450" y="-20" type="curve" smooth="yes"/>
      <point x="646" y="-19"/>
      <point x="868" y="96"/>
      <point x="903" y="351" type="curve" smooth="yes"/>
      <point x="939" y="611"/>
      <point x="735" y="709"/>
      <point x="561" y="770" type="curve" smooth="yes"/>
      <point x="417" y="820"/>
      <point x="220" y="900"/>
      <point x="257" y="1122" type="curve" smooth="yes"/>
      <point x="293" y="1332"/>
      <point x="494" y="1422"/>
      <point x="654" y="1422" type="curve" smooth="yes"/>
      <point x="841" y="1422"/>
      <point x="975" y="1274"/>
      <point x="946" y="1046" type="curve"/>
      <point x="991" y="1046" type="line"/>
      <point x="1021" y="1306"/>
      <point x="867" y="1475"/>
      <point x="654" y="1476" type="curve" smooth="yes"/>
      <point x="465" y="1476"/>
      <point x="245" y="1366"/>
      <point x="212" y="1120" type="curve" smooth="yes"/>
      <point x="177" y="865"/>
      <point x="381" y="779"/>
      <point x="549" y="718" type="curve" smooth="yes"/>
      <point x="701" y="663"/>
      <point x="895" y="581"/>
    </contour>
  </outline>
</glyph>
<glyph name="T" format="1">
  <advance width="1037"/>
  <unicode hex="0054"/>
  <outline>
    <contour>
      <point x="662" y="1604" type="move" name="top"/>
    </contour>
    <contour>
      <point x="432" y="0" type="move" name="bottom"/>
    </contour>
    <contour>
      <point x="454" y="0" type="move" name="right"/>
    </contour>
    <contour>
      <point x="548" y="872" type="move" name="cross"/>
    </contour>
    <contour>
      <point x="1162" y="1600" type="move" name="top_dd"/>
    </contour>
    <contour>
      <point x="871" y="-407" type="move" name="bottom_dd"/>
    </contour>
    <contour>
      <point x="1163" y="1604" type="move" name="top0315"/>
    </contour>
    <contour>
      <point x="665" y="1456" type="line"/>
      <point x="620" y="1456" type="line"/>
      <point x="410" y="0" type="line"/>
      <point x="455" y="0" type="line"/>
    </contour>
    <contour>
      <point x="1097" y="1456" type="line"/>
      <point x="188" y="1456" type="line"/>
      <point x="182" y="1402" type="line"/>
      <point x="1091" y="1402" type="line"/>
    </contour>
  </outline>
</glyph>
<glyph name="U" format="1">
  <advance width="1152"/>
  <unicode hex="0055"/>
  <outline>
    <contour>
      <point x="735" y="1612" type="move" name="top"/>
    </contour>
    <contour>
      <point x="489" y="0" type="move" name="bottom"/>
    </contour>
    <contour>
      <point x="584" y="0" type="move" name="right"/>
    </contour>
    <contour>
      <point x="700" y="33" type="move" name="ogonek"/>
    </contour>
    <contour>
      <point x="1277" y="1600" type="move" name="top_dd"/>
    </contour>
    <contour>
      <point x="986" y="-407" type="move" name="bottom_dd"/>
    </contour>
    <contour>
      <point x="1279" y="1612" type="move" name="top0315"/>
    </contour>
    <contour>
      <point x="1061" y="1456" type="line"/>
      <point x="918" y="469" type="line" smooth="yes"/>
      <point x="877" y="217"/>
      <point x="709" y="34"/>
      <point x="490" y="34" type="curve" smooth="yes"/>
      <point x="274" y="34"/>
      <point x="162" y="224"/>
      <point x="196" y="469" type="curve" smooth="yes"/>
      <point x="340" y="1456" type="line"/>
      <point x="294" y="1456" type="line"/>
      <point x="151" y="469" type="line"/>
      <point x="114" y="186"/>
      <point x="246" y="-20"/>
      <point x="491" y="-20" type="curve" smooth="yes"/>
      <point x="741" y="-20"/>
      <point x="920" y="182"/>
      <point x="964" y="469" type="curve" smooth="yes"/>
      <point x="1106" y="1456" type="line"/>
    </contour>
  </outline>
</glyph>
<glyph name="V" format="1">
  <advance width="1037"/>
  <unicode hex="0056"/>
  <outline>
    <contour>
      <point x="650" y="1612" type="move" name="top"/>
    </contour>
    <contour>
      <point x="443" y="10" type="move" name="bottom"/>
    </contour>
    <contour>
      <point x="1147" y="1600" type="move" name="top_dd"/>
    </contour>
    <contour>
      <point x="885" y="-407" type="move" name="bottom_dd"/>
    </contour>
    <contour>
      <point x="1149" y="1612" type="move" name="top0315"/>
    </contour>
    <contour>
      <point x="481" y="142" type="line"/>
      <point x="425" y="0" type="line"/>
      <point x="469" y="0" type="line"/>
      <point x="1102" y="1455" type="line"/>
      <point x="1051" y="1455" type="line"/>
    </contour>
    <contour>
      <point x="208" y="1457" type="line"/>
      <point x="160" y="1457" type="line"/>
      <point x="414" y="0" type="line"/>
      <point x="456" y="0" type="line"/>
      <point x="436" y="138" type="line"/>
    </contour>
  </outline>
</glyph>
<glyph name="W" format="1">
  <advance width="1551"/>
  <unicode hex="0057"/>
  <outline>
    <contour>
      <point x="907" y="1612" type="move" name="top"/>
    </contour>
    <contour>
      <point x="697" y="10" type="move" name="bottom"/>
    </contour>
    <contour>
      <point x="1662" y="1600" type="move" name="top_dd"/>
    </contour>
    <contour>
      <point x="1400" y="-407" type="move" name="bottom_dd"/>
    </contour>
    <contour>
      <point x="1664" y="1612" type="move" name="top0315"/>
    </contour>
    <contour>
      <point x="435" y="330" type="line"/>
      <point x="319" y="0" type="line"/>
      <point x="363" y="0" type="line"/>
      <point x="817" y="1210" type="line"/>
      <point x="913" y="1455" type="line"/>
      <point x="863" y="1455" type="line"/>
    </contour>
    <contour>
      <point x="230" y="1456" type="line"/>
      <point x="181" y="1456" type="line"/>
      <point x="312" y="0" type="line"/>
      <point x="361" y="0" type="line"/>
      <point x="330" y="326" type="line"/>
    </contour>
    <contour>
      <point x="1151" y="330" type="line"/>
      <point x="1034" y="0" type="line"/>
      <point x="1085" y="0" type="line"/>
      <point x="1594" y="1455" type="line"/>
      <point x="1544" y="1455" type="line"/>
    </contour>
    <contour>
      <point x="913" y="1456" type="line"/>
      <point x="865" y="1457" type="line"/>
      <point x="898" y="1218" type="line"/>
      <point x="1034" y="0" type="line"/>
      <point x="1076" y="0" type="line"/>
      <point x="1045" y="326" type="line"/>
    </contour>
  </outline>
</glyph>
<glyph name="X" format="1">
  <advance width="1037"/>
  <unicode hex="0058"/>
  <outline>
    <contour>
      <point x="476" y="10" type="move" name="bottom"/>
    </contour>
    <contour>
      <point x="854" y="0" type="move" name="right"/>
    </contour>
    <contour>
      <point x="538" y="748" type="move" name="cross"/>
    </contour>
    <contour>
      <point x="693" y="1612" type="move" name="top"/>
    </contour>
    <contour>
      <point x="1147" y="1600" type="move" name="top_dd"/>
    </contour>
    <contour>
      <point x="885" y="-407" type="move" name="bottom_dd"/>
    </contour>
    <contour>
      <point x="1149" y="1612" type="move" name="top0315"/>
    </contour>
    <contour>
      <point x="245" y="1457" type="line"/>
      <point x="191" y="1457" type="line"/>
      <point x="509" y="747" type="line"/>
      <point x="-15" y="0" type="line"/>
      <point x="41" y="0" type="line"/>
      <point x="533" y="700" type="line"/>
      <point x="841" y="0" type="line"/>
      <point x="894" y="0" type="line"/>
      <point x="564" y="739" type="line"/>
      <point x="1069" y="1455" type="line"/>
      <point x="1011" y="1455" type="line"/>
      <point x="540" y="786" type="line"/>
    </contour>
  </outline>
</glyph>
<glyph name="Y" format="1">
  <advance width="1037"/>
  <unicode hex="0059"/>
  <outline>
    <contour>
      <point x="661" y="1601" type="move" name="top"/>
    </contour>
    <contour>
      <point x="433" y="10" type="move" name="bottom"/>
    </contour>
    <contour>
      <point x="514" y="583" type="move" name="cross"/>
    </contour>
    <contour>
      <point x="85" y="1454" type="move" name="tonos"/>
    </contour>
    <contour>
      <point x="1162" y="1600" type="move" name="top_dd"/>
    </contour>
    <contour>
      <point x="870" y="-407" type="move" name="bottom_dd"/>
    </contour>
    <contour>
      <point x="1162" y="1601" type="move" name="top0315"/>
    </contour>
    <contour>
      <point x="229" y="1457" type="line"/>
      <point x="171" y="1457" type="line"/>
      <point x="488" y="558" type="line"/>
      <point x="407" y="0" type="line"/>
      <point x="452" y="0" type="line"/>
      <point x="532" y="549" type="line"/>
      <point x="1111" y="1454" type="line"/>
      <point x="1054" y="1455" type="line"/>
      <point x="515" y="604" type="line"/>
    </contour>
  </outline>
</glyph>
<glyph name="bracketleft" format="1">
  <advance width="398"/>
  <unicode hex="005B"/>
  <outline>
    <contour>
      <point x="538" y="1664" type="line"/>
      <point x="307" y="1664" type="line"/>
      <point x="47" y="-312" type="line"/>
      <point x="280" y="-312" type="line"/>
      <point x="286" y="-258" type="line"/>
      <point x="100" y="-258" type="line"/>
      <point x="345" y="1610" type="line"/>
      <point x="532" y="1610" type="line"/>
    </contour>
  </outline>
</glyph>
<glyph name="backslash" format="1">
  <advance width="671"/>
  <unicode hex="005C"/>
  <outline>
    <contour>
      <point x="458" y="-126" type="line"/>
      <point x="505" y="-126" type="line"/>
      <point x="237" y="1457" type="line"/>
      <point x="190" y="1457" type="line"/>
    </contour>
  </outline>
</glyph>
<glyph name="bracketright" format="1">
  <advance width="398"/>
  <unicode hex="005D"/>
  <outline>
    <contour>
      <point x="146" y="1610" type="line"/>
      <point x="331" y="1610" type="line"/>
      <point x="86" y="-258" type="line"/>
      <point x="-100" y="-258" type="line"/>
      <point x="-106" y="-312" type="line"/>
      <point x="125" y="-312" type="line"/>
      <point x="385" y="1664" type="line"/>
      <point x="152" y="1664" type="line"/>
    </contour>
  </outline>
</glyph>
<glyph name="asciicircum" format="1">
  <advance width="732"/>
  <unicode hex="005E"/>
  <outline>
    <contour>
      <point x="491" y="1417" type="line"/>
      <point x="502" y="1455" type="line"/>
      <point x="461" y="1455" type="line"/>
      <point x="113" y="730" type="line"/>
      <point x="163" y="730" type="line"/>
    </contour>
    <contour>
      <point x="594" y="728" type="line"/>
      <point x="644" y="728" type="line"/>
      <point x="504" y="1457" type="line"/>
      <point x="464" y="1457" type="line"/>
      <point x="466" y="1417" type="line"/>
    </contour>
  </outline>
</glyph>
<glyph name="underscore" format="1">
  <advance width="729"/>
  <unicode hex="005F"/>
  <outline>
    <contour>
      <point x="296" y="157" type="move" name="_bottom"/>
    </contour>
    <contour>
      <point x="621" y="0" type="line"/>
      <point x="-69" y="0" type="line"/>
      <point x="-76" y="-54" type="line"/>
      <point x="615" y="-54" type="line"/>
    </contour>
  </outline>
</glyph>
<glyph name="grave" format="1">
  <advance width="521"/>
  <unicode hex="0060"/>
  <outline>
    <contour>
      <point x="457" y="1293" type="move" name="_top"/>
    </contour>
    <contour>
      <point x="496" y="1543" type="move" name="mkmktop_acc"/>
    </contour>
    <contour>
      <point x="352" y="1537" type="line"/>
      <point x="289" y="1537" type="line"/>
      <point x="441" y="1269" type="line"/>
      <point x="497" y="1269" type="line"/>
    </contour>
  </outline>
</glyph>
<glyph name="a" format="1">
  <advance width="921"/>
  <unicode hex="0061"/>
  <outline>
    <contour>
      <point x="591" y="1292" type="move" name="top"/>
    </contour>
    <contour>
      <point x="346" y="0" type="move" name="bottom"/>
    </contour>
    <contour>
      <point x="693" y="0" type="move" name="ogonek"/>
    </contour>
    <contour>
      <point x="687" y="1263" type="move" name="rhalfring"/>
    </contour>
    <contour>
      <point x="1046" y="1600" type="move" name="top_dd"/>
    </contour>
    <contour>
      <point x="755" y="-407" type="move" name="bottom_dd"/>
    </contour>
    <contour>
      <point x="743" y="654" type="move" name="rhotichook"/>
    </contour>
    <contour>
      <point x="1001" y="1292" type="move" name="top0315"/>
    </contour>
    <contour>
      <point x="655" y="203" type="line" smooth="yes"/>
      <point x="646" y="136"/>
      <point x="639" y="68"/>
      <point x="643" y="0" type="curve"/>
      <point x="694" y="0" type="line"/>
      <point x="696" y="9" type="line"/>
      <point x="685" y="78"/>
      <point x="693" y="150"/>
      <point x="703" y="218" type="curve" smooth="yes"/>
      <point x="786" y="790" type="line"/>
      <point x="813" y="1009"/>
      <point x="682" y="1103"/>
      <point x="514" y="1102" type="curve" smooth="yes"/>
      <point x="348" y="1101"/>
      <point x="180" y="991"/>
      <point x="146" y="787" type="curve"/>
      <point x="191" y="785" type="line"/>
      <point x="227" y="960"/>
      <point x="370" y="1047"/>
      <point x="514" y="1048" type="curve" smooth="yes"/>
      <point x="657" y="1048"/>
      <point x="767" y="979"/>
      <point x="741" y="792" type="curve"/>
    </contour>
    <contour>
      <point x="733" y="604" type="line"/>
      <point x="475" y="604" type="line" smooth="yes"/>
      <point x="292" y="602"/>
      <point x="80" y="518"/>
      <point x="47" y="274" type="curve" smooth="yes"/>
      <point x="21" y="84"/>
      <point x="127" y="-21"/>
      <point x="280" y="-21" type="curve" smooth="yes"/>
      <point x="453" y="-21"/>
      <point x="618" y="82"/>
      <point x="700" y="265" type="curve"/>
      <point x="686" y="317" type="line"/>
      <point x="598" y="141"/>
      <point x="454" y="31"/>
      <point x="280" y="32" type="curve" smooth="yes"/>
      <point x="158" y="33"/>
      <point x="68" y="116"/>
      <point x="92" y="270" type="curve" smooth="yes"/>
      <point x="126" y="487"/>
      <point x="317" y="547"/>
      <point x="477" y="549" type="curve" smooth="yes"/>
      <point x="729" y="549" type="line"/>
    </contour>
  </outline>
</glyph>
<glyph name="c" format="1">
  <advance width="887"/>
  <unicode hex="0063"/>
  <outline>
    <contour>
      <point x="556" y="1290" type="move" name="top"/>
    </contour>
    <contour>
      <point x="386" y="-10" type="move" name="bottom"/>
    </contour>
    <contour>
      <point x="556" y="1290" type="move" name="marktop"/>
    </contour>
    <contour>
      <point x="997" y="1600" type="move" name="top_dd"/>
    </contour>
    <contour>
      <point x="735" y="-407" type="move" name="bottom_dd"/>
    </contour>
    <contour>
      <point x="957" y="1290" type="move" name="top0315"/>
    </contour>
    <contour>
      <point x="381" y="34" type="curve" smooth="yes"/>
      <point x="152" y="35"/>
      <point x="105" y="296"/>
      <point x="133" y="520" type="curve" smooth="yes"/>
      <point x="139" y="562" type="line" smooth="yes"/>
      <point x="173" y="800"/>
      <point x="293" y="1048"/>
      <point x="520" y="1048" type="curve" smooth="yes"/>
      <point x="681" y="1048"/>
      <point x="772" y="910"/>
      <point x="759" y="725" type="curve"/>
      <point x="803" y="725" type="line"/>
      <point x="817" y="941"/>
      <point x="707" y="1102"/>
      <point x="520" y="1102" type="curve" smooth="yes"/>
      <point x="268" y="1101"/>
      <point x="129" y="828"/>
      <point x="93" y="562" type="curve" smooth="yes"/>
      <point x="88" y="520" type="line" smooth="yes"/>
      <point x="58" y="266"/>
      <point x="128" y="-20"/>
      <point x="382" y="-20" type="curve" smooth="yes"/>
      <point x="562" y="-20"/>
      <point x="711" y="119"/>
      <point x="751" y="327" type="curve"/>
      <point x="705" y="327" type="line"/>
      <point x="664" y="148"/>
      <point x="539" y="34"/>
    </contour>
  </outline>
</glyph>
<glyph name="e" format="1">
  <advance width="881"/>
  <unicode hex="0065"/>
  <outline>
    <contour>
      <point x="572" y="1291" type="move" name="top"/>
    </contour>
    <contour>
      <point x="402" y="4" type="move" name="bottom"/>
    </contour>
    <contour>
      <point x="627" y="58" type="move" name="ogonek"/>
    </contour>
    <contour>
      <point x="992" y="1600" type="move" name="top_dd"/>
    </contour>
    <contour>
      <point x="729" y="-407" type="move" name="bottom_dd"/>
    </contour>
    <contour>
      <point x="782" y="654" type="move" name="rhotichook"/>
    </contour>
    <contour>
      <point x="951" y="1291" type="move" name="top0315"/>
    </contour>
    <contour>
      <point x="400" y="-20" type="curve" smooth="yes"/>
      <point x="524" y="-20"/>
      <point x="632" y="42"/>
      <point x="713" y="153" type="curve"/>
      <point x="682" y="181" type="line"/>
      <point x="603" y="88"/>
      <point x="512" y="32"/>
      <point x="399" y="33" type="curve" smooth="yes"/>
      <point x="182" y="35"/>
      <point x="97" y="295"/>
      <point x="125" y="518" type="curve" smooth="yes"/>
      <point x="131" y="562" type="line" smooth="yes"/>
      <point x="165" y="792"/>
      <point x="305" y="1049"/>
      <point x="523" y="1048" type="curve" smooth="yes"/>
      <point x="707" y="1047"/>
      <point x="784" y="836"/>
      <point x="755" y="644" type="curve"/>
      <point x="753" y="631" type="line"/>
      <point x="122" y="631" type="line"/>
      <point x="117" y="577" type="line"/>
      <point x="795" y="577" type="line"/>
      <point x="802" y="640" type="line" smooth="yes"/>
      <point x="828" y="868"/>
      <point x="740" y="1102"/>
      <point x="523" y="1102" type="curve" smooth="yes"/>
      <point x="281" y="1102"/>
      <point x="120" y="820"/>
      <point x="85" y="562" type="curve" smooth="yes"/>
      <point x="80" y="518" type="line" smooth="yes"/>
      <point x="50" y="262"/>
      <point x="155" y="-20"/>
    </contour>
  </outline>
</glyph>
<glyph name="f" format="1">
  <advance width="566"/>
  <unicode hex="0066"/>
  <outline>
    <contour>
      <point x="599" y="1680" type="move" name="top"/>
    </contour>
    <contour>
      <point x="203" y="10" type="move" name="bottom"/>
    </contour>
    <contour>
      <point x="691" y="1600" type="move" name="top_dd"/>
    </contour>
    <contour>
      <point x="399" y="-407" type="move" name="bottom_dd"/>
    </contour>
    <contour>
      <point x="702" y="1680" type="move" name="top0315"/>
    </contour>
    <contour>
      <point x="185" y="0" type="line"/>
      <point x="365" y="1236" type="line" smooth="yes"/>
      <point x="388" y="1377"/>
      <point x="464" y="1501"/>
      <point x="594" y="1503" type="curve" smooth="yes"/>
      <point x="626" y="1504"/>
      <point x="656" y="1498"/>
      <point x="687" y="1489" type="curve"/>
      <point x="699" y="1539" type="line"/>
      <point x="664" y="1551"/>
      <point x="630" y="1557"/>
      <point x="593" y="1557" type="curve" smooth="yes"/>
      <point x="435" y="1555"/>
      <point x="345" y="1410"/>
      <point x="319" y="1236" type="curve" smooth="yes"/>
      <point x="140" y="0" type="line"/>
    </contour>
    <contour>
      <point x="574" y="1082" type="line"/>
      <point x="143" y="1082" type="line"/>
      <point x="136" y="1027" type="line"/>
      <point x="568" y="1027" type="line"/>
    </contour>
  </outline>
</glyph>
<glyph name="h" format="1">
  <advance width="953"/>
  <unicode hex="0068"/>
  <outline>
    <contour>
      <point x="552" y="1611" type="move" name="top"/>
    </contour>
    <contour>
      <point x="391" y="1306" type="move" name="cross"/>
    </contour>
    <contour>
      <point x="400" y="10" type="move" name="bottom"/>
    </contour>
    <contour>
      <point x="711" y="0" type="move" name="right"/>
    </contour>
    <contour>
      <point x="1079" y="1600" type="move" name="top_dd"/>
    </contour>
    <contour>
      <point x="787" y="-407" type="move" name="bottom_dd"/>
    </contour>
    <contour>
      <point x="1080" y="1611" type="move" name="top0315"/>
    </contour>
    <contour>
      <point x="341" y="1536" type="line"/>
      <point x="296" y="1536" type="line"/>
      <point x="73" y="0" type="line"/>
      <point x="118" y="0" type="line"/>
      <point x="232" y="782" type="line"/>
      <point x="232" y="805" type="line"/>
    </contour>
    <contour>
      <point x="203" y="634" type="line"/>
      <point x="243" y="836"/>
      <point x="399" y="1046"/>
      <point x="584" y="1049" type="curve" smooth="yes"/>
      <point x="765" y="1051"/>
      <point x="793" y="882"/>
      <point x="768" y="700" type="curve"/>
      <point x="666" y="0" type="line"/>
      <point x="711" y="0" type="line"/>
      <point x="813" y="700" type="line"/>
      <point x="841" y="913"/>
      <point x="792" y="1103"/>
      <point x="586" y="1102" type="curve" smooth="yes"/>
      <point x="389" y="1100"/>
      <point x="238" y="902"/>
      <point x="186" y="692" type="curve"/>
    </contour>
  </outline>
</glyph>
<glyph name="i" format="1">
  <advance width="384"/>
  <unicode hex="0069"/>
  <outline>
    <contour>
      <point x="105" y="10" type="move" name="bottom"/>
    </contour>
    <contour>
      <point x="127" y="0" type="move" name="ogonek"/>
    </contour>
    <contour>
      <point x="343" y="1600" type="move" name="top"/>
    </contour>
    <contour>
      <point x="509" y="1600" type="move" name="top_dd"/>
    </contour>
    <contour>
      <point x="218" y="-407" type="move" name="bottom_dd"/>
    </contour>
    <contour>
      <point x="201" y="654" type="move" name="rhotichook"/>
    </contour>
    <contour>
      <point x="509" y="1600" type="move" name="top0315"/>
    </contour>
    <contour>
      <point x="285" y="1082" type="line"/>
      <point x="240" y="1082" type="line"/>
      <point x="84" y="0" type="line"/>
      <point x="129" y="0" type="line"/>
    </contour>
    <contour>
      <point x="267" y="1422" type="curve" smooth="yes"/>
      <point x="263" y="1393"/>
      <point x="281" y="1366"/>
      <point x="306" y="1365" type="curve" smooth="yes"/>
      <point x="330" y="1365"/>
      <point x="355" y="1391"/>
      <point x="359" y="1418" type="curve" smooth="yes"/>
      <point x="362" y="1447"/>
      <point x="344" y="1476"/>
      <point x="319" y="1476" type="curve" smooth="yes"/>
      <point x="295" y="1476"/>
      <point x="270" y="1449"/>
    </contour>
  </outline>
</glyph>
<glyph name="j" format="1">
  <advance width="403"/>
  <unicode hex="006A"/>
  <outline>
    <contour>
      <point x="347" y="1600" type="move" name="top"/>
    </contour>
    <contour>
      <point x="21" y="-459" type="move" name="bottom"/>
    </contour>
    <contour>
      <point x="528" y="1600" type="move" name="top_dd"/>
    </contour>
    <contour>
      <point x="236" y="-407" type="move" name="bottom_dd"/>
    </contour>
    <contour>
      <point x="528" y="1600" type="move" name="top0315"/>
    </contour>
    <contour>
      <point x="241" y="1082" type="line"/>
      <point x="65" y="-129" type="line" smooth="yes"/>
      <point x="42" y="-267"/>
      <point x="-36" y="-385"/>
      <point x="-163" y="-383" type="curve" smooth="yes"/>
      <point x="-188" y="-383"/>
      <point x="-212" y="-375"/>
      <point x="-236" y="-365" type="curve"/>
      <point x="-245" y="-417" type="line"/>
      <point x="-218" y="-428"/>
      <point x="-192" y="-437"/>
      <point x="-164" y="-437" type="curve" smooth="yes"/>
      <point x="-8" y="-437"/>
      <point x="85" y="-301"/>
      <point x="111" y="-129" type="curve" smooth="yes"/>
      <point x="286" y="1082" type="line"/>
    </contour>
    <contour>
      <point x="272" y="1422" type="curve" smooth="yes"/>
      <point x="268" y="1393"/>
      <point x="286" y="1366"/>
      <point x="311" y="1365" type="curve" smooth="yes"/>
      <point x="335" y="1365"/>
      <point x="360" y="1391"/>
      <point x="364" y="1418" type="curve" smooth="yes"/>
      <point x="367" y="1447"/>
      <point x="348" y="1476"/>
      <point x="323" y="1476" type="curve" smooth="yes"/>
      <point x="299" y="1476"/>
      <point x="275" y="1449"/>
    </contour>
  </outline>
</glyph>
<glyph name="k" format="1">
  <advance width="830"/>
  <unicode hex="006B"/>
  <outline>
    <contour>
      <point x="372" y="114" type="move" name="bottom"/>
    </contour>
    <contour>
      <point x="399" y="1289" type="move" name="cross"/>
    </contour>
    <contour>
      <point x="610" y="1612" type="move" name="top"/>
    </contour>
    <contour>
      <point x="610" y="1612" type="move" name="marktop"/>
    </contour>
    <contour>
      <point x="955" y="1600" type="move" name="top_dd"/>
    </contour>
    <contour>
      <point x="663" y="-407" type="move" name="bottom_dd"/>
    </contour>
    <contour>
      <point x="850" y="1612" type="move" name="top0315"/>
    </contour>
    <contour>
      <point x="341" y="1536" type="line"/>
      <point x="296" y="1536" type="line"/>
      <point x="73" y="0" type="line"/>
      <point x="118" y="0" type="line"/>
      <point x="188" y="483" type="line"/>
      <point x="191" y="503" type="line"/>
    </contour>
    <contour>
      <point x="846" y="1081" type="line"/>
      <point x="776" y="1081" type="line"/>
      <point x="310" y="628" type="line"/>
      <point x="162" y="481" type="line"/>
      <point x="174" y="440" type="line"/>
      <point x="332" y="582" type="line"/>
    </contour>
    <contour>
      <point x="655" y="0" type="line"/>
      <point x="711" y="0" type="line"/>
      <point x="352" y="650" type="line"/>
      <point x="319" y="610" type="line"/>
    </contour>
  </outline>
</glyph>
<glyph name="l" format="1">
  <advance width="384"/>
  <unicode hex="006C"/>
  <outline>
    <contour>
      <point x="350" y="1673" type="move" name="top"/>
    </contour>
    <contour>
      <point x="109" y="10" type="move" name="bottom"/>
    </contour>
    <contour>
      <point x="496" y="1536" type="move" name="caron"/>
    </contour>
    <contour>
      <point x="372" y="794" type="move" name="dot"/>
    </contour>
    <contour>
      <point x="537" y="1503" type="move" name="marktop"/>
    </contour>
    <contour>
      <point x="509" y="1600" type="move" name="top_dd"/>
    </contour>
    <contour>
      <point x="218" y="-407" type="move" name="bottom_dd"/>
    </contour>
    <contour>
      <point x="520" y="1673" type="move" name="top0315"/>
    </contour>
    <contour>
      <point x="351" y="1536" type="line"/>
      <point x="306" y="1536" type="line"/>
      <point x="84" y="0" type="line"/>
      <point x="129" y="0" type="line"/>
    </contour>
  </outline>
</glyph>
<glyph name="n" format="1">
  <advance width="953"/>
  <unicode hex="006E"/>
  <outline>
    <contour>
      <point x="591" y="1290" type="move" name="top"/>
    </contour>
    <contour>
      <point x="405" y="10" type="move" name="bottom"/>
    </contour>
    <contour>
      <point x="156" y="1536" type="move" name="caron"/>
    </contour>
    <contour>
      <point x="709" y="0" type="move" name="right"/>
    </contour>
    <contour>
      <point x="591" y="1290" type="move" name="marktop"/>
    </contour>
    <contour>
      <point x="1079" y="1600" type="move" name="top_dd"/>
    </contour>
    <contour>
      <point x="787" y="-407" type="move" name="bottom_dd"/>
    </contour>
    <contour>
      <point x="1034" y="1290" type="move" name="top0315"/>
    </contour>
    <contour>
      <point x="229" y="1082" type="line"/>
      <point x="73" y="0" type="line"/>
      <point x="118" y="0" type="line"/>
      <point x="233" y="793" type="line"/>
      <point x="233" y="819" type="line"/>
      <point x="275" y="1082" type="line"/>
    </contour>
    <contour>
      <point x="203" y="634" type="line"/>
      <point x="235" y="825"/>
      <point x="394" y="1046"/>
      <point x="584" y="1049" type="curve" smooth="yes"/>
      <point x="765" y="1051"/>
      <point x="793" y="882"/>
      <point x="768" y="700" type="curve"/>
      <point x="666" y="0" type="line"/>
      <point x="711" y="0" type="line"/>
      <point x="813" y="700" type="line"/>
      <point x="841" y="913"/>
      <point x="792" y="1104"/>
      <point x="586" y="1102" type="curve" smooth="yes"/>
      <point x="398" y="1100"/>
      <point x="244" y="912"/>
      <point x="190" y="702" type="curve"/>
    </contour>
  </outline>
</glyph>
<glyph name="o" format="1">
  <advance width="958"/>
  <unicode hex="006F"/>
  <outline>
    <contour>
      <point x="572" y="1290" type="move" name="top"/>
    </contour>
    <contour>
      <point x="402" y="-10" type="move" name="bottom"/>
    </contour>
    <contour>
      <point x="1069" y="1600" type="move" name="top_dd"/>
    </contour>
    <contour>
      <point x="806" y="-407" type="move" name="bottom_dd"/>
    </contour>
    <contour>
      <point x="845" y="654" type="move" name="rhotichook"/>
    </contour>
    <contour>
      <point x="1029" y="1290" type="move" name="top0315"/>
    </contour>
    <contour>
      <point x="82" y="520" type="line" smooth="yes"/>
      <point x="51" y="256"/>
      <point x="151" y="-20"/>
      <point x="403" y="-20" type="curve" smooth="yes"/>
      <point x="656" y="-20"/>
      <point x="818" y="246"/>
      <point x="856" y="520" type="curve" smooth="yes"/>
      <point x="861" y="562" type="line" smooth="yes"/>
      <point x="892" y="826"/>
      <point x="794" y="1102"/>
      <point x="541" y="1102" type="curve" smooth="yes"/>
      <point x="289" y="1102"/>
      <point x="125" y="836"/>
      <point x="88" y="562" type="curve" smooth="yes"/>
    </contour>
    <contour>
      <point x="133" y="562" type="line" smooth="yes"/>
      <point x="169" y="802"/>
      <point x="319" y="1048"/>
      <point x="541" y="1048" type="curve" smooth="yes"/>
      <point x="764" y="1048"/>
      <point x="844" y="789"/>
      <point x="815" y="562" type="curve" smooth="yes"/>
      <point x="810" y="520" type="line" smooth="yes"/>
      <point x="774" y="279"/>
      <point x="626" y="34"/>
      <point x="403" y="34" type="curve" smooth="yes"/>
      <point x="178" y="34"/>
      <point x="99" y="291"/>
      <point x="128" y="520" type="curve" smooth="yes"/>
    </contour>
  </outline>
</glyph>
<glyph name="p" format="1">
  <advance width="953"/>
  <unicode hex="0070"/>
  <outline>
    <contour>
      <point x="594" y="1280" type="move" name="top"/>
    </contour>
    <contour>
      <point x="33" y="-407" type="move" name="bottom"/>
    </contour>
    <contour>
      <point x="594" y="1280" type="move" name="marktop"/>
    </contour>
    <contour>
      <point x="1079" y="1600" type="move" name="top_dd"/>
    </contour>
    <contour>
      <point x="787" y="-407" type="move" name="bottom_dd"/>
    </contour>
    <contour>
      <point x="1032" y="1280" type="move" name="top0315"/>
    </contour>
    <contour>
      <point x="239" y="844" type="line"/>
      <point x="241" y="874" type="line"/>
      <point x="273" y="1082" type="line"/>
      <point x="227" y="1082" type="line"/>
      <point x="11" y="-416" type="line"/>
      <point x="56" y="-416" type="line"/>
      <point x="145" y="197" type="line"/>
      <point x="149" y="227" type="line"/>
    </contour>
    <contour>
      <point x="828" y="552" type="line" smooth="yes"/>
      <point x="860" y="789"/>
      <point x="825" y="1102"/>
      <point x="571" y="1102" type="curve" smooth="yes"/>
      <point x="397" y="1102"/>
      <point x="233" y="946"/>
      <point x="178" y="745" type="curve" smooth="yes"/>
      <point x="116" y="305" type="line"/>
      <point x="115" y="105"/>
      <point x="258" y="-20"/>
      <point x="417" y="-20" type="curve" smooth="yes"/>
      <point x="665" y="-20"/>
      <point x="788" y="279"/>
      <point x="825" y="531" type="curve" smooth="yes"/>
    </contour>
    <contour>
      <point x="779" y="531" type="line" smooth="yes"/>
      <point x="744" y="308"/>
      <point x="640" y="34"/>
      <point x="418" y="34" type="curve" smooth="yes"/>
      <point x="269" y="34"/>
      <point x="147" y="145"/>
      <point x="149" y="330" type="curve"/>
      <point x="205" y="709" type="line"/>
      <point x="252" y="909"/>
      <point x="405" y="1048"/>
      <point x="572" y="1048" type="curve" smooth="yes"/>
      <point x="798" y="1048"/>
      <point x="810" y="753"/>
      <point x="782" y="552" type="curve" smooth="yes"/>
    </contour>
  </outline>
</glyph>
<glyph name="q" format="1">
  <advance width="953"/>
  <unicode hex="0071"/>
  <outline>
    <contour>
      <point x="558" y="1290" type="move" name="top"/>
    </contour>
    <contour>
      <point x="628" y="-407" type="move" name="bottom"/>
    </contour>
    <contour>
      <point x="558" y="1290" type="move" name="marktop"/>
    </contour>
    <contour>
      <point x="1079" y="1600" type="move" name="top_dd"/>
    </contour>
    <contour>
      <point x="787" y="-407" type="move" name="bottom_dd"/>
    </contour>
    <contour>
      <point x="1034" y="1290" type="move" name="top0315"/>
    </contour>
    <contour>
      <point x="603" y="-416" type="line"/>
      <point x="648" y="-416" type="line"/>
      <point x="865" y="1082" type="line"/>
      <point x="820" y="1082" type="line"/>
      <point x="790" y="874" type="line"/>
      <point x="786" y="837" type="line"/>
      <point x="696" y="224" type="line"/>
      <point x="696" y="207" type="line"/>
    </contour>
    <contour>
      <point x="109" y="531" type="line" smooth="yes"/>
      <point x="78" y="298"/>
      <point x="113" y="-20"/>
      <point x="364" y="-20" type="curve" smooth="yes"/>
      <point x="527" y="-20"/>
      <point x="700" y="106"/>
      <point x="754" y="304" type="curve" smooth="yes"/>
      <point x="816" y="745" type="line" smooth="yes"/>
      <point x="815" y="951"/>
      <point x="689" y="1102"/>
      <point x="521" y="1102" type="curve" smooth="yes"/>
      <point x="270" y="1102"/>
      <point x="150" y="807"/>
      <point x="112" y="552" type="curve" smooth="yes"/>
    </contour>
    <contour>
      <point x="159" y="552" type="line" smooth="yes"/>
      <point x="194" y="775"/>
      <point x="298" y="1048"/>
      <point x="521" y="1048" type="curve" smooth="yes"/>
      <point x="676" y="1047"/>
      <point x="785" y="901"/>
      <point x="782" y="709" type="curve"/>
      <point x="725" y="329" type="line"/>
      <point x="671" y="148"/>
      <point x="515" y="33"/>
      <point x="363" y="34" type="curve" smooth="yes"/>
      <point x="138" y="35"/>
      <point x="127" y="331"/>
      <point x="156" y="531" type="curve" smooth="yes"/>
    </contour>
  </outline>
</glyph>
<glyph name="r" format="1">
  <advance width="598"/>
  <unicode hex="0072"/>
  <outline>
    <contour>
      <point x="457" y="1290" type="move" name="top"/>
    </contour>
    <contour>
      <point x="98" y="19" type="move" name="bottom"/>
    </contour>
    <contour>
      <point x="723" y="1600" type="move" name="top_dd"/>
    </contour>
    <contour>
      <point x="432" y="-407" type="move" name="bottom_dd"/>
    </contour>
    <contour>
      <point x="678" y="1290" type="move" name="top0315"/>
    </contour>
    <contour>
      <point x="238" y="822" type="line"/>
      <point x="236" y="832" type="line"/>
      <point x="275" y="1082" type="line"/>
      <point x="229" y="1082" type="line"/>
      <point x="73" y="0" type="line"/>
      <point x="118" y="0" type="line"/>
    </contour>
    <contour>
      <point x="626" y="1090" type="line"/>
      <point x="605" y="1098"/>
      <point x="584" y="1102"/>
      <point x="562" y="1102" type="curve" smooth="yes"/>
      <point x="322" y="1104"/>
      <point x="198" y="835"/>
      <point x="162" y="578" type="curve"/>
      <point x="193" y="581" type="line"/>
      <point x="220" y="799"/>
      <point x="346" y="1050"/>
      <point x="560" y="1049" type="curve" smooth="yes"/>
      <point x="579" y="1049"/>
      <point x="597" y="1046"/>
      <point x="615" y="1044" type="curve"/>
    </contour>
  </outline>
</glyph>
<glyph name="s" format="1">
  <advance width="870"/>
  <unicode hex="0073"/>
  <outline>
    <contour>
      <point x="527" y="1290" type="move" name="top"/>
    </contour>
    <contour>
      <point x="358" y="-5" type="move" name="bottom"/>
    </contour>
    <contour>
      <point x="981" y="1600" type="move" name="top_dd"/>
    </contour>
    <contour>
      <point x="718" y="-407" type="move" name="bottom_dd"/>
    </contour>
    <contour>
      <point x="941" y="1290" type="move" name="top0315"/>
    </contour>
    <contour>
      <point x="659" y="265" type="curve" smooth="yes"/>
      <point x="634" y="105"/>
      <point x="481" y="36"/>
      <point x="360" y="34" type="curve" smooth="yes"/>
      <point x="229" y="33"/>
      <point x="102" y="99"/>
      <point x="109" y="275" type="curve"/>
      <point x="64" y="275" type="line"/>
      <point x="48" y="68"/>
      <point x="209" y="-20"/>
      <point x="361" y="-20" type="curve" smooth="yes"/>
      <point x="511" y="-20"/>
      <point x="680" y="68"/>
      <point x="705" y="264" type="curve" smooth="yes"/>
      <point x="730" y="465"/>
      <point x="579" y="536"/>
      <point x="442" y="579" type="curve" smooth="yes"/>
      <point x="331" y="613"/>
      <point x="184" y="662"/>
      <point x="212" y="831" type="curve" smooth="yes"/>
      <point x="236" y="984"/>
      <point x="377" y="1048"/>
      <point x="494" y="1048" type="curve" smooth="yes"/>
      <point x="624" y="1048"/>
      <point x="744" y="963"/>
      <point x="728" y="793" type="curve"/>
      <point x="773" y="793" type="line"/>
      <point x="792" y="1000"/>
      <point x="655" y="1102"/>
      <point x="494" y="1102" type="curve" smooth="yes"/>
      <point x="352" y="1101"/>
      <point x="189" y="1014"/>
      <point x="166" y="829" type="curve" smooth="yes"/>
      <point x="141" y="629"/>
      <point x="297" y="572"/>
      <point x="429" y="532" type="curve" smooth="yes"/>
      <point x="538" y="500"/>
      <point x="685" y="430"/>
    </contour>
  </outline>
</glyph>
<glyph name="t" format="1">
  <advance width="568"/>
  <unicode hex="0074"/>
  <outline>
    <contour>
      <point x="269" y="0" type="move" name="bottom"/>
    </contour>
    <contour>
      <point x="550" y="1560" type="move" name="caron"/>
    </contour>
    <contour>
      <point x="306" y="659" type="move" name="cross"/>
    </contour>
    <contour>
      <point x="373" y="1540" type="move" name="top"/>
    </contour>
    <contour>
      <point x="532" y="1290" type="move" name="marktop"/>
    </contour>
    <contour>
      <point x="693" y="1600" type="move" name="top_dd"/>
    </contour>
    <contour>
      <point x="402" y="-407" type="move" name="bottom_dd"/>
    </contour>
    <contour>
      <point x="684" y="1540" type="move" name="top0315"/>
    </contour>
    <contour>
      <point x="529" y="1082" type="line"/>
      <point x="120" y="1082" type="line"/>
      <point x="114" y="1027" type="line"/>
      <point x="523" y="1027" type="line"/>
    </contour>
    <contour>
      <point x="326" y="1374" type="line"/>
      <point x="164" y="259" type="line"/>
      <point x="145" y="114"/>
      <point x="164" y="-19"/>
      <point x="308" y="-20" type="curve" smooth="yes"/>
      <point x="338" y="-20"/>
      <point x="369" y="-17"/>
      <point x="399" y="-8" type="curve"/>
      <point x="397" y="43" type="line"/>
      <point x="367" y="39"/>
      <point x="337" y="34"/>
      <point x="306" y="34" type="curve" smooth="yes"/>
      <point x="196" y="36"/>
      <point x="195" y="155"/>
      <point x="210" y="259" type="curve"/>
      <point x="372" y="1374" type="line"/>
    </contour>
  </outline>
</glyph>
<glyph name="u" format="1">
  <advance width="953"/>
  <unicode hex="0075"/>
  <outline>
    <contour>
      <point x="593" y="1293" type="move" name="top"/>
    </contour>
    <contour>
      <point x="708" y="0" type="move" name="ogonek"/>
    </contour>
    <contour>
      <point x="352" y="0" type="move" name="bottomu"/>
    </contour>
    <contour>
      <point x="1079" y="1600" type="move" name="top_dd"/>
    </contour>
    <contour>
      <point x="787" y="-407" type="move" name="bottom_dd"/>
    </contour>
    <contour>
      <point x="781" y="654" type="move" name="rhotichook"/>
    </contour>
    <contour>
      <point x="1034" y="1293" type="move" name="top0315"/>
    </contour>
    <contour>
      <point x="389" y="0" type="move" name="bottom"/>
    </contour>
    <contour>
      <point x="700" y="250" type="line"/>
      <point x="699" y="227" type="line"/>
      <point x="663" y="0" type="line"/>
      <point x="710" y="0" type="line"/>
      <point x="866" y="1082" type="line"/>
      <point x="820" y="1082" type="line"/>
    </contour>
    <contour>
      <point x="732" y="423" type="line"/>
      <point x="715" y="205"/>
      <point x="562" y="34"/>
      <point x="359" y="34" type="curve" smooth="yes"/>
      <point x="180" y="34"/>
      <point x="146" y="213"/>
      <point x="172" y="393" type="curve"/>
      <point x="271" y="1082" type="line"/>
      <point x="226" y="1082" type="line"/>
      <point x="127" y="395" type="line"/>
      <point x="98" y="177"/>
      <point x="151" y="-20"/>
      <point x="361" y="-20" type="curve" smooth="yes"/>
      <point x="590" y="-20"/>
      <point x="747" y="178"/>
      <point x="771" y="424" type="curve"/>
    </contour>
  </outline>
</glyph>
<glyph name="v" format="1">
  <advance width="837"/>
  <unicode hex="0076"/>
  <outline>
    <contour>
      <point x="512" y="1280" type="move" name="top"/>
    </contour>
    <contour>
      <point x="341" y="10" type="move" name="bottom"/>
    </contour>
    <contour>
      <point x="948" y="1600" type="move" name="top_dd"/>
    </contour>
    <contour>
      <point x="685" y="-407" type="move" name="bottom_dd"/>
    </contour>
    <contour>
      <point x="906" y="1280" type="move" name="top0315"/>
    </contour>
    <contour>
      <point x="341" y="64" type="line"/>
      <point x="320" y="0" type="line"/>
      <point x="364" y="0" type="line"/>
      <point x="847" y="1081" type="line"/>
      <point x="798" y="1081" type="line"/>
    </contour>
    <contour>
      <point x="165" y="1083" type="line"/>
      <point x="117" y="1083" type="line"/>
      <point x="320" y="0" type="line"/>
      <point x="362" y="0" type="line"/>
      <point x="357" y="63" type="line"/>
    </contour>
  </outline>
</glyph>
<glyph name="w" format="1">
  <advance width="1303"/>
  <unicode hex="0077"/>
  <outline>
    <contour>
      <point x="746" y="1293" type="move" name="top"/>
    </contour>
    <contour>
      <point x="561" y="10" type="move" name="bottom"/>
    </contour>
    <contour>
      <point x="746" y="1293" type="move" name="marktop"/>
    </contour>
    <contour>
      <point x="1428" y="1600" type="move" name="top_dd"/>
    </contour>
    <contour>
      <point x="1137" y="-407" type="move" name="bottom_dd"/>
    </contour>
    <contour>
      <point x="1384" y="1293" type="move" name="top0315"/>
    </contour>
    <contour>
      <point x="383" y="313" type="line"/>
      <point x="258" y="0" type="line"/>
      <point x="302" y="0" type="line"/>
      <point x="633" y="809" type="line"/>
      <point x="735" y="1081" type="line"/>
      <point x="693" y="1081" type="line"/>
    </contour>
    <contour>
      <point x="208" y="1082" type="line"/>
      <point x="157" y="1083" type="line"/>
      <point x="257" y="0" type="line"/>
      <point x="297" y="0" type="line"/>
      <point x="277" y="308" type="line"/>
    </contour>
    <contour>
      <point x="932" y="313" type="line"/>
      <point x="822" y="0" type="line"/>
      <point x="864" y="0" type="line"/>
      <point x="1277" y="1081" type="line"/>
      <point x="1224" y="1081" type="line"/>
    </contour>
    <contour>
      <point x="739" y="1083" type="line"/>
      <point x="700" y="1083" type="line"/>
      <point x="719" y="818" type="line"/>
      <point x="820" y="0" type="line"/>
      <point x="861" y="0" type="line"/>
      <point x="825" y="308" type="line"/>
    </contour>
  </outline>
</glyph>
<glyph name="x" format="1">
  <advance width="837"/>
  <unicode hex="0078"/>
  <outline>
    <contour>
      <point x="362" y="10" type="move" name="bottom"/>
    </contour>
    <contour>
      <point x="667" y="0" type="move" name="right"/>
    </contour>
    <contour>
      <point x="420" y="553" type="move" name="cross"/>
    </contour>
    <contour>
      <point x="522" y="1280" type="move" name="top"/>
    </contour>
    <contour>
      <point x="948" y="1600" type="move" name="top_dd"/>
    </contour>
    <contour>
      <point x="685" y="-407" type="move" name="bottom_dd"/>
    </contour>
    <contour>
      <point x="906" y="1280" type="move" name="top0315"/>
    </contour>
    <contour>
      <point x="198" y="1083" type="line"/>
      <point x="143" y="1083" type="line"/>
      <point x="385" y="559" type="line"/>
      <point x="-14" y="0" type="line"/>
      <point x="43" y="0" type="line"/>
      <point x="408" y="507" type="line"/>
      <point x="640" y="0" type="line"/>
      <point x="694" y="0" type="line"/>
      <point x="439" y="551" type="line"/>
      <point x="819" y="1080" type="line"/>
      <point x="761" y="1081" type="line"/>
      <point x="417" y="603" type="line"/>
    </contour>
  </outline>
</glyph>
<glyph name="y" format="1">
  <advance width="837"/>
  <unicode hex="0079"/>
  <outline>
    <contour>
      <point x="543" y="1293" type="move" name="top"/>
    </contour>
    <contour>
      <point x="494" y="-158" type="move" name="bottom"/>
    </contour>
    <contour>
      <point x="543" y="1293" type="move" name="marktop"/>
    </contour>
    <contour>
      <point x="962" y="1600" type="move" name="top_dd"/>
    </contour>
    <contour>
      <point x="671" y="-407" type="move" name="bottom_dd"/>
    </contour>
    <contour>
      <point x="638" y="654" type="move" name="rhotichook"/>
    </contour>
    <contour>
      <point x="917" y="1293" type="move" name="top0315"/>
    </contour>
    <contour>
      <point x="361" y="104" type="line"/>
      <point x="239" y="-170" type="line" smooth="yes"/>
      <point x="191" y="-275"/>
      <point x="124" y="-385"/>
      <point x="12" y="-384" type="curve" smooth="yes"/>
      <point x="-7" y="-384"/>
      <point x="-26" y="-379"/>
      <point x="-44" y="-375" type="curve"/>
      <point x="-49" y="-426" type="line"/>
      <point x="-27" y="-433"/>
      <point x="-5" y="-437"/>
      <point x="18" y="-437" type="curve" smooth="yes"/>
      <point x="155" y="-435"/>
      <point x="227" y="-310"/>
      <point x="286" y="-180" type="curve" smooth="yes"/>
      <point x="860" y="1081" type="line"/>
      <point x="809" y="1081" type="line"/>
    </contour>
    <contour>
      <point x="172" y="1083" type="line"/>
      <point x="124" y="1083" type="line"/>
      <point x="327" y="-21" type="line"/>
      <point x="365" y="9" type="line"/>
      <point x="359" y="64" type="line"/>
    </contour>
  </outline>
</glyph>
<glyph name="z" format="1">
  <advance width="837"/>
  <unicode hex="007A"/>
  <outline>
    <contour>
      <point x="536" y="1293" type="move" name="top"/>
    </contour>
    <contour>
      <point x="374" y="10" type="move" name="bottom"/>
    </contour>
    <contour>
      <point x="962" y="1600" type="move" name="top_dd"/>
    </contour>
    <contour>
      <point x="671" y="-407" type="move" name="bottom_dd"/>
    </contour>
    <contour>
      <point x="917" y="1293" type="move" name="top0315"/>
    </contour>
    <contour>
      <point x="698" y="54" type="line"/>
      <point x="22" y="54" type="line"/>
      <point x="16" y="0" type="line"/>
      <point x="692" y="0" type="line"/>
    </contour>
    <contour>
      <point x="794" y="1033" type="line"/>
      <point x="800" y="1081" type="line"/>
      <point x="771" y="1081" type="line"/>
      <point x="9" y="45" type="line"/>
      <point x="3" y="0" type="line"/>
      <point x="33" y="0" type="line"/>
    </contour>
    <contour>
      <point x="779" y="1082" type="line"/>
      <point x="185" y="1082" type="line"/>
      <point x="179" y="1027" type="line"/>
      <point x="773" y="1027" type="line"/>
    </contour>
  </outline>
</glyph>
<glyph name="braceleft" format="1">
  <advance width="578"/>
  <unicode hex="007B"/>
  <outline>
    <contour>
      <point x="239" y="265" type="curve" smooth="yes"/>
      <point x="206" y="20" type="line" smooth="yes"/>
      <point x="181" y="-189"/>
      <point x="234" y="-364"/>
      <point x="409" y="-440" type="curve"/>
      <point x="430" y="-396" type="line"/>
      <point x="276" y="-323"/>
      <point x="228" y="-167"/>
      <point x="252" y="20" type="curve" smooth="yes"/>
      <point x="284" y="265" type="line" smooth="yes"/>
      <point x="300" y="400"/>
      <point x="272" y="541"/>
      <point x="128" y="584" type="curve"/>
      <point x="128" y="567" type="line"/>
      <point x="279" y="608"/>
      <point x="345" y="734"/>
      <point x="366" y="885" type="curve" smooth="yes"/>
      <point x="398" y="1132" type="line" smooth="yes"/>
      <point x="426" y="1328"/>
      <point x="520" y="1485"/>
      <point x="681" y="1551" type="curve"/>
      <point x="674" y="1597" type="line"/>
      <point x="486" y="1524"/>
      <point x="383" y="1360"/>
      <point x="352" y="1132" type="curve" smooth="yes"/>
      <point x="320" y="885" type="line" smooth="yes"/>
      <point x="296" y="725"/>
      <point x="220" y="618"/>
      <point x="80" y="609" type="curve"/>
      <point x="72" y="543" type="line"/>
      <point x="215" y="534"/>
      <point x="259" y="424"/>
    </contour>
  </outline>
</glyph>
<glyph name="asciitilde" format="1">
  <advance width="1190"/>
  <unicode hex="007E"/>
  <outline>
    <contour>
      <point x="1009" y="753" type="line"/>
      <point x="986" y="621"/>
      <point x="924" y="498"/>
      <point x="799" y="496" type="curve" smooth="yes"/>
      <point x="719" y="495"/>
      <point x="665" y="559"/>
      <point x="614" y="624" type="curve" smooth="yes"/>
      <point x="552" y="703"/>
      <point x="485" y="775"/>
      <point x="388" y="774" type="curve" smooth="yes"/>
      <point x="237" y="772"/>
      <point x="156" y="624"/>
      <point x="132" y="463" type="curve"/>
      <point x="178" y="462" type="line"/>
      <point x="201" y="596"/>
      <point x="262" y="719"/>
      <point x="388" y="720" type="curve" smooth="yes"/>
      <point x="470" y="720"/>
      <point x="523" y="660"/>
      <point x="575" y="593" type="curve" smooth="yes"/>
      <point x="638" y="513"/>
      <point x="702" y="442"/>
      <point x="799" y="443" type="curve" smooth="yes"/>
      <point x="947" y="445"/>
      <point x="1032" y="592"/>
      <point x="1056" y="751" type="curve"/>
    </contour>
  </outline>
</glyph>
<glyph name="exclamdown" format="1">
  <advance width="371"/>
  <unicode hex="00A1"/>
  <outline>
    <contour>
      <point x="27" y="-359" type="line"/>
      <point x="72" y="-359" type="line"/>
      <point x="224" y="696" type="line"/>
      <point x="179" y="696" type="line"/>
    </contour>
    <contour>
      <point x="292" y="1046" type="curve" smooth="yes"/>
      <point x="296" y="1075"/>
      <point x="278" y="1102"/>
      <point x="253" y="1103" type="curve" smooth="yes"/>
      <point x="229" y="1103"/>
      <point x="204" y="1077"/>
      <point x="200" y="1050" type="curve" smooth="yes"/>
      <point x="197" y="1021"/>
      <point x="216" y="992"/>
      <point x="241" y="992" type="curve" smooth="yes"/>
      <point x="264" y="992"/>
      <point x="289" y="1019"/>
    </contour>
  </outline>
</glyph>
<glyph name="cent" format="1">
  <advance width="944"/>
  <unicode hex="00A2"/>
  <outline>
    <contour>
      <point x="617" y="1318" type="line"/>
      <point x="571" y="1318" type="line"/>
      <point x="536" y="1070" type="line"/>
      <point x="582" y="1070" type="line"/>
    </contour>
    <contour>
      <point x="426" y="2" type="line"/>
      <point x="380" y="2" type="line"/>
      <point x="344" y="-245" type="line"/>
      <point x="390" y="-245" type="line"/>
    </contour>
    <contour>
      <point x="408" y="34" type="curve" smooth="yes"/>
      <point x="178" y="35"/>
      <point x="132" y="296"/>
      <point x="160" y="520" type="curve" smooth="yes"/>
      <point x="166" y="562" type="line" smooth="yes"/>
      <point x="200" y="800"/>
      <point x="320" y="1048"/>
      <point x="547" y="1048" type="curve" smooth="yes"/>
      <point x="708" y="1048"/>
      <point x="799" y="910"/>
      <point x="785" y="725" type="curve"/>
      <point x="830" y="725" type="line"/>
      <point x="844" y="941"/>
      <point x="733" y="1102"/>
      <point x="547" y="1102" type="curve" smooth="yes"/>
      <point x="295" y="1101"/>
      <point x="156" y="828"/>
      <point x="120" y="562" type="curve" smooth="yes"/>
      <point x="115" y="520" type="line" smooth="yes"/>
      <point x="84" y="266"/>
      <point x="155" y="-20"/>
      <point x="409" y="-20" type="curve" smooth="yes"/>
      <point x="588" y="-20"/>
      <point x="738" y="119"/>
      <point x="778" y="327" type="curve"/>
      <point x="732" y="327" type="line"/>
      <point x="691" y="148"/>
      <point x="566" y="34"/>
    </contour>
  </outline>
</glyph>
<glyph name="sterling" format="1">
  <advance width="977"/>
  <unicode hex="00A3"/>
  <outline>
    <contour>
      <point x="799" y="0" type="line"/>
      <point x="804" y="54" type="line"/>
      <point x="20" y="54" type="line"/>
      <point x="14" y="0" type="line"/>
    </contour>
    <contour>
      <point x="625" y="667" type="line"/>
      <point x="631" y="721" type="line"/>
      <point x="114" y="721" type="line"/>
      <point x="108" y="667" type="line"/>
    </contour>
    <contour>
      <point x="369" y="1039" type="line" smooth="yes"/>
      <point x="398" y="1233"/>
      <point x="501" y="1421"/>
      <point x="683" y="1422" type="curve" smooth="yes"/>
      <point x="852" y="1422"/>
      <point x="914" y="1272"/>
      <point x="891" y="1089" type="curve"/>
      <point x="936" y="1089" type="line"/>
      <point x="961" y="1302"/>
      <point x="876" y="1476"/>
      <point x="682" y="1476" type="curve" smooth="yes"/>
      <point x="476" y="1475"/>
      <point x="354" y="1261"/>
      <point x="323" y="1039" type="curve" smooth="yes"/>
      <point x="239" y="336" type="line" smooth="yes"/>
      <point x="226" y="243"/>
      <point x="200" y="97"/>
      <point x="118" y="56" type="curve"/>
      <point x="169" y="30" type="line"/>
      <point x="244" y="106"/>
      <point x="270" y="224"/>
      <point x="284" y="336" type="curve" smooth="yes"/>
    </contour>
  </outline>
</glyph>
<glyph name="currency" format="1">
  <advance width="1457"/>
  <unicode hex="00A4"/>
  <outline>
    <contour>
      <point x="1238" y="11" type="line"/>
      <point x="1093" y="198" type="line"/>
      <point x="1202" y="311"/>
      <point x="1276" y="452"/>
      <point x="1302" y="608" type="curve" smooth="yes"/>
      <point x="1326" y="754"/>
      <point x="1304" y="901"/>
      <point x="1227" y="1028" type="curve"/>
      <point x="1448" y="1223" type="line"/>
      <point x="1411" y="1265" type="line"/>
      <point x="1191" y="1071" type="line"/>
      <point x="1099" y="1178"/>
      <point x="968" y="1234"/>
      <point x="828" y="1234" type="curve" smooth="yes"/>
      <point x="672" y="1234"/>
      <point x="529" y="1169"/>
      <point x="409" y="1073" type="curve"/>
      <point x="261" y="1264" type="line"/>
      <point x="218" y="1227" type="line"/>
      <point x="369" y="1033" type="line"/>
      <point x="252" y="918"/>
      <point x="172" y="771"/>
      <point x="145" y="608" type="curve" smooth="yes"/>
      <point x="122" y="465"/>
      <point x="143" y="322"/>
      <point x="214" y="196" type="curve"/>
      <point x="8" y="15" type="line"/>
      <point x="44" y="-26" type="line"/>
      <point x="248" y="153" type="line"/>
      <point x="341" y="41"/>
      <point x="475" y="-20"/>
      <point x="621" y="-20" type="curve" smooth="yes"/>
      <point x="783" y="-20"/>
      <point x="931" y="52"/>
      <point x="1053" y="155" type="curve"/>
      <point x="1194" y="-27" type="line"/>
    </contour>
    <contour>
      <point x="200" y="608" type="curve" smooth="yes"/>
      <point x="254" y="901"/>
      <point x="518" y="1181"/>
      <point x="829" y="1181" type="curve" smooth="yes"/>
      <point x="1134" y="1181"/>
      <point x="1298" y="886"/>
      <point x="1247" y="608" type="curve" smooth="yes"/>
      <point x="1194" y="315"/>
      <point x="931" y="33"/>
      <point x="620" y="33" type="curve" smooth="yes"/>
      <point x="313" y="33"/>
      <point x="150" y="329"/>
    </contour>
  </outline>
</glyph>
<glyph name="yen" format="1">
  <advance width="886"/>
  <unicode hex="00A5"/>
  <outline>
    <contour>
      <point x="793" y="676" type="line"/>
      <point x="111" y="676" type="line"/>
      <point x="104" y="621" type="line"/>
      <point x="787" y="621" type="line"/>
    </contour>
    <contour>
      <point x="750" y="381" type="line"/>
      <point x="68" y="381" type="line"/>
      <point x="61" y="326" type="line"/>
      <point x="744" y="326" type="line"/>
    </contour>
    <contour>
      <point x="484" y="738" type="line"/>
      <point x="425" y="630" type="line"/>
      <point x="468" y="630" type="line"/>
      <point x="960" y="1455" type="line"/>
      <point x="907" y="1455" type="line"/>
    </contour>
    <contour>
      <point x="221" y="1457" type="line"/>
      <point x="171" y="1457" type="line"/>
      <point x="425" y="628" type="line"/>
      <point x="466" y="628" type="line"/>
      <point x="438" y="734" type="line"/>
    </contour>
    <contour>
      <point x="475" y="687" type="line"/>
      <point x="430" y="687" type="line"/>
      <point x="331" y="0" type="line"/>
      <point x="377" y="0" type="line"/>
    </contour>
  </outline>
</glyph>
<glyph name="brokenbar" format="1">
  <advance width="386"/>
  <unicode hex="00A6"/>
  <outline>
    <contour>
      <point x="70" y="-270" type="line"/>
      <point x="199" y="482" type="line"/>
      <point x="145" y="482" type="line"/>
      <point x="16" y="-270" type="line"/>
    </contour>
    <contour>
      <point x="368" y="1456" type="line"/>
      <point x="314" y="1456" type="line"/>
      <point x="184" y="698" type="line"/>
      <point x="238" y="698" type="line"/>
    </contour>
  </outline>
</glyph>
<glyph name="section" format="1">
  <advance width="1037"/>
  <unicode hex="00A7"/>
  <outline>
    <contour>
      <point x="514" y="157" type="line"/>
      <point x="665" y="161"/>
      <point x="859" y="223"/>
      <point x="888" y="431" type="curve" smooth="yes"/>
      <point x="923" y="682"/>
      <point x="707" y="747"/>
      <point x="548" y="804" type="curve" smooth="yes"/>
      <point x="407" y="854"/>
      <point x="243" y="923"/>
      <point x="278" y="1132" type="curve" smooth="yes"/>
      <point x="312" y="1338"/>
      <point x="487" y="1422"/>
      <point x="648" y="1422" type="curve" smooth="yes"/>
      <point x="836" y="1421"/>
      <point x="942" y="1263"/>
      <point x="915" y="1045" type="curve"/>
      <point x="960" y="1045" type="line"/>
      <point x="991" y="1306"/>
      <point x="870" y="1476"/>
      <point x="647" y="1476" type="curve" smooth="yes"/>
      <point x="463" y="1476"/>
      <point x="264" y="1366"/>
      <point x="232" y="1129" type="curve" smooth="yes"/>
      <point x="200" y="898"/>
      <point x="374" y="820"/>
      <point x="529" y="766" type="curve" smooth="yes"/>
      <point x="666" y="718"/>
      <point x="881" y="648"/>
      <point x="842" y="428" type="curve" smooth="yes"/>
      <point x="811" y="256"/>
      <point x="646" y="201"/>
      <point x="519" y="196" type="curve"/>
    </contour>
    <contour>
      <point x="471" y="830" type="line"/>
      <point x="317" y="825"/>
      <point x="139" y="758"/>
      <point x="111" y="551" type="curve" smooth="yes"/>
      <point x="76" y="299"/>
      <point x="294" y="220"/>
      <point x="456" y="166" type="curve" smooth="yes"/>
      <point x="592" y="120"/>
      <point x="755" y="52"/>
      <point x="721" y="-151" type="curve" smooth="yes"/>
      <point x="687" y="-354"/>
      <point x="512" y="-440"/>
      <point x="353" y="-441" type="curve" smooth="yes"/>
      <point x="156" y="-442"/>
      <point x="32" y="-301"/>
      <point x="62" y="-62" type="curve"/>
      <point x="16" y="-64" type="line"/>
      <point x="-15" y="-337"/>
      <point x="130" y="-495"/>
      <point x="354" y="-495" type="curve" smooth="yes"/>
      <point x="540" y="-494"/>
      <point x="735" y="-388"/>
      <point x="768" y="-149" type="curve" smooth="yes"/>
      <point x="799" y="84"/>
      <point x="624" y="159"/>
      <point x="469" y="215" type="curve" smooth="yes"/>
      <point x="325" y="267"/>
      <point x="118" y="327"/>
      <point x="157" y="553" type="curve" smooth="yes"/>
      <point x="187" y="729"/>
      <point x="331" y="792"/>
      <point x="467" y="797" type="curve"/>
    </contour>
  </outline>
</glyph>
<glyph name="dieresis" format="1">
  <advance width="879"/>
  <unicode hex="00A8"/>
  <outline>
    <contour>
      <point x="544" y="1293" type="move" name="_top"/>
    </contour>
    <contour>
      <point x="584" y="1540" type="move" name="mkmktop_acc"/>
    </contour>
    <contour>
      <point x="296" y="1422" type="curve" smooth="yes"/>
      <point x="292" y="1393"/>
      <point x="314" y="1366"/>
      <point x="344" y="1366" type="curve" smooth="yes"/>
      <point x="372" y="1366"/>
      <point x="402" y="1392"/>
      <point x="406" y="1420" type="curve" smooth="yes"/>
      <point x="410" y="1449"/>
      <point x="387" y="1477"/>
      <point x="357" y="1477" type="curve" smooth="yes"/>
      <point x="329" y="1477"/>
      <point x="300" y="1450"/>
    </contour>
    <contour>
      <point x="728" y="1422" type="curve" smooth="yes"/>
      <point x="724" y="1393"/>
      <point x="746" y="1366"/>
      <point x="776" y="1366" type="curve" smooth="yes"/>
      <point x="804" y="1366"/>
      <point x="833" y="1392"/>
      <point x="837" y="1420" type="curve" smooth="yes"/>
      <point x="842" y="1449"/>
      <point x="819" y="1477"/>
      <point x="789" y="1477" type="curve" smooth="yes"/>
      <point x="760" y="1477"/>
      <point x="732" y="1450"/>
    </contour>
  </outline>
</glyph>
<glyph name="copyright" format="1">
  <advance width="1616"/>
  <unicode hex="00A9"/>
  <outline>
    <contour>
      <point x="1041" y="616" type="line"/>
      <point x="1011" y="465"/>
      <point x="923" y="356"/>
      <point x="759" y="357" type="curve" smooth="yes"/>
      <point x="577" y="359"/>
      <point x="537" y="540"/>
      <point x="559" y="689" type="curve" smooth="yes"/>
      <point x="572" y="769" type="line" smooth="yes"/>
      <point x="600" y="928"/>
      <point x="704" y="1101"/>
      <point x="884" y="1102" type="curve" smooth="yes"/>
      <point x="1046" y="1103"/>
      <point x="1098" y="988"/>
      <point x="1079" y="842" type="curve"/>
      <point x="1130" y="842" type="line"/>
      <point x="1151" y="1017"/>
      <point x="1074" y="1156"/>
      <point x="884" y="1155" type="curve" smooth="yes"/>
      <point x="671" y="1154"/>
      <point x="547" y="957"/>
      <point x="516" y="768" type="curve" smooth="yes"/>
      <point x="504" y="689" type="line" smooth="yes"/>
      <point x="479" y="508"/>
      <point x="546" y="303"/>
      <point x="759" y="302" type="curve" smooth="yes"/>
      <point x="951" y="302"/>
      <point x="1062" y="437"/>
      <point x="1093" y="615" type="curve"/>
    </contour>
    <contour>
      <point x="195" y="729" type="curve" smooth="yes"/>
      <point x="253" y="1085"/>
      <point x="564" y="1421"/>
      <point x="941" y="1421" type="curve" smooth="yes"/>
      <point x="1312" y="1421"/>
      <point x="1517" y="1070"/>
      <point x="1462" y="729" type="curve" smooth="yes"/>
      <point x="1404" y="373"/>
      <point x="1092" y="34"/>
      <point x="715" y="34" type="curve" smooth="yes"/>
      <point x="343" y="34"/>
      <point x="140" y="388"/>
    </contour>
    <contour>
      <point x="139" y="729" type="curve" smooth="yes"/>
      <point x="82" y="355"/>
      <point x="312" y="-21"/>
      <point x="716" y="-21" type="curve" smooth="yes"/>
      <point x="1125" y="-21"/>
      <point x="1459" y="340"/>
      <point x="1518" y="729" type="curve" smooth="yes"/>
      <point x="1575" y="1104"/>
      <point x="1344" y="1476"/>
      <point x="940" y="1476" type="curve" smooth="yes"/>
      <point x="532" y="1476"/>
      <point x="197" y="1118"/>
    </contour>
  </outline>
</glyph>
<glyph name="ordfeminine" format="1">
  <advance width="772"/>
  <unicode hex="00AA"/>
  <outline>
    <contour>
      <point x="596" y="861" type="line"/>
      <point x="590" y="809"/>
      <point x="587" y="757"/>
      <point x="590" y="705" type="curve"/>
      <point x="638" y="705" type="line"/>
      <point x="632" y="766"/>
      <point x="634" y="825"/>
      <point x="642" y="886" type="curve" smooth="yes"/>
      <point x="688" y="1200" type="line"/>
      <point x="706" y="1348"/>
      <point x="653" y="1476"/>
      <point x="516" y="1476" type="curve" smooth="yes"/>
      <point x="392" y="1476"/>
      <point x="276" y="1394"/>
      <point x="249" y="1244" type="curve"/>
      <point x="296" y="1244" type="line"/>
      <point x="322" y="1369"/>
      <point x="412" y="1423"/>
      <point x="517" y="1421" type="curve" smooth="yes"/>
      <point x="629" y="1420"/>
      <point x="659" y="1318"/>
      <point x="642" y="1201" type="curve"/>
      <point x="629" y="1110" type="line"/>
      <point x="626" y="1094" type="line"/>
      <point x="595" y="877" type="line"/>
    </contour>
    <contour>
      <point x="647" y="1132" type="line"/>
      <point x="491" y="1132" type="line" smooth="yes"/>
      <point x="363" y="1129"/>
      <point x="222" y="1070"/>
      <point x="200" y="900" type="curve" smooth="yes"/>
      <point x="182" y="763"/>
      <point x="270" y="690"/>
      <point x="377" y="691" type="curve" smooth="yes"/>
      <point x="478" y="693"/>
      <point x="572" y="772"/>
      <point x="620" y="876" type="curve"/>
      <point x="607" y="928" type="line"/>
      <point x="576" y="824"/>
      <point x="467" y="748"/>
      <point x="378" y="746" type="curve" smooth="yes"/>
      <point x="294" y="745"/>
      <point x="227" y="796"/>
      <point x="246" y="904" type="curve" smooth="yes"/>
      <point x="270" y="1043"/>
      <point x="388" y="1076"/>
      <point x="491" y="1078" type="curve" smooth="yes"/>
      <point x="641" y="1078" type="line"/>
    </contour>
  </outline>
</glyph>
<glyph name="logicalnot" format="1">
  <advance width="937"/>
  <unicode hex="00AC"/>
  <outline>
    <contour>
      <point x="788" y="753" type="line"/>
      <point x="140" y="753" type="line"/>
      <point x="134" y="700" type="line"/>
      <point x="782" y="700" type="line"/>
    </contour>
    <contour>
      <point x="781" y="706" type="line"/>
      <point x="736" y="706" type="line"/>
      <point x="692" y="396" type="line"/>
      <point x="737" y="396" type="line"/>
    </contour>
  </outline>
</glyph>
<glyph name="registered" format="1">
  <advance width="1624"/>
  <unicode hex="00AE"/>
  <outline>
    <contour>
      <point x="861" y="678" type="line" smooth="yes"/>
      <point x="886" y="679"/>
      <point x="895" y="692"/>
      <point x="917" y="699" type="curve"/>
      <point x="930" y="700" type="line"/>
      <point x="1034" y="726"/>
      <point x="1122" y="808"/>
      <point x="1138" y="916" type="curve" smooth="yes"/>
      <point x="1163" y="1084"/>
      <point x="1041" y="1153"/>
      <point x="890" y="1156" type="curve" smooth="yes"/>
      <point x="661" y="1156" type="line"/>
      <point x="533" y="326" type="line"/>
      <point x="587" y="326" type="line"/>
      <point x="708" y="1101" type="line"/>
      <point x="890" y="1101" type="line" smooth="yes"/>
      <point x="1015" y="1098"/>
      <point x="1110" y="1058"/>
      <point x="1083" y="917" type="curve" smooth="yes"/>
      <point x="1061" y="800"/>
      <point x="957" y="737"/>
      <point x="844" y="734" type="curve" smooth="yes"/>
      <point x="613" y="734" type="line"/>
      <point x="608" y="678" type="line"/>
    </contour>
    <contour>
      <point x="846" y="679" type="line"/>
      <point x="965" y="673"/>
      <point x="1016" y="627"/>
      <point x="998" y="504" type="curve" smooth="yes"/>
      <point x="993" y="470" type="line" smooth="yes"/>
      <point x="985" y="422"/>
      <point x="978" y="374"/>
      <point x="984" y="326" type="curve"/>
      <point x="1042" y="326" type="line"/>
      <point x="1044" y="342" type="line"/>
      <point x="1044" y="385"/>
      <point x="1041" y="425"/>
      <point x="1047" y="469" type="curve" smooth="yes"/>
      <point x="1053" y="505" type="line" smooth="yes"/>
      <point x="1072" y="645"/>
      <point x="1000" y="716"/>
      <point x="863" y="722" type="curve"/>
    </contour>
    <contour>
      <point x="186" y="729" type="curve" smooth="yes"/>
      <point x="244" y="1086"/>
      <point x="556" y="1421"/>
      <point x="933" y="1421" type="curve" smooth="yes"/>
      <point x="1304" y="1421"/>
      <point x="1509" y="1070"/>
      <point x="1454" y="729" type="curve" smooth="yes"/>
      <point x="1396" y="373"/>
      <point x="1084" y="34"/>
      <point x="708" y="34" type="curve" smooth="yes"/>
      <point x="336" y="34"/>
      <point x="131" y="388"/>
    </contour>
    <contour>
      <point x="131" y="729" type="curve" smooth="yes"/>
      <point x="74" y="355"/>
      <point x="304" y="-21"/>
      <point x="708" y="-21" type="curve" smooth="yes"/>
      <point x="1118" y="-21"/>
      <point x="1452" y="340"/>
      <point x="1510" y="729" type="curve" smooth="yes"/>
      <point x="1567" y="1104"/>
      <point x="1336" y="1476"/>
      <point x="933" y="1476" type="curve" smooth="yes"/>
      <point x="524" y="1476"/>
      <point x="190" y="1118"/>
    </contour>
  </outline>
</glyph>
<glyph name="macron" format="1">
  <advance width="701"/>
  <unicode hex="00AF"/>
  <outline>
    <contour>
      <point x="446" y="1282" type="move" name="_top"/>
    </contour>
    <contour>
      <point x="480" y="1540" type="move" name="mkmktop_acc"/>
    </contour>
    <contour>
      <point x="699" y="1436" type="line"/>
      <point x="236" y="1436" type="line"/>
      <point x="231" y="1383" type="line"/>
      <point x="694" y="1383" type="line"/>
    </contour>
  </outline>
</glyph>
<glyph name="degree" format="1">
  <advance width="760"/>
  <unicode hex="00B0"/>
  <outline>
    <contour>
      <point x="261" y="1236" type="curve" smooth="yes"/>
      <point x="241" y="1113"/>
      <point x="326" y="999"/>
      <point x="455" y="999" type="curve" smooth="yes"/>
      <point x="584" y="1000"/>
      <point x="697" y="1111"/>
      <point x="717" y="1236" type="curve" smooth="yes"/>
      <point x="736" y="1356"/>
      <point x="656" y="1476"/>
      <point x="527" y="1476" type="curve" smooth="yes"/>
      <point x="397" y="1475"/>
      <point x="281" y="1362"/>
    </contour>
    <contour>
      <point x="316" y="1236" type="curve" smooth="yes"/>
      <point x="335" y="1335"/>
      <point x="423" y="1421"/>
      <point x="528" y="1421" type="curve" smooth="yes"/>
      <point x="630" y="1420"/>
      <point x="679" y="1329"/>
      <point x="661" y="1236" type="curve" smooth="yes"/>
      <point x="642" y="1138"/>
      <point x="557" y="1055"/>
      <point x="454" y="1055" type="curve" smooth="yes"/>
      <point x="354" y="1056"/>
      <point x="297" y="1141"/>
    </contour>
  </outline>
</glyph>
<glyph name="plusminus" format="1">
  <advance width="918"/>
  <unicode hex="00B1"/>
  <outline>
    <contour>
      <point x="852" y="805" type="line"/>
      <point x="104" y="805" type="line"/>
      <point x="99" y="751" type="line"/>
      <point x="846" y="751" type="line"/>
    </contour>
    <contour>
      <point x="571" y="1267" type="line"/>
      <point x="526" y="1267" type="line"/>
      <point x="399" y="289" type="line"/>
      <point x="444" y="289" type="line"/>
    </contour>
    <contour>
      <point x="729" y="54" type="line"/>
      <point x="48" y="54" type="line"/>
      <point x="42" y="0" type="line"/>
      <point x="723" y="0" type="line"/>
    </contour>
  </outline>
</glyph>
<glyph name="acute" format="1">
  <advance width="496"/>
  <unicode hex="00B4"/>
  <outline>
    <contour>
      <point x="269" y="1293" type="move" name="_top"/>
    </contour>
    <contour>
      <point x="308" y="1543" type="move" name="mkmktop_acc"/>
    </contour>
    <contour>
      <point x="226" y="1272" type="line"/>
      <point x="288" y="1271" type="line"/>
      <point x="517" y="1534" type="line"/>
      <point x="449" y="1535" type="line"/>
    </contour>
  </outline>
</glyph>
<glyph name="mu" format="1">
  <advance width="953"/>
  <unicode hex="00B5"/>
  <outline>
    <contour>
      <point x="821" y="1082" type="line"/>
      <point x="702" y="255" type="line"/>
      <point x="702" y="231" type="line"/>
      <point x="668" y="0" type="line"/>
      <point x="710" y="0" type="line"/>
      <point x="867" y="1082" type="line"/>
    </contour>
    <contour>
      <point x="740" y="503" type="line"/>
      <point x="708" y="256"/>
      <point x="604" y="34"/>
      <point x="365" y="34" type="curve" smooth="yes"/>
      <point x="169" y="34"/>
      <point x="154" y="256"/>
      <point x="179" y="439" type="curve"/>
      <point x="146" y="439" type="line"/>
      <point x="128" y="372" type="line"/>
      <point x="96" y="169"/>
      <point x="194" y="-20"/>
      <point x="373" y="-20" type="curve" smooth="yes"/>
      <point x="626" y="-19"/>
      <point x="743" y="231"/>
      <point x="783" y="505" type="curve"/>
    </contour>
    <contour>
      <point x="228" y="1082" type="line"/>
      <point x="12" y="-416" type="line"/>
      <point x="55" y="-416" type="line"/>
      <point x="158" y="290" type="line"/>
      <point x="160" y="309" type="line"/>
      <point x="272" y="1082" type="line"/>
    </contour>
  </outline>
</glyph>
<glyph name="paragraph" format="1">
  <advance width="811"/>
  <unicode hex="00B6"/>
  <outline>
    <contour>
      <point x="562" y="0" type="line"/>
      <point x="773" y="1456" type="line"/>
      <point x="622" y="1456" type="line" smooth="yes"/>
      <point x="385" y="1452"/>
      <point x="195" y="1270"/>
      <point x="157" y="988" type="curve" smooth="yes"/>
      <point x="118" y="711"/>
      <point x="262" y="524"/>
      <point x="494" y="520" type="curve" smooth="yes"/>
      <point x="591" y="520" type="line"/>
      <point x="516" y="0" type="line"/>
    </contour>
  </outline>
</glyph>
<glyph name="periodcentered" format="1">
  <advance width="425"/>
  <unicode hex="00B7"/>
  <outline>
    <contour>
      <point x="181" y="708" type="curve" smooth="yes"/>
      <point x="177" y="679"/>
      <point x="195" y="652"/>
      <point x="220" y="651" type="curve" smooth="yes"/>
      <point x="244" y="651"/>
      <point x="269" y="677"/>
      <point x="273" y="704" type="curve" smooth="yes"/>
      <point x="276" y="733"/>
      <point x="258" y="762"/>
      <point x="233" y="762" type="curve" smooth="yes"/>
      <point x="209" y="762"/>
      <point x="184" y="735"/>
    </contour>
  </outline>
</glyph>
<glyph name="cedilla" format="1">
  <advance width="439"/>
  <unicode hex="00B8"/>
  <outline>
    <contour>
      <point x="79" y="0" type="move" name="_bottom"/>
    </contour>
    <contour>
      <point x="16" y="-435" type="move" name="mkmkbottom_acc"/>
    </contour>
    <contour>
      <point x="57" y="0" type="line"/>
      <point x="20" y="-120" type="line"/>
      <point x="83" y="-130"/>
      <point x="175" y="-143"/>
      <point x="156" y="-245" type="curve" smooth="yes"/>
      <point x="136" y="-353"/>
      <point x="20" y="-382"/>
      <point x="-58" y="-386" type="curve"/>
      <point x="-59" y="-435" type="line"/>
      <point x="45" y="-430"/>
      <point x="184" y="-392"/>
      <point x="202" y="-245" type="curve" smooth="yes"/>
      <point x="215" y="-142"/>
      <point x="160" y="-90"/>
      <point x="80" y="-77" type="curve"/>
      <point x="102" y="0" type="line"/>
    </contour>
  </outline>
</glyph>
<glyph name="ordmasculine" format="1">
  <advance width="785"/>
  <unicode hex="00BA"/>
  <outline>
    <contour>
      <point x="202" y="1024" type="line" smooth="yes"/>
      <point x="180" y="852"/>
      <point x="246" y="690"/>
      <point x="407" y="690" type="curve" smooth="yes"/>
      <point x="569" y="691"/>
      <point x="673" y="847"/>
      <point x="700" y="1024" type="curve" smooth="yes"/>
      <point x="716" y="1141" type="line" smooth="yes"/>
      <point x="738" y="1313"/>
      <point x="673" y="1476"/>
      <point x="512" y="1476" type="curve" smooth="yes"/>
      <point x="351" y="1475"/>
      <point x="245" y="1318"/>
      <point x="218" y="1141" type="curve" smooth="yes"/>
    </contour>
    <contour>
      <point x="265" y="1141" type="line" smooth="yes"/>
      <point x="289" y="1289"/>
      <point x="376" y="1422"/>
      <point x="512" y="1422" type="curve" smooth="yes"/>
      <point x="649" y="1421"/>
      <point x="692" y="1282"/>
      <point x="672" y="1141" type="curve" smooth="yes"/>
      <point x="654" y="1024" type="line" smooth="yes"/>
      <point x="630" y="876"/>
      <point x="543" y="744"/>
      <point x="407" y="744" type="curve" smooth="yes"/>
      <point x="268" y="744"/>
      <point x="227" y="880"/>
      <point x="247" y="1024" type="curve" smooth="yes"/>
    </contour>
  </outline>
</glyph>
<glyph name="questiondown" format="1">
  <advance width="783"/>
  <unicode hex="00BF"/>
  <outline>
    <contour>
      <point x="408" y="695" type="line"/>
      <point x="390" y="583"/>
      <point x="364" y="516"/>
      <point x="288" y="445" type="curve" smooth="yes"/>
      <point x="160" y="326"/>
      <point x="45" y="183"/>
      <point x="18" y="-15" type="curve" smooth="yes"/>
      <point x="-9" y="-215"/>
      <point x="78" y="-381"/>
      <point x="257" y="-381" type="curve" smooth="yes"/>
      <point x="440" y="-381"/>
      <point x="560" y="-225"/>
      <point x="595" y="-22" type="curve"/>
      <point x="550" y="-22" type="line"/>
      <point x="515" y="-193"/>
      <point x="413" y="-328"/>
      <point x="257" y="-328" type="curve" smooth="yes"/>
      <point x="100" y="-328"/>
      <point x="37" y="-188"/>
      <point x="63" y="-17" type="curve" smooth="yes"/>
      <point x="92" y="169"/>
      <point x="196" y="286"/>
      <point x="312" y="403" type="curve" smooth="yes"/>
      <point x="399" y="490"/>
      <point x="433" y="562"/>
      <point x="453" y="695" type="curve"/>
    </contour>
    <contour>
      <point x="524" y="1044" type="curve" smooth="yes"/>
      <point x="528" y="1073"/>
      <point x="510" y="1100"/>
      <point x="485" y="1101" type="curve" smooth="yes"/>
      <point x="461" y="1101"/>
      <point x="436" y="1075"/>
      <point x="432" y="1048" type="curve" smooth="yes"/>
      <point x="429" y="1019"/>
      <point x="447" y="990"/>
      <point x="472" y="990" type="curve" smooth="yes"/>
      <point x="496" y="990"/>
      <point x="521" y="1017"/>
    </contour>
  </outline>
</glyph>
<glyph name="AE" format="1">
  <advance width="1520"/>
  <unicode hex="00C6"/>
  <outline>
    <contour>
      <point x="958" y="1612" type="move" name="top"/>
    </contour>
    <contour>
      <point x="1645" y="1600" type="move" name="top_dd"/>
    </contour>
    <contour>
      <point x="1647" y="1612" type="move" name="top0315"/>
    </contour>
    <contour>
      <point x="926" y="1408" type="line"/>
      <point x="944" y="1455" type="line"/>
      <point x="900" y="1455" type="line"/>
      <point x="-27" y="0" type="line"/>
      <point x="29" y="0" type="line"/>
      <point x="318" y="454" type="line"/>
      <point x="320" y="457" type="line"/>
    </contour>
    <contour>
      <point x="819" y="478" type="line"/>
      <point x="289" y="478" type="line"/>
      <point x="283" y="425" type="line"/>
      <point x="813" y="425" type="line"/>
    </contour>
    <contour>
      <point x="1381" y="54" type="line"/>
      <point x="783" y="54" type="line"/>
      <point x="776" y="0" type="line"/>
      <point x="1375" y="0" type="line"/>
    </contour>
    <contour>
      <point x="967" y="1456" type="line"/>
      <point x="923" y="1456" type="line"/>
      <point x="761" y="0" type="line"/>
      <point x="806" y="0" type="line"/>
    </contour>
    <contour>
      <point x="1371" y="786" type="line"/>
      <point x="857" y="786" type="line"/>
      <point x="850" y="732" type="line"/>
      <point x="1365" y="732" type="line"/>
    </contour>
    <contour>
      <point x="1535" y="1456" type="line"/>
      <point x="937" y="1456" type="line"/>
      <point x="931" y="1402" type="line"/>
      <point x="1529" y="1402" type="line"/>
    </contour>
  </outline>
</glyph>
<glyph name="Ccedilla" format="1">
  <advance width="1130"/>
  <unicode hex="00C7"/>
  <outline>
    <contour>
      <point x="722" y="1633" type="move" name="parent_top"/>
    </contour>
    <contour>
      <point x="1246" y="1600" type="move" name="top_dd"/>
    </contour>
    <contour>
      <point x="955" y="-407" type="move" name="bottom_dd"/>
    </contour>
    <contour>
      <point x="1251" y="1633" type="move" name="top0315"/>
    </contour>
    <contour>
      <point x="722" y="1633" type="move" name="top"/>
    </contour>
    <contour>
      <point x="421" y="-445" type="move" name="bottom"/>
    </contour>
    <component base="C"/>
    <component base="cedilla" xOffset="405" yOffset="-10"/>
  </outline>
</glyph>
<glyph name="Eacute" format="1">
  <advance width="998"/>
  <unicode hex="00C9"/>
  <outline>
    <contour>
      <point x="671" y="1612" type="move" name="parent_top"/>
    </contour>
    <contour>
      <point x="439" y="10" type="move" name="bottom"/>
    </contour>
    <contour>
      <point x="1115" y="1600" type="move" name="top_dd"/>
    </contour>
    <contour>
      <point x="824" y="-407" type="move" name="bottom_dd"/>
    </contour>
    <contour>
      <point x="1117" y="1612" type="move" name="top0315"/>
    </contour>
    <contour>
      <point x="708" y="1862" type="move" name="top"/>
    </contour>
    <component base="E"/>
    <component base="acute" xOffset="415" yOffset="319"/>
  </outline>
</glyph>
<glyph name="Ecircumflex" format="1">
  <advance width="998"/>
  <unicode hex="00CA"/>
  <outline>
    <contour>
      <point x="671" y="1612" type="move" name="parent_top"/>
    </contour>
    <contour>
      <point x="439" y="10" type="move" name="bottom"/>
    </contour>
    <contour>
      <point x="1115" y="1600" type="move" name="top_dd"/>
    </contour>
    <contour>
      <point x="824" y="-407" type="move" name="bottom_dd"/>
    </contour>
    <contour>
      <point x="1117" y="1612" type="move" name="top0315"/>
    </contour>
    <contour>
      <point x="717" y="1925" type="move" name="top"/>
    </contour>
    <component base="E"/>
    <component base="circumflex" xOffset="223" yOffset="319"/>
  </outline>
</glyph>
<glyph name="Iacute" format="1">
  <advance width="484"/>
  <unicode hex="00CD"/>
  <outline>
    <contour>
      <point x="385" y="1612" type="move" name="parent_top"/>
    </contour>
    <contour>
      <point x="151" y="0" type="move" name="bottom"/>
    </contour>
    <contour>
      <point x="600" y="1600" type="move" name="top_dd"/>
    </contour>
    <contour>
      <point x="309" y="-407" type="move" name="bottom_dd"/>
    </contour>
    <contour>
      <point x="602" y="1612" type="move" name="top0315"/>
    </contour>
    <contour>
      <point x="422" y="1862" type="move" name="top"/>
    </contour>
    <component base="I"/>
    <component base="acute" xOffset="129" yOffset="319"/>
  </outline>
</glyph>
<glyph name="Icircumflex" format="1">
  <advance width="484"/>
  <unicode hex="00CE"/>
  <outline>
    <contour>
      <point x="385" y="1612" type="move" name="parent_top"/>
    </contour>
    <contour>
      <point x="151" y="0" type="move" name="bottom"/>
    </contour>
    <contour>
      <point x="600" y="1600" type="move" name="top_dd"/>
    </contour>
    <contour>
      <point x="309" y="-407" type="move" name="bottom_dd"/>
    </contour>
    <contour>
      <point x="602" y="1612" type="move" name="top0315"/>
    </contour>
    <contour>
      <point x="431" y="1925" type="move" name="top"/>
    </contour>
    <component base="I"/>
    <component base="circumflex" xOffset="-63" yOffset="319"/>
  </outline>
</glyph>
<glyph name="Ntilde" format="1">
  <advance width="1229"/>
  <unicode hex="00D1"/>
  <outline>
    <contour>
      <point x="758" y="1612" type="move" name="parent_top"/>
    </contour>
    <contour>
      <point x="526" y="10" type="move" name="bottom"/>
    </contour>
    <contour>
      <point x="1346" y="1600" type="move" name="top_dd"/>
    </contour>
    <contour>
      <point x="1054" y="-407" type="move" name="bottom_dd"/>
    </contour>
    <contour>
      <point x="1348" y="1612" type="move" name="top0315"/>
    </contour>
    <contour>
      <point x="790" y="1844" type="move" name="top"/>
    </contour>
    <component base="N"/>
    <component base="tilde" xOffset="313" yOffset="334"/>
  </outline>
</glyph>
<glyph name="Ograve" format="1">
  <advance width="1160"/>
  <unicode hex="00D2"/>
  <outline>
    <contour>
      <point x="721" y="1633" type="move" name="parent_top"/>
    </contour>
    <contour>
      <point x="489" y="-2" type="move" name="bottom"/>
    </contour>
    <contour>
      <point x="1277" y="1600" type="move" name="top_dd"/>
    </contour>
    <contour>
      <point x="985" y="-407" type="move" name="bottom_dd"/>
    </contour>
    <contour>
      <point x="1281" y="1633" type="move" name="top0315"/>
    </contour>
    <contour>
      <point x="757" y="1883" type="move" name="top"/>
    </contour>
    <component base="O"/>
    <component base="grave" xOffset="307" yOffset="340"/>
  </outline>
</glyph>
<glyph name="Otilde" format="1">
  <advance width="1160"/>
  <unicode hex="00D5"/>
  <outline>
    <contour>
      <point x="721" y="1633" type="move" name="parent_top"/>
    </contour>
    <contour>
      <point x="489" y="-2" type="move" name="bottom"/>
    </contour>
    <contour>
      <point x="1277" y="1600" type="move" name="top_dd"/>
    </contour>
    <contour>
      <point x="985" y="-407" type="move" name="bottom_dd"/>
    </contour>
    <contour>
      <point x="1281" y="1633" type="move" name="top0315"/>
    </contour>
    <contour>
      <point x="752" y="1865" type="move" name="top"/>
    </contour>
    <component base="O"/>
    <component base="tilde" xOffset="276" yOffset="355"/>
  </outline>
</glyph>
<glyph name="multiply" format="1">
  <advance width="897"/>
  <unicode hex="00D7"/>
  <outline>
    <contour>
      <point x="47" y="-1" type="line"/>
      <point x="796" y="791" type="line"/>
      <point x="766" y="832" type="line"/>
      <point x="17" y="38" type="line"/>
    </contour>
    <contour>
      <point x="673" y="-1" type="line"/>
      <point x="708" y="34" type="line"/>
      <point x="185" y="832" type="line"/>
      <point x="149" y="795" type="line"/>
    </contour>
  </outline>
</glyph>
<glyph name="Oslash" format="1">
  <advance width="1151"/>
  <unicode hex="00D8"/>
  <outline>
    <contour>
      <point x="756" y="1674" type="move" name="top"/>
    </contour>
    <contour>
      <point x="1277" y="1600" type="move" name="top_dd"/>
    </contour>
    <contour>
      <point x="1287" y="1674" type="move" name="top0315"/>
    </contour>
    <contour>
      <point x="490" y="-20" type="curve" smooth="yes"/>
      <point x="792" y="-20"/>
      <point x="978" y="294"/>
      <point x="1027" y="619" type="curve" smooth="yes"/>
      <point x="1058" y="837" type="line" smooth="yes"/>
      <point x="1079" y="986"/>
      <point x="1074" y="1139"/>
      <point x="1015" y="1275" type="curve"/>
      <point x="1162" y="1493" type="line"/>
      <point x="1104" y="1494" type="line"/>
      <point x="987" y="1320" type="line"/>
      <point x="917" y="1428"/>
      <point x="811" y="1476"/>
      <point x="699" y="1476" type="curve" smooth="yes"/>
      <point x="397" y="1476"/>
      <point x="211" y="1161"/>
      <point x="162" y="837" type="curve" smooth="yes"/>
      <point x="131" y="619" type="line" smooth="yes"/>
      <point x="107" y="451"/>
      <point x="117" y="273"/>
      <point x="202" y="131" type="curve"/>
      <point x="65" y="-73" type="line"/>
      <point x="122" y="-74" type="line"/>
      <point x="235" y="92" type="line"/>
      <point x="306" y="14"/>
      <point x="395" y="-20"/>
    </contour>
    <contour>
      <point x="177" y="619" type="curve" smooth="yes"/>
      <point x="209" y="839" type="line" smooth="yes"/>
      <point x="254" y="1134"/>
      <point x="424" y="1422"/>
      <point x="699" y="1422" type="curve" smooth="yes"/>
      <point x="803" y="1422"/>
      <point x="899" y="1377"/>
      <point x="961" y="1275" type="curve"/>
      <point x="230" y="177" type="line"/>
      <point x="158" y="309"/>
      <point x="155" y="469"/>
    </contour>
    <contour>
      <point x="1014" y="839" type="curve" smooth="yes"/>
      <point x="981" y="619" type="line" smooth="yes"/>
      <point x="936" y="322"/>
      <point x="767" y="34"/>
      <point x="490" y="34" type="curve" smooth="yes"/>
      <point x="405" y="34"/>
      <point x="322" y="64"/>
      <point x="261" y="137" type="curve"/>
      <point x="987" y="1227" type="line"/>
      <point x="1031" y="1104"/>
      <point x="1032" y="970"/>
    </contour>
  </outline>
</glyph>
<glyph name="Udieresis" format="1">
  <advance width="1161"/>
  <unicode hex="00DC"/>
  <outline>
    <contour>
      <point x="735" y="1612" type="move" name="parent_top"/>
    </contour>
    <contour>
      <point x="489" y="0" type="move" name="bottom"/>
    </contour>
    <contour>
      <point x="1277" y="1600" type="move" name="top_dd"/>
    </contour>
    <contour>
      <point x="986" y="-407" type="move" name="bottom_dd"/>
    </contour>
    <contour>
      <point x="1279" y="1612" type="move" name="top0315"/>
    </contour>
    <contour>
      <point x="771" y="1859" type="move" name="top"/>
    </contour>
    <component base="U"/>
    <component base="dieresis" xOffset="248" yOffset="319"/>
  </outline>
</glyph>
<glyph name="Yacute" format="1">
  <advance width="1045"/>
  <unicode hex="00DD"/>
  <outline>
    <contour>
      <point x="661" y="1601" type="move" name="parent_top"/>
    </contour>
    <contour>
      <point x="433" y="10" type="move" name="bottom"/>
    </contour>
    <contour>
      <point x="1162" y="1600" type="move" name="top_dd"/>
    </contour>
    <contour>
      <point x="870" y="-407" type="move" name="bottom_dd"/>
    </contour>
    <contour>
      <point x="1162" y="1601" type="move" name="top0315"/>
    </contour>
    <contour>
      <point x="697" y="1851" type="move" name="top"/>
    </contour>
    <component base="Y"/>
    <component base="acute" xOffset="405" yOffset="308"/>
  </outline>
</glyph>
<glyph name="Thorn" format="1">
  <advance width="1033"/>
  <unicode hex="00DE"/>
  <outline>
    <contour>
      <point x="307" y="1456" type="line"/>
      <point x="96" y="0" type="line"/>
      <point x="141" y="0" type="line"/>
      <point x="352" y="1456" type="line"/>
    </contour>
    <contour>
      <point x="276" y="1143" type="line"/>
      <point x="281" y="1089" type="line"/>
      <point x="605" y="1089" type="line" smooth="yes"/>
      <point x="779" y="1085"/>
      <point x="905" y="952"/>
      <point x="871" y="736" type="curve" smooth="yes"/>
      <point x="837" y="519"/>
      <point x="672" y="392"/>
      <point x="494" y="388" type="curve" smooth="yes"/>
      <point x="162" y="388" type="line"/>
      <point x="155" y="334" type="line"/>
      <point x="495" y="334" type="line" smooth="yes"/>
      <point x="703" y="338"/>
      <point x="882" y="485"/>
      <point x="917" y="738" type="curve" smooth="yes"/>
      <point x="951" y="988"/>
      <point x="806" y="1139"/>
      <point x="604" y="1143" type="curve" smooth="yes"/>
    </contour>
  </outline>
</glyph>
<glyph name="germandbls" format="1">
  <advance width="1004"/>
  <unicode hex="00DF"/>
  <outline>
    <contour>
      <point x="278" y="1143" type="line" smooth="yes"/>
      <point x="307" y="1323"/>
      <point x="393" y="1484"/>
      <point x="562" y="1481" type="curve" smooth="yes"/>
      <point x="663" y="1479"/>
      <point x="740" y="1379"/>
      <point x="722" y="1259" type="curve" smooth="yes"/>
      <point x="699" y="1102"/>
      <point x="587" y="992"/>
      <point x="567" y="831" type="curve" smooth="yes"/>
      <point x="538" y="596"/>
      <point x="835" y="536"/>
      <point x="798" y="306" type="curve" smooth="yes"/>
      <point x="772" y="141"/>
      <point x="628" y="33"/>
      <point x="493" y="32" type="curve" smooth="yes"/>
      <point x="419" y="32"/>
      <point x="337" y="59"/>
      <point x="280" y="116" type="curve"/>
      <point x="254" y="69" type="line"/>
      <point x="318" y="3"/>
      <point x="417" y="-21"/>
      <point x="500" y="-21" type="curve" smooth="yes"/>
      <point x="653" y="-20"/>
      <point x="817" y="110"/>
      <point x="842" y="297" type="curve" smooth="yes"/>
      <point x="875" y="542"/>
      <point x="580" y="608"/>
      <point x="612" y="829" type="curve" smooth="yes"/>
      <point x="635" y="989"/>
      <point x="751" y="1097"/>
      <point x="772" y="1257" type="curve" smooth="yes"/>
      <point x="792" y="1417"/>
      <point x="684" y="1534"/>
      <point x="554" y="1535" type="curve" smooth="yes"/>
      <point x="362" y="1536"/>
      <point x="263" y="1347"/>
      <point x="232" y="1143" type="curve" smooth="yes"/>
      <point x="67" y="0" type="line"/>
      <point x="112" y="0" type="line"/>
    </contour>
  </outline>
</glyph>
<glyph name="aring" format="1">
  <advance width="929"/>
  <unicode hex="00E5"/>
  <outline>
    <contour>
      <point x="591" y="1292" type="move" name="parent_top"/>
    </contour>
    <contour>
      <point x="346" y="0" type="move" name="bottom"/>
    </contour>
    <contour>
      <point x="1046" y="1600" type="move" name="top_dd"/>
    </contour>
    <contour>
      <point x="755" y="-407" type="move" name="bottom_dd"/>
    </contour>
    <contour>
      <point x="1001" y="1292" type="move" name="top0315"/>
    </contour>
    <contour>
      <point x="638" y="1616" type="move" name="top"/>
    </contour>
    <component base="a"/>
    <component base="ring" xOffset="239" yOffset="-1"/>
  </outline>
</glyph>
<glyph name="ae" format="1">
  <advance width="1454"/>
  <unicode hex="00E6"/>
  <outline>
    <contour>
      <point x="820" y="1291" type="move" name="top"/>
    </contour>
    <contour>
      <point x="1579" y="1600" type="move" name="top_dd"/>
    </contour>
    <contour>
      <point x="1534" y="1291" type="move" name="top0315"/>
    </contour>
    <contour>
      <point x="622" y="195" type="line"/>
      <point x="674" y="217" type="line"/>
      <point x="745" y="718" type="line"/>
      <point x="774" y="923"/>
      <point x="705" y="1102"/>
      <point x="514" y="1102" type="curve" smooth="yes"/>
      <point x="341" y="1102"/>
      <point x="180" y="989"/>
      <point x="144" y="779" type="curve"/>
      <point x="188" y="772" type="line"/>
      <point x="223" y="953"/>
      <point x="364" y="1048"/>
      <point x="514" y="1048" type="curve" smooth="yes"/>
      <point x="681" y="1047"/>
      <point x="726" y="894"/>
      <point x="700" y="720" type="curve" smooth="yes"/>
    </contour>
    <contour>
      <point x="707" y="630" type="line"/>
      <point x="447" y="630" type="line" smooth="yes"/>
      <point x="261" y="627"/>
      <point x="81" y="520"/>
      <point x="49" y="284" type="curve" smooth="yes"/>
      <point x="23" y="87"/>
      <point x="144" y="-20"/>
      <point x="299" y="-20" type="curve" smooth="yes"/>
      <point x="447" y="-20"/>
      <point x="594" y="66"/>
      <point x="674" y="217" type="curve"/>
      <point x="627" y="228" type="line"/>
      <point x="567" y="104"/>
      <point x="413" y="33"/>
      <point x="298" y="32" type="curve" smooth="yes"/>
      <point x="169" y="32"/>
      <point x="69" y="116"/>
      <point x="95" y="280" type="curve" smooth="yes"/>
      <point x="127" y="481"/>
      <point x="291" y="572"/>
      <point x="449" y="575" type="curve" smooth="yes"/>
      <point x="701" y="575" type="line"/>
    </contour>
    <contour>
      <point x="968" y="-20" type="curve" smooth="yes"/>
      <point x="1086" y="-20"/>
      <point x="1191" y="27"/>
      <point x="1279" y="120" type="curve"/>
      <point x="1258" y="164" type="line"/>
      <point x="1175" y="84"/>
      <point x="1076" y="34"/>
      <point x="967" y="34" type="curve" smooth="yes"/>
      <point x="739" y="35"/>
      <point x="683" y="269"/>
      <point x="716" y="500" type="curve"/>
      <point x="731" y="604" type="line"/>
      <point x="767" y="788"/>
      <point x="893" y="1048"/>
      <point x="1110" y="1048" type="curve" smooth="yes"/>
      <point x="1297" y="1048"/>
      <point x="1365" y="860"/>
      <point x="1334" y="664" type="curve" smooth="yes"/>
      <point x="1328" y="632" type="line"/>
      <point x="716" y="632" type="line"/>
      <point x="710" y="577" type="line"/>
      <point x="1367" y="577" type="line"/>
      <point x="1380" y="660" type="line" smooth="yes"/>
      <point x="1411" y="892"/>
      <point x="1327" y="1103"/>
      <point x="1110" y="1102" type="curve" smooth="yes"/>
      <point x="875" y="1101"/>
      <point x="712" y="820"/>
      <point x="678" y="564" type="curve" smooth="yes"/>
      <point x="667" y="479" type="line" smooth="yes"/>
      <point x="632" y="219"/>
      <point x="726" y="-19"/>
    </contour>
  </outline>
</glyph>
<glyph name="ccedilla" format="1">
  <advance width="895"/>
  <unicode hex="00E7"/>
  <outline>
    <contour>
      <point x="566" y="1290" type="move" name="parent_top"/>
    </contour>
    <contour>
      <point x="1012" y="1600" type="move" name="top_dd"/>
    </contour>
    <contour>
      <point x="720" y="-407" type="move" name="bottom_dd"/>
    </contour>
    <contour>
      <point x="967" y="1290" type="move" name="top0315"/>
    </contour>
    <contour>
      <point x="566" y="1290" type="move" name="top"/>
    </contour>
    <contour>
      <point x="314" y="-445" type="move" name="bottom"/>
    </contour>
    <component base="c"/>
    <component base="cedilla" xOffset="298" yOffset="-10"/>
  </outline>
</glyph>
<glyph name="eacute" format="1">
  <advance width="889"/>
  <unicode hex="00E9"/>
  <outline>
    <contour>
      <point x="582" y="1291" type="move" name="parent_top"/>
    </contour>
    <contour>
      <point x="394" y="4" type="move" name="bottom"/>
    </contour>
    <contour>
      <point x="1006" y="1600" type="move" name="top_dd"/>
    </contour>
    <contour>
      <point x="715" y="-407" type="move" name="bottom_dd"/>
    </contour>
    <contour>
      <point x="961" y="1291" type="move" name="top0315"/>
    </contour>
    <contour>
      <point x="619" y="1541" type="move" name="top"/>
    </contour>
    <component base="e"/>
    <component base="acute" xOffset="326" yOffset="-2"/>
  </outline>
</glyph>
<glyph name="ecircumflex" format="1">
  <advance width="889"/>
  <unicode hex="00EA"/>
  <outline>
    <contour>
      <point x="582" y="1291" type="move" name="parent_top"/>
    </contour>
    <contour>
      <point x="394" y="4" type="move" name="bottom"/>
    </contour>
    <contour>
      <point x="1006" y="1600" type="move" name="top_dd"/>
    </contour>
    <contour>
      <point x="715" y="-407" type="move" name="bottom_dd"/>
    </contour>
    <contour>
      <point x="961" y="1291" type="move" name="top0315"/>
    </contour>
    <contour>
      <point x="628" y="1604" type="move" name="top"/>
    </contour>
    <component base="e"/>
    <component base="circumflex" xOffset="134" yOffset="-2"/>
  </outline>
</glyph>
<glyph name="iacute" format="1">
  <advance width="379"/>
  <unicode hex="00ED"/>
  <outline>
    <contour>
      <point x="287" y="1269" type="move" name="parent_top"/>
    </contour>
    <contour>
      <point x="105" y="10" type="move" name="bottom"/>
    </contour>
    <contour>
      <point x="448" y="1269" type="move" name="top0315"/>
    </contour>
    <contour>
      <point x="324" y="1519" type="move" name="top"/>
    </contour>
    <component base="dotlessi"/>
    <component base="acute" xOffset="32" yOffset="-24"/>
  </outline>
</glyph>
<glyph name="eth" format="1">
  <advance width="1004"/>
  <unicode hex="00F0"/>
  <outline>
    <contour>
      <point x="430" y="1528" type="line"/>
      <point x="800" y="1359"/>
      <point x="887" y="1042"/>
      <point x="826" y="617" type="curve" smooth="yes"/>
      <point x="814" y="535" type="line" smooth="yes"/>
      <point x="780" y="318"/>
      <point x="666" y="39"/>
      <point x="450" y="38" type="curve" smooth="yes"/>
      <point x="251" y="38"/>
      <point x="155" y="250"/>
      <point x="187" y="465" type="curve" smooth="yes"/>
      <point x="221" y="693"/>
      <point x="348" y="894"/>
      <point x="557" y="895" type="curve" smooth="yes"/>
      <point x="712" y="895"/>
      <point x="861" y="774"/>
      <point x="838" y="574" type="curve"/>
      <point x="865" y="583" type="line"/>
      <point x="889" y="820"/>
      <point x="739" y="953"/>
      <point x="557" y="953" type="curve" smooth="yes"/>
      <point x="320" y="953"/>
      <point x="176" y="726"/>
      <point x="141" y="465" type="curve" smooth="yes"/>
      <point x="107" y="220"/>
      <point x="222" y="-21"/>
      <point x="447" y="-20" type="curve" smooth="yes"/>
      <point x="690" y="-19"/>
      <point x="823" y="288"/>
      <point x="860" y="535" type="curve" smooth="yes"/>
      <point x="871" y="615" type="line" smooth="yes"/>
      <point x="933" y="1058"/>
      <point x="845" y="1392"/>
      <point x="451" y="1576" type="curve"/>
    </contour>
    <contour>
      <point x="947" y="1411" type="line"/>
      <point x="927" y="1461" type="line"/>
      <point x="505" y="1199" type="line"/>
      <point x="523" y="1149" type="line"/>
    </contour>
  </outline>
</glyph>
<glyph name="ntilde" format="1">
  <advance width="962"/>
  <unicode hex="00F1"/>
  <outline>
    <contour>
      <point x="591" y="1290" type="move" name="parent_top"/>
    </contour>
    <contour>
      <point x="405" y="10" type="move" name="bottom"/>
    </contour>
    <contour>
      <point x="1079" y="1600" type="move" name="top_dd"/>
    </contour>
    <contour>
      <point x="787" y="-407" type="move" name="bottom_dd"/>
    </contour>
    <contour>
      <point x="1034" y="1290" type="move" name="top0315"/>
    </contour>
    <contour>
      <point x="622" y="1522" type="move" name="top"/>
    </contour>
    <component base="n"/>
    <component base="tilde" xOffset="146" yOffset="12"/>
  </outline>
</glyph>
<glyph name="otilde" format="1">
  <advance width="967"/>
  <unicode hex="00F5"/>
  <outline>
    <contour>
      <point x="582" y="1290" type="move" name="parent_top"/>
    </contour>
    <contour>
      <point x="393" y="-10" type="move" name="bottom"/>
    </contour>
    <contour>
      <point x="1083" y="1600" type="move" name="top_dd"/>
    </contour>
    <contour>
      <point x="792" y="-407" type="move" name="bottom_dd"/>
    </contour>
    <contour>
      <point x="1038" y="1290" type="move" name="top0315"/>
    </contour>
    <contour>
      <point x="613" y="1522" type="move" name="top"/>
    </contour>
    <component base="o"/>
    <component base="tilde" xOffset="137" yOffset="12"/>
  </outline>
</glyph>
<glyph name="divide" format="1">
  <advance width="984"/>
  <unicode hex="00F7"/>
  <outline>
    <contour>
      <point x="913" y="738" type="line"/>
      <point x="98" y="738" type="line"/>
      <point x="92" y="686" type="line"/>
      <point x="907" y="686" type="line"/>
    </contour>
    <contour>
      <point x="520" y="1081" type="curve" smooth="yes"/>
      <point x="517" y="1052"/>
      <point x="535" y="1025"/>
      <point x="560" y="1024" type="curve" smooth="yes"/>
      <point x="583" y="1024"/>
      <point x="608" y="1050"/>
      <point x="612" y="1077" type="curve" smooth="yes"/>
      <point x="616" y="1106"/>
      <point x="597" y="1135"/>
      <point x="572" y="1135" type="curve" smooth="yes"/>
      <point x="548" y="1135"/>
      <point x="524" y="1108"/>
    </contour>
    <contour>
      <point x="407" y="303" type="curve" smooth="yes"/>
      <point x="403" y="274"/>
      <point x="422" y="247"/>
      <point x="447" y="246" type="curve" smooth="yes"/>
      <point x="470" y="246"/>
      <point x="495" y="272"/>
      <point x="499" y="299" type="curve" smooth="yes"/>
      <point x="503" y="328"/>
      <point x="484" y="357"/>
      <point x="459" y="357" type="curve" smooth="yes"/>
      <point x="435" y="357"/>
      <point x="411" y="330"/>
    </contour>
  </outline>
</glyph>
<glyph name="oslash" format="1">
  <advance width="953"/>
  <unicode hex="00F8"/>
  <outline>
    <contour>
      <point x="536" y="1289" type="move" name="top"/>
    </contour>
    <contour>
      <point x="1079" y="1600" type="move" name="top_dd"/>
    </contour>
    <contour>
      <point x="1033" y="1289" type="move" name="top0315"/>
    </contour>
    <contour>
      <point x="869" y="1218" type="line"/>
      <point x="815" y="1218" type="line"/>
      <point x="716" y="1037" type="line"/>
      <point x="706" y="1015" type="line"/>
      <point x="209" y="97" type="line"/>
      <point x="196" y="72" type="line"/>
      <point x="79" y="-144" type="line"/>
      <point x="133" y="-144" type="line"/>
      <point x="233" y="42" type="line"/>
      <point x="243" y="61" type="line"/>
      <point x="742" y="980" type="line"/>
      <point x="751" y="1000" type="line"/>
    </contour>
    <contour>
      <point x="80" y="526" type="line" smooth="yes"/>
      <point x="38" y="219"/>
      <point x="148" y="-20"/>
      <point x="400" y="-20" type="curve" smooth="yes"/>
      <point x="659" y="-20"/>
      <point x="827" y="297"/>
      <point x="853" y="523" type="curve" smooth="yes"/>
      <point x="857" y="560" type="line" smooth="yes"/>
      <point x="892" y="861"/>
      <point x="793" y="1102"/>
      <point x="544" y="1102" type="curve" smooth="yes"/>
      <point x="292" y="1102"/>
      <point x="124" y="837"/>
      <point x="86" y="562" type="curve" smooth="yes"/>
    </contour>
    <contour>
      <point x="132" y="562" type="line" smooth="yes"/>
      <point x="167" y="802"/>
      <point x="321" y="1047"/>
      <point x="543" y="1047" type="curve" smooth="yes"/>
      <point x="765" y="1047"/>
      <point x="849" y="812"/>
      <point x="814" y="562" type="curve" smooth="yes"/>
      <point x="808" y="520" type="line" smooth="yes"/>
      <point x="779" y="318"/>
      <point x="624" y="34"/>
      <point x="400" y="34" type="curve" smooth="yes"/>
      <point x="175" y="34"/>
      <point x="89" y="258"/>
      <point x="126" y="520" type="curve" smooth="yes"/>
    </contour>
  </outline>
</glyph>
<glyph name="thorn" format="1">
  <advance width="953"/>
  <unicode hex="00FE"/>
  <outline>
    <contour>
      <point x="339" y="1536" type="line"/>
      <point x="294" y="1536" type="line"/>
      <point x="11" y="-416" type="line"/>
      <point x="56" y="-416" type="line"/>
      <point x="146" y="204" type="line"/>
      <point x="149" y="226" type="line"/>
      <point x="239" y="849" type="line"/>
      <point x="239" y="865" type="line"/>
    </contour>
    <contour>
      <point x="828" y="552" type="line" smooth="yes"/>
      <point x="860" y="789"/>
      <point x="825" y="1102"/>
      <point x="571" y="1102" type="curve" smooth="yes"/>
      <point x="394" y="1102"/>
      <point x="235" y="946"/>
      <point x="179" y="745" type="curve" smooth="yes"/>
      <point x="116" y="305" type="line"/>
      <point x="117" y="105"/>
      <point x="254" y="-20"/>
      <point x="417" y="-20" type="curve" smooth="yes"/>
      <point x="665" y="-20"/>
      <point x="788" y="279"/>
      <point x="825" y="531" type="curve" smooth="yes"/>
    </contour>
    <contour>
      <point x="779" y="531" type="line" smooth="yes"/>
      <point x="744" y="308"/>
      <point x="640" y="34"/>
      <point x="418" y="34" type="curve" smooth="yes"/>
      <point x="271" y="34"/>
      <point x="147" y="143"/>
      <point x="149" y="330" type="curve"/>
      <point x="205" y="709" type="line"/>
      <point x="257" y="910"/>
      <point x="405" y="1048"/>
      <point x="572" y="1048" type="curve" smooth="yes"/>
      <point x="798" y="1048"/>
      <point x="810" y="753"/>
      <point x="782" y="552" type="curve" smooth="yes"/>
    </contour>
  </outline>
</glyph>
<glyph name="amacron" format="1">
  <advance width="929"/>
  <unicode hex="0101"/>
  <outline>
    <contour>
      <point x="591" y="1292" type="move" name="parent_top"/>
    </contour>
    <contour>
      <point x="346" y="0" type="move" name="bottom"/>
    </contour>
    <contour>
      <point x="1046" y="1600" type="move" name="top_dd"/>
    </contour>
    <contour>
      <point x="755" y="-407" type="move" name="bottom_dd"/>
    </contour>
    <contour>
      <point x="1001" y="1292" type="move" name="top0315"/>
    </contour>
    <contour>
      <point x="628" y="1550" type="move" name="top"/>
    </contour>
    <component base="a"/>
    <component base="macron" xOffset="135" yOffset="10"/>
  </outline>
</glyph>
<glyph name="cacute" format="1">
  <advance width="895"/>
  <unicode hex="0107"/>
  <outline>
    <contour>
      <point x="566" y="1290" type="move" name="parent_top"/>
    </contour>
    <contour>
      <point x="377" y="-10" type="move" name="bottom"/>
    </contour>
    <contour>
      <point x="1012" y="1600" type="move" name="top_dd"/>
    </contour>
    <contour>
      <point x="720" y="-407" type="move" name="bottom_dd"/>
    </contour>
    <contour>
      <point x="967" y="1290" type="move" name="top0315"/>
    </contour>
    <contour>
      <point x="602" y="1540" type="move" name="top"/>
    </contour>
    <component base="c"/>
    <component base="acute" xOffset="310" yOffset="-3"/>
  </outline>
</glyph>
<glyph name="uni010A" format="1">
  <advance width="1130"/>
  <unicode hex="010A"/>
  <outline>
    <contour>
      <point x="722" y="1633" type="move" name="parent_top"/>
    </contour>
    <contour>
      <point x="484" y="-10" type="move" name="bottom"/>
    </contour>
    <contour>
      <point x="1246" y="1600" type="move" name="top_dd"/>
    </contour>
    <contour>
      <point x="955" y="-407" type="move" name="bottom_dd"/>
    </contour>
    <contour>
      <point x="1251" y="1633" type="move" name="top0315"/>
    </contour>
    <contour>
      <point x="754" y="1853" type="move" name="top"/>
    </contour>
    <component base="C"/>
    <component base="dotaccent" xOffset="430" yOffset="340"/>
  </outline>
</glyph>
<glyph name="uni010B" format="1">
  <advance width="895"/>
  <unicode hex="010B"/>
  <outline>
    <contour>
      <point x="566" y="1290" type="move" name="parent_top"/>
    </contour>
    <contour>
      <point x="377" y="-10" type="move" name="bottom"/>
    </contour>
    <contour>
      <point x="1012" y="1600" type="move" name="top_dd"/>
    </contour>
    <contour>
      <point x="720" y="-407" type="move" name="bottom_dd"/>
    </contour>
    <contour>
      <point x="967" y="1290" type="move" name="top0315"/>
    </contour>
    <contour>
      <point x="598" y="1510" type="move" name="top"/>
    </contour>
    <component base="c"/>
    <component base="dotaccent" xOffset="273" yOffset="-3"/>
  </outline>
</glyph>
<glyph name="Ccaron" format="1">
  <advance width="1130"/>
  <unicode hex="010C"/>
  <outline>
    <contour>
      <point x="722" y="1633" type="move" name="parent_top"/>
    </contour>
    <contour>
      <point x="484" y="-10" type="move" name="bottom"/>
    </contour>
    <contour>
      <point x="1246" y="1600" type="move" name="top_dd"/>
    </contour>
    <contour>
      <point x="955" y="-407" type="move" name="bottom_dd"/>
    </contour>
    <contour>
      <point x="1251" y="1633" type="move" name="top0315"/>
    </contour>
    <contour>
      <point x="759" y="1885" type="move" name="top"/>
    </contour>
    <component base="C"/>
    <component base="caron" xOffset="279" yOffset="345"/>
  </outline>
</glyph>
<glyph name="ccaron" format="1">
  <advance width="895"/>
  <unicode hex="010D"/>
  <outline>
    <contour>
      <point x="566" y="1290" type="move" name="parent_top"/>
    </contour>
    <contour>
      <point x="377" y="-10" type="move" name="bottom"/>
    </contour>
    <contour>
      <point x="1012" y="1600" type="move" name="top_dd"/>
    </contour>
    <contour>
      <point x="720" y="-407" type="move" name="bottom_dd"/>
    </contour>
    <contour>
      <point x="967" y="1290" type="move" name="top0315"/>
    </contour>
    <contour>
      <point x="602" y="1542" type="move" name="top"/>
    </contour>
    <component base="c"/>
    <component base="caron" xOffset="123" yOffset="2"/>
  </outline>
</glyph>
<glyph name="Dcaron" format="1">
  <advance width="1140"/>
  <unicode hex="010E"/>
  <outline>
    <contour>
      <point x="648" y="1612" type="move" name="parent_top"/>
    </contour>
    <contour>
      <point x="415" y="10" type="move" name="bottom"/>
    </contour>
    <contour>
      <point x="1257" y="1600" type="move" name="top_dd"/>
    </contour>
    <contour>
      <point x="966" y="-407" type="move" name="bottom_dd"/>
    </contour>
    <contour>
      <point x="1259" y="1612" type="move" name="top0315"/>
    </contour>
    <contour>
      <point x="684" y="1864" type="move" name="top"/>
    </contour>
    <component base="D"/>
    <component base="caron" xOffset="204" yOffset="324"/>
  </outline>
</glyph>
<glyph name="dcaron" format="1">
  <advance width="1084"/>
  <unicode hex="010F"/>
  <outline>
    <contour>
      <point x="419" y="0" type="move" name="bottom"/>
    </contour>
    <contour>
      <point x="605" y="1620" type="move" name="parent_top"/>
    </contour>
    <contour>
      <point x="1201" y="1600" type="move" name="top_dd"/>
    </contour>
    <contour>
      <point x="909" y="-407" type="move" name="bottom_dd"/>
    </contour>
    <contour>
      <point x="1204" y="1620" type="move" name="top0315"/>
    </contour>
    <contour>
      <point x="605" y="1620" type="move" name="top"/>
    </contour>
    <component base="d"/>
    <component base="commaaccent" xOffset="958" yOffset="1420"/>
  </outline>
</glyph>
<glyph name="Dcroat" format="1">
  <advance width="1165"/>
  <unicode hex="0110"/>
  <outline>
    <contour>
      <point x="648" y="1612" type="move" name="parent_top"/>
    </contour>
    <contour>
      <point x="415" y="10" type="move" name="bottom"/>
    </contour>
    <contour>
      <point x="1281" y="1600" type="move" name="top_dd"/>
    </contour>
    <contour>
      <point x="990" y="-407" type="move" name="bottom_dd"/>
    </contour>
    <contour>
      <point x="1283" y="1612" type="move" name="top0315"/>
    </contour>
    <contour>
      <point x="648" y="1612" type="move" name="top"/>
    </contour>
    <component base="D" xOffset="24"/>
    <component base="crossbar" xOffset="-16" yOffset="-8"/>
  </outline>
</glyph>
<glyph name="dcroat" format="1">
  <advance width="953"/>
  <unicode hex="0111"/>
  <outline>
    <contour>
      <point x="1054" y="1536" type="move" name="caron"/>
    </contour>
    <contour>
      <point x="419" y="0" type="move" name="bottom"/>
    </contour>
    <contour>
      <point x="604" y="1612" type="move" name="top"/>
    </contour>
    <contour>
      <point x="1079" y="1600" type="move" name="top_dd"/>
    </contour>
    <contour>
      <point x="787" y="-407" type="move" name="bottom_dd"/>
    </contour>
    <contour>
      <point x="419" y="0" type="move" name="markbottom"/>
    </contour>
    <contour>
      <point x="1080" y="1612" type="move" name="top0315"/>
    </contour>
    <contour>
      <point x="787" y="1307" type="move" name="parenthesses.w2"/>
    </contour>
    <contour>
      <point x="1032" y="1335" type="line"/>
      <point x="553" y="1335" type="line"/>
      <point x="547" y="1281" type="line"/>
      <point x="1026" y="1281" type="line"/>
    </contour>
    <contour>
      <point x="694" y="210" type="line"/>
      <point x="695" y="189" type="line"/>
      <point x="663" y="0" type="line"/>
      <point x="709" y="0" type="line"/>
      <point x="931" y="1536" type="line"/>
      <point x="886" y="1536" type="line"/>
      <point x="785" y="844" type="line"/>
      <point x="782" y="814" type="line"/>
    </contour>
    <contour>
      <point x="109" y="531" type="line" smooth="yes"/>
      <point x="78" y="298"/>
      <point x="113" y="-20"/>
      <point x="364" y="-20" type="curve" smooth="yes"/>
      <point x="534" y="-20"/>
      <point x="695" y="107"/>
      <point x="750" y="304" type="curve" smooth="yes"/>
      <point x="813" y="745" type="line" smooth="yes"/>
      <point x="803" y="968"/>
      <point x="687" y="1102"/>
      <point x="521" y="1102" type="curve" smooth="yes"/>
      <point x="270" y="1102"/>
      <point x="150" y="807"/>
      <point x="112" y="552" type="curve" smooth="yes"/>
    </contour>
    <contour>
      <point x="159" y="552" type="line" smooth="yes"/>
      <point x="194" y="775"/>
      <point x="298" y="1047"/>
      <point x="521" y="1048" type="curve" smooth="yes"/>
      <point x="687" y="1048"/>
      <point x="778" y="910"/>
      <point x="782" y="709" type="curve"/>
      <point x="725" y="329" type="line"/>
      <point x="668" y="148"/>
      <point x="516" y="33"/>
      <point x="363" y="34" type="curve" smooth="yes"/>
      <point x="138" y="36"/>
      <point x="127" y="331"/>
      <point x="156" y="531" type="curve" smooth="yes"/>
    </contour>
  </outline>
</glyph>
<glyph name="Emacron" format="1">
  <advance width="998"/>
  <unicode hex="0112"/>
  <outline>
    <contour>
      <point x="671" y="1612" type="move" name="parent_top"/>
    </contour>
    <contour>
      <point x="439" y="10" type="move" name="bottom"/>
    </contour>
    <contour>
      <point x="1115" y="1600" type="move" name="top_dd"/>
    </contour>
    <contour>
      <point x="824" y="-407" type="move" name="bottom_dd"/>
    </contour>
    <contour>
      <point x="1117" y="1612" type="move" name="top0315"/>
    </contour>
    <contour>
      <point x="709" y="1870" type="move" name="top"/>
    </contour>
    <component base="E"/>
    <component base="macron" xOffset="216" yOffset="330"/>
  </outline>
</glyph>
<glyph name="Edotaccent" format="1">
  <advance width="998"/>
  <unicode hex="0116"/>
  <outline>
    <contour>
      <point x="671" y="1612" type="move" name="parent_top"/>
    </contour>
    <contour>
      <point x="439" y="10" type="move" name="bottom"/>
    </contour>
    <contour>
      <point x="1115" y="1600" type="move" name="top_dd"/>
    </contour>
    <contour>
      <point x="824" y="-407" type="move" name="bottom_dd"/>
    </contour>
    <contour>
      <point x="1117" y="1612" type="move" name="top0315"/>
    </contour>
    <contour>
      <point x="703" y="1832" type="move" name="top"/>
    </contour>
    <component base="E"/>
    <component base="dotaccent" xOffset="379" yOffset="319"/>
  </outline>
</glyph>
<glyph name="eogonek" format="1">
  <advance width="889"/>
  <unicode hex="0119"/>
  <outline>
    <contour>
      <point x="582" y="1291" type="move" name="parent_top"/>
    </contour>
    <contour>
      <point x="394" y="4" type="move" name="bottom"/>
    </contour>
    <contour>
      <point x="1006" y="1600" type="move" name="top_dd"/>
    </contour>
    <contour>
      <point x="715" y="-407" type="move" name="bottom_dd"/>
    </contour>
    <contour>
      <point x="961" y="1291" type="move" name="top0315"/>
    </contour>
    <contour>
      <point x="582" y="1291" type="move" name="top"/>
    </contour>
    <component base="e"/>
    <component base="ogonek" xOffset="431" yOffset="58"/>
  </outline>
</glyph>
<glyph name="Ecaron" format="1">
  <advance width="998"/>
  <unicode hex="011A"/>
  <outline>
    <contour>
      <point x="671" y="1612" type="move" name="parent_top"/>
    </contour>
    <contour>
      <point x="439" y="10" type="move" name="bottom"/>
    </contour>
    <contour>
      <point x="1115" y="1600" type="move" name="top_dd"/>
    </contour>
    <contour>
      <point x="824" y="-407" type="move" name="bottom_dd"/>
    </contour>
    <contour>
      <point x="1117" y="1612" type="move" name="top0315"/>
    </contour>
    <contour>
      <point x="708" y="1864" type="move" name="top"/>
    </contour>
    <component base="E"/>
    <component base="caron" xOffset="228" yOffset="324"/>
  </outline>
</glyph>
<glyph name="gcircumflex" format="1">
  <advance width="963"/>
  <unicode hex="011D"/>
  <outline>
    <contour>
      <point x="582" y="1290" type="move" name="parent_top"/>
    </contour>
    <contour>
      <point x="319" y="-447" type="move" name="bottom"/>
    </contour>
    <contour>
      <point x="1080" y="1600" type="move" name="top_dd"/>
    </contour>
    <contour>
      <point x="789" y="-407" type="move" name="bottom_dd"/>
    </contour>
    <contour>
      <point x="1035" y="1290" type="move" name="top0315"/>
    </contour>
    <contour>
      <point x="628" y="1603" type="move" name="top"/>
    </contour>
    <component base="g"/>
    <component base="circumflex" xOffset="134" yOffset="-3"/>
  </outline>
</glyph>
<glyph name="Gbreve" format="1">
  <advance width="1194"/>
  <unicode hex="011E"/>
  <outline>
    <contour>
      <point x="743" y="1633" type="move" name="parent_top"/>
    </contour>
    <contour>
      <point x="527" y="0" type="move" name="bottom"/>
    </contour>
    <contour>
      <point x="1311" y="1600" type="move" name="top_dd"/>
    </contour>
    <contour>
      <point x="1019" y="-407" type="move" name="bottom_dd"/>
    </contour>
    <contour>
      <point x="1316" y="1633" type="move" name="top0315"/>
    </contour>
    <contour>
      <point x="776" y="1859" type="move" name="top"/>
    </contour>
    <component base="G"/>
    <component base="breve" xOffset="275" yOffset="345"/>
  </outline>
</glyph>
<glyph name="gbreve" format="1">
  <advance width="963"/>
  <unicode hex="011F"/>
  <outline>
    <contour>
      <point x="582" y="1290" type="move" name="parent_top"/>
    </contour>
    <contour>
      <point x="319" y="-447" type="move" name="bottom"/>
    </contour>
    <contour>
      <point x="1080" y="1600" type="move" name="top_dd"/>
    </contour>
    <contour>
      <point x="789" y="-407" type="move" name="bottom_dd"/>
    </contour>
    <contour>
      <point x="1035" y="1290" type="move" name="top0315"/>
    </contour>
    <contour>
      <point x="615" y="1516" type="move" name="top"/>
    </contour>
    <component base="g"/>
    <component base="breve" xOffset="114" yOffset="2"/>
  </outline>
</glyph>
<glyph name="uni0120" format="1">
  <advance width="1194"/>
  <unicode hex="0120"/>
  <outline>
    <contour>
      <point x="743" y="1633" type="move" name="parent_top"/>
    </contour>
    <contour>
      <point x="527" y="0" type="move" name="bottom"/>
    </contour>
    <contour>
      <point x="1311" y="1600" type="move" name="top_dd"/>
    </contour>
    <contour>
      <point x="1019" y="-407" type="move" name="bottom_dd"/>
    </contour>
    <contour>
      <point x="1316" y="1633" type="move" name="top0315"/>
    </contour>
    <contour>
      <point x="775" y="1853" type="move" name="top"/>
    </contour>
    <component base="G"/>
    <component base="dotaccent" xOffset="450" yOffset="340"/>
  </outline>
</glyph>
<glyph name="uni0121" format="1">
  <advance width="963"/>
  <unicode hex="0121"/>
  <outline>
    <contour>
      <point x="582" y="1290" type="move" name="parent_top"/>
    </contour>
    <contour>
      <point x="319" y="-447" type="move" name="bottom"/>
    </contour>
    <contour>
      <point x="1080" y="1600" type="move" name="top_dd"/>
    </contour>
    <contour>
      <point x="789" y="-407" type="move" name="bottom_dd"/>
    </contour>
    <contour>
      <point x="1035" y="1290" type="move" name="top0315"/>
    </contour>
    <contour>
      <point x="614" y="1510" type="move" name="top"/>
    </contour>
    <component base="g"/>
    <component base="dotaccent" xOffset="290" yOffset="-3"/>
  </outline>
</glyph>
<glyph name="gcommaaccent" format="1">
  <advance width="963"/>
  <unicode hex="0123"/>
  <outline>
    <contour>
      <point x="582" y="1290" type="move" name="parent_top"/>
    </contour>
    <contour>
      <point x="319" y="-447" type="move" name="bottom"/>
    </contour>
    <contour>
      <point x="1080" y="1600" type="move" name="top_dd"/>
    </contour>
    <contour>
      <point x="789" y="-407" type="move" name="bottom_dd"/>
    </contour>
    <contour>
      <point x="1035" y="1290" type="move" name="top0315"/>
    </contour>
    <contour>
      <point x="582" y="1290" type="move" name="top"/>
    </contour>
    <component base="g"/>
    <component base="commaaccentrotate" xOffset="327" yOffset="30"/>
  </outline>
</glyph>
<glyph name="Hcircumflex" format="1">
  <advance width="1220"/>
  <unicode hex="0124"/>
  <outline>
    <contour>
      <point x="750" y="1612" type="move" name="parent_top"/>
    </contour>
    <contour>
      <point x="518" y="10" type="move" name="bottom"/>
    </contour>
    <contour>
      <point x="1337" y="1600" type="move" name="top_dd"/>
    </contour>
    <contour>
      <point x="1046" y="-407" type="move" name="bottom_dd"/>
    </contour>
    <contour>
      <point x="1339" y="1612" type="move" name="top0315"/>
    </contour>
    <contour>
      <point x="796" y="1925" type="move" name="top"/>
    </contour>
    <component base="H"/>
    <component base="circumflex" xOffset="302" yOffset="319"/>
  </outline>
</glyph>
<glyph name="hcircumflex" format="1">
  <advance width="962"/>
  <unicode hex="0125"/>
  <outline>
    <contour>
      <point x="552" y="1611" type="move" name="parent_top"/>
    </contour>
    <contour>
      <point x="400" y="10" type="move" name="bottom"/>
    </contour>
    <contour>
      <point x="1079" y="1600" type="move" name="top_dd"/>
    </contour>
    <contour>
      <point x="787" y="-407" type="move" name="bottom_dd"/>
    </contour>
    <contour>
      <point x="1080" y="1611" type="move" name="top0315"/>
    </contour>
    <contour>
      <point x="598" y="1924" type="move" name="top"/>
    </contour>
    <component base="h"/>
    <component base="circumflex" xOffset="104" yOffset="318"/>
  </outline>
</glyph>
<glyph name="Hbar" format="1">
  <advance width="1172"/>
  <unicode hex="0126"/>
  <outline>
    <contour>
      <point x="726" y="1612" type="move" name="top"/>
    </contour>
    <contour>
      <point x="493" y="10" type="move" name="bottom"/>
    </contour>
    <contour>
      <point x="1299" y="1612" type="move" name="top0315"/>
    </contour>
    <contour>
      <point x="1192" y="1081" type="line"/>
      <point x="105" y="1081" type="line"/>
      <point x="99" y="1028" type="line"/>
      <point x="1186" y="1028" type="line"/>
    </contour>
    <contour>
      <point x="995" y="776" type="line"/>
      <point x="196" y="776" type="line"/>
      <point x="190" y="722" type="line"/>
      <point x="989" y="722" type="line"/>
    </contour>
    <contour>
      <point x="318" y="1456" type="line"/>
      <point x="273" y="1456" type="line"/>
      <point x="62" y="0" type="line"/>
      <point x="108" y="0" type="line"/>
    </contour>
    <contour>
      <point x="1120" y="1456" type="line"/>
      <point x="1075" y="1456" type="line"/>
      <point x="864" y="0" type="line"/>
      <point x="909" y="0" type="line"/>
    </contour>
  </outline>
</glyph>
<glyph name="hbar" format="1">
  <advance width="986"/>
  <unicode hex="0127"/>
  <outline>
    <contour>
      <point x="552" y="1611" type="move" name="parent_top"/>
    </contour>
    <contour>
      <point x="400" y="10" type="move" name="bottom"/>
    </contour>
    <contour>
      <point x="1103" y="1600" type="move" name="top_dd"/>
    </contour>
    <contour>
      <point x="812" y="-407" type="move" name="bottom_dd"/>
    </contour>
    <contour>
      <point x="1105" y="1611" type="move" name="top0315"/>
    </contour>
    <contour>
      <point x="552" y="1611" type="move" name="top"/>
    </contour>
    <component base="h" xOffset="24"/>
    <component base="crossbar" xOffset="43" yOffset="560"/>
  </outline>
</glyph>
<glyph name="Itilde" format="1">
  <advance width="484"/>
  <unicode hex="0128"/>
  <outline>
    <contour>
      <point x="385" y="1612" type="move" name="parent_top"/>
    </contour>
    <contour>
      <point x="151" y="0" type="move" name="bottom"/>
    </contour>
    <contour>
      <point x="600" y="1600" type="move" name="top_dd"/>
    </contour>
    <contour>
      <point x="309" y="-407" type="move" name="bottom_dd"/>
    </contour>
    <contour>
      <point x="602" y="1612" type="move" name="top0315"/>
    </contour>
    <contour>
      <point x="416" y="1844" type="move" name="top"/>
    </contour>
    <component base="I"/>
    <component base="tilde" xOffset="-60" yOffset="334"/>
  </outline>
</glyph>
<glyph name="itilde" format="1">
  <advance width="379"/>
  <unicode hex="0129"/>
  <outline>
    <contour>
      <point x="287" y="1269" type="move" name="parent_top"/>
    </contour>
    <contour>
      <point x="105" y="10" type="move" name="bottom"/>
    </contour>
    <contour>
      <point x="448" y="1269" type="move" name="top0315"/>
    </contour>
    <contour>
      <point x="319" y="1501" type="move" name="top"/>
    </contour>
    <component base="dotlessi"/>
    <component base="tilde" xOffset="-158" yOffset="-9"/>
  </outline>
</glyph>
<glyph name="imacron" format="1">
  <advance width="379"/>
  <unicode hex="012B"/>
  <outline>
    <contour>
      <point x="287" y="1269" type="move" name="parent_top"/>
    </contour>
    <contour>
      <point x="105" y="10" type="move" name="bottom"/>
    </contour>
    <contour>
      <point x="448" y="1269" type="move" name="top0315"/>
    </contour>
    <contour>
      <point x="325" y="1527" type="move" name="top"/>
    </contour>
    <component base="dotlessi"/>
    <component base="macron" xOffset="-168" yOffset="-13"/>
  </outline>
</glyph>
<glyph name="ibreve" format="1">
  <advance width="379"/>
  <unicode hex="012D"/>
  <outline>
    <contour>
      <point x="287" y="1269" type="move" name="parent_top"/>
    </contour>
    <contour>
      <point x="105" y="10" type="move" name="bottom"/>
    </contour>
    <contour>
      <point x="448" y="1269" type="move" name="top0315"/>
    </contour>
    <contour>
      <point x="320" y="1495" type="move" name="top"/>
    </contour>
    <component base="dotlessi"/>
    <component base="breve" xOffset="-180" yOffset="-19"/>
  </outline>
</glyph>
<glyph name="Iogonek" format="1">
  <advance width="484"/>
  <unicode hex="012E"/>
  <outline>
    <contour>
      <point x="385" y="1612" type="move" name="parent_top"/>
    </contour>
    <contour>
      <point x="600" y="1600" type="move" name="top_dd"/>
    </contour>
    <contour>
      <point x="309" y="-407" type="move" name="bottom_dd"/>
    </contour>
    <contour>
      <point x="602" y="1612" type="move" name="top0315"/>
    </contour>
    <contour>
      <point x="385" y="1612" type="move" name="top"/>
    </contour>
    <contour>
      <point x="94" y="-395" type="move" name="bottom"/>
    </contour>
    <component base="I"/>
    <component base="ogonek" xOffset="-15"/>
  </outline>
</glyph>
<glyph name="Idotaccent" format="1">
  <advance width="484"/>
  <unicode hex="0130"/>
  <outline>
    <contour>
      <point x="385" y="1612" type="move" name="parent_top"/>
    </contour>
    <contour>
      <point x="151" y="0" type="move" name="bottom"/>
    </contour>
    <contour>
      <point x="600" y="1600" type="move" name="top_dd"/>
    </contour>
    <contour>
      <point x="309" y="-407" type="move" name="bottom_dd"/>
    </contour>
    <contour>
      <point x="602" y="1612" type="move" name="top0315"/>
    </contour>
    <contour>
      <point x="417" y="1832" type="move" name="top"/>
    </contour>
    <component base="I"/>
    <component base="dotaccent" xOffset="93" yOffset="319"/>
  </outline>
</glyph>
<glyph name="dotlessi" format="1">
  <advance width="371"/>
  <unicode hex="0131"/>
  <outline>
    <contour>
      <point x="287" y="1269" type="move" name="top"/>
    </contour>
    <contour>
      <point x="105" y="10" type="move" name="bottom"/>
    </contour>
    <contour>
      <point x="201" y="654" type="move" name="rhotichook"/>
    </contour>
    <contour>
      <point x="448" y="1269" type="move" name="top0315"/>
    </contour>
    <contour>
      <point x="282" y="1082" type="line"/>
      <point x="237" y="1082" type="line"/>
      <point x="80" y="0" type="line"/>
      <point x="126" y="0" type="line"/>
    </contour>
  </outline>
</glyph>
<glyph name="jcircumflex" format="1">
  <advance width="392"/>
  <unicode hex="0135"/>
  <outline>
    <contour>
      <point x="284" y="1249" type="move" name="parent_top"/>
    </contour>
    <contour>
      <point x="458" y="1249" type="move" name="top0315"/>
    </contour>
    <contour>
      <point x="330" y="1562" type="move" name="top"/>
    </contour>
    <component base="uni0237"/>
    <component base="circumflex" xOffset="-164" yOffset="-44"/>
  </outline>
</glyph>
<glyph name="kcommaaccent" format="1">
  <advance width="838"/>
  <unicode hex="0137"/>
  <outline>
    <contour>
      <point x="610" y="1612" type="move" name="parent_top"/>
    </contour>
    <contour>
      <point x="955" y="1600" type="move" name="top_dd"/>
    </contour>
    <contour>
      <point x="663" y="-407" type="move" name="bottom_dd"/>
    </contour>
    <contour>
      <point x="850" y="1612" type="move" name="top0315"/>
    </contour>
    <contour>
      <point x="610" y="1612" type="move" name="top"/>
    </contour>
    <contour>
      <point x="311" y="-304" type="move" name="bottom"/>
    </contour>
    <component base="k"/>
    <component base="commaaccent" xOffset="207" yOffset="-101"/>
  </outline>
</glyph>
<glyph name="kgreenlandic" format="1">
  <advance width="923"/>
  <unicode hex="0138"/>
  <outline>
    <contour>
      <point x="575" y="1290" type="move" name="top"/>
    </contour>
    <contour>
      <point x="389" y="10" type="move" name="bottom"/>
    </contour>
    <contour>
      <point x="1003" y="1290" type="move" name="top0315"/>
    </contour>
    <contour>
      <point x="274" y="1082" type="line"/>
      <point x="228" y="1082" type="line"/>
      <point x="72" y="0" type="line"/>
      <point x="118" y="0" type="line"/>
    </contour>
    <contour>
      <point x="875" y="1080" type="line"/>
      <point x="815" y="1081" type="line"/>
      <point x="343" y="582" type="line"/>
      <point x="185" y="581" type="line"/>
      <point x="176" y="529" type="line"/>
      <point x="364" y="529" type="line"/>
    </contour>
    <contour>
      <point x="713" y="0" type="line"/>
      <point x="769" y="0" type="line"/>
      <point x="359" y="584" type="line"/>
      <point x="327" y="535" type="line"/>
    </contour>
  </outline>
</glyph>
<glyph name="Lacute" format="1">
  <advance width="910"/>
  <unicode hex="0139"/>
  <outline>
    <contour>
      <point x="347" y="1549" type="move" name="parent_top"/>
    </contour>
    <contour>
      <point x="444" y="10" type="move" name="bottom"/>
    </contour>
    <contour>
      <point x="1026" y="1600" type="move" name="top_dd"/>
    </contour>
    <contour>
      <point x="735" y="-407" type="move" name="bottom_dd"/>
    </contour>
    <contour>
      <point x="1019" y="1549" type="move" name="top0315"/>
    </contour>
    <contour>
      <point x="383" y="1799" type="move" name="top"/>
    </contour>
    <component base="L"/>
    <component base="acute" xOffset="91" yOffset="256"/>
  </outline>
</glyph>
<glyph name="lcommaaccent" format="1">
  <advance width="392"/>
  <unicode hex="013C"/>
  <outline>
    <contour>
      <point x="350" y="1673" type="move" name="parent_top"/>
    </contour>
    <contour>
      <point x="509" y="1600" type="move" name="top_dd"/>
    </contour>
    <contour>
      <point x="218" y="-407" type="move" name="bottom_dd"/>
    </contour>
    <contour>
      <point x="520" y="1673" type="move" name="top0315"/>
    </contour>
    <contour>
      <point x="350" y="1673" type="move" name="top"/>
    </contour>
    <contour>
      <point x="48" y="-408" type="move" name="bottom"/>
    </contour>
    <component base="l"/>
    <component base="commaaccent" xOffset="-56" yOffset="-205"/>
  </outline>
</glyph>
